<svg width="48" height="11" xmlns="http://www.w3.org/2000/svg" viewBox="0 0 48 11">
  <g fill="none" fill-rule="evenodd">
    <path d="M7.041 0v1.633H2.105v2.84h4.726v1.632H2.105v3.072H7.15v1.632H0V0h7.041zm12.702 1.664h.156v1.918h2.495v1.44H19.9v3.334c0 .325.099.588.296.79.198.2.468.301.811.301.447 0 .962-.16 1.544-.48v1.525c-.691.304-1.34.456-1.95.456-.82 0-1.461-.221-1.921-.665-.46-.444-.69-1.045-.69-1.803V5.022H16.85v-.31l2.893-3.048zm7.158 1.78c1.071 0 1.918.34 2.542 1.02.624.681.936 1.623.936 2.825v.286h-5.154c.078.645.32 1.141.729 1.49.408.348.968.522 1.68.522.458 0 .898-.079 1.322-.236a5.793 5.793 0 001.314-.716v1.416c-.853.598-1.887.897-3.104.897-1.148 0-2.087-.343-2.815-1.029-.727-.686-1.091-1.599-1.091-2.739 0-1.098.336-1.996 1.01-2.692.673-.697 1.55-1.045 2.631-1.045zm1.677 2.978c-.052-.526-.213-.937-.484-1.234-.27-.297-.642-.445-1.115-.445-.483 0-.872.142-1.166.426-.293.283-.48.701-.557 1.253h3.322zm7.524-2.979c.78 0 1.402.254 1.868.762.465.508.698 1.178.698 2.008v4.596h-1.91V6.407c0-.47-.114-.841-.34-1.115-.226-.273-.534-.41-.924-.41a1.48 1.48 0 00-.834.26c-.26.172-.546.46-.858.862v4.805h-1.918V3.582h1.918v1.014c.353-.413.716-.708 1.088-.886a2.771 2.771 0 011.212-.267zm9.342.302V0h1.91v10.81h-3.369c-1.164 0-2.096-.334-2.795-.999-.7-.665-1.049-1.573-1.049-2.724 0-.68.163-1.3.488-1.857a3.49 3.49 0 011.34-1.311 3.727 3.727 0 011.845-.476c.51 0 1.053.1 1.63.302zM10.33 3.593l6.015 7.196-2.363.013S12.32 8.784 12.23 8.663c-.412.561-1.664 2.14-1.664 2.14H7.843l3.028-3.744-2.889-3.453 2.348-.013zm33.882 1.274c.426 0 .837.1 1.232.302v4.185h-1.006c-1.555 0-2.332-.776-2.332-2.328 0-.645.191-1.166.573-1.563.382-.398.893-.596 1.533-.596z" fill="#090637"/>
    <path fill="#27AEE4" d="M12.61 5.173l1.218-1.57 2.282.003-2.36 2.882z"/>
  </g>
</svg>
