<svg width="56" height="56" viewBox="0 0 56 56" fill="none" xmlns="http://www.w3.org/2000/svg">
<path d="M10.5009 44C9.50089 41.5 16.0009 32 16.5009 31.5L24 39.5C19.8336 41.8333 11.3009 46 10.5009 44Z" fill="#009EFF"/>
<circle cx="40.5" cy="15.5" r="4.5" fill="#009EFF"/>
<path d="M56 1.09375C56 0.489625 55.5047 0 54.8935 0C49.6175 0 44.4708 1.01215 39.5964 3.00739C36.4886 4.28016 33.59 5.91395 30.9291 7.88569C30.8941 7.88228 30.8582 7.88057 30.8223 7.88057C30.8124 7.88057 30.8024 7.88057 30.7925 7.88099C24.0128 8.05787 17.6376 10.7653 12.8423 15.5056L6.94698 21.3329C6.51474 21.7601 6.51474 22.4527 6.94698 22.8799L15.2352 31.072C12.1434 34.4446 10.1149 38.7239 9.48943 43.2395L9.24824 44.9797C9.20113 45.3185 9.3174 45.6594 9.56205 45.9013C9.77126 46.1081 10.0531 46.2217 10.3444 46.2217C10.3941 46.2217 10.4443 46.2183 10.4944 46.2114L12.2549 45.9735C16.8233 45.3552 21.1526 43.3502 24.5647 40.2941L32.8526 48.4861C33.0687 48.6997 33.3522 48.8065 33.6354 48.8065C33.9185 48.8065 34.2016 48.6997 34.4177 48.4861L40.3131 42.6593C45.1084 37.919 47.8479 31.618 48.0269 24.9166C48.0282 24.8709 48.0256 24.826 48.0212 24.782C50.0165 22.1519 51.6698 19.2863 52.957 16.2144C54.9765 11.396 56 6.30873 56 1.09375ZM14.4071 17.0523C18.1122 13.3903 22.8462 11.0524 27.9639 10.3125C27.5105 10.7218 27.0644 11.1413 26.6278 11.5724L12.6327 25.4058L9.29449 22.1062L14.4071 17.0523ZM11.9549 43.806L11.6385 43.8488L11.6818 43.5364C12.242 39.4913 14.0479 35.655 16.8012 32.6203L22.9987 38.7457C19.9281 41.4673 16.047 43.2523 11.9549 43.806ZM38.7479 41.1123L33.6354 46.1662L30.2967 42.8661L33.2589 39.9382C33.6907 39.5114 33.6907 38.8188 33.2589 38.3915C32.8266 37.9643 32.126 37.9643 31.6937 38.3915L28.732 41.319L14.1974 26.9529L28.193 13.1195C35.0596 6.3318 44.1047 2.4806 53.7705 2.20331C53.4904 11.7578 49.5942 20.6984 42.7271 27.4856L38.3049 31.8568C37.8726 32.284 37.8726 32.9766 38.3049 33.4039C38.7371 33.8307 39.4373 33.8307 39.8696 33.4039L44.2919 29.0327C44.7284 28.6012 45.1529 28.1603 45.5665 27.7121C44.8183 32.7707 42.4531 37.4499 38.7479 41.1123Z" fill="#323941"/>
<path d="M35.7226 34.8633C35.4304 34.8633 35.146 34.9791 34.9394 35.1837C34.7332 35.3871 34.6161 35.6682 34.6161 35.957C34.6161 36.2446 34.7332 36.527 34.9394 36.7303C35.146 36.9337 35.4304 37.0508 35.7226 37.0508C36.0135 37.0508 36.2979 36.9337 36.505 36.7303C36.7107 36.527 36.8291 36.2446 36.8291 35.957C36.8291 35.6682 36.7107 35.3871 36.505 35.1837C36.2979 34.9791 36.0126 34.8633 35.7226 34.8633Z" fill="#323941"/>
<path d="M33.4408 22.2984C32.3961 21.2653 31.0064 20.6966 29.5286 20.6966C28.0512 20.6966 26.6615 21.2653 25.6168 22.2984C24.5716 23.3311 23.9959 24.7047 23.9959 26.1654C23.9959 27.6257 24.5716 28.9993 25.6168 30.032C26.6615 31.0651 28.0512 31.6342 29.5286 31.6342C31.0064 31.6342 32.3961 31.0651 33.4408 30.032C34.486 28.9993 35.0613 27.6257 35.0613 26.1654C35.0613 24.7047 34.486 23.3311 33.4408 22.2984ZM31.8761 28.4854C31.2489 29.1053 30.4155 29.4467 29.5286 29.4467C28.6421 29.4467 27.8083 29.1053 27.1815 28.4854C26.5543 27.8659 26.209 27.0417 26.209 26.1654C26.209 25.2887 26.5543 24.465 27.1815 23.845C27.8083 23.2251 28.6421 22.8842 29.5286 22.8842C30.4155 22.8842 31.2489 23.2251 31.8761 23.845C32.5028 24.465 32.8482 25.2887 32.8482 26.1654C32.8482 27.0417 32.5028 27.8659 31.8761 28.4854Z" fill="#323941"/>
<path d="M40.6519 20.6394C42.1297 20.6394 43.5194 20.0703 44.5641 19.0377C45.6093 18.0046 46.1846 16.6314 46.1846 15.1707C46.1846 13.7099 45.6093 12.3363 44.5641 11.3037C43.5194 10.2706 42.1297 9.7019 40.6519 9.7019C39.1741 9.7019 37.7848 10.2706 36.7397 11.3037C35.6949 12.3363 35.1192 13.7099 35.1192 15.1707C35.1192 16.6314 35.6949 18.0046 36.7397 19.0377C37.7848 20.0703 39.1741 20.6394 40.6519 20.6394ZM38.3048 12.8503C38.9316 12.2303 39.7654 11.8894 40.6519 11.8894C41.5388 11.8894 42.3722 12.2303 42.9994 12.8503C43.6266 13.4702 43.9715 14.294 43.9715 15.1707C43.9715 16.0469 43.6266 16.8711 42.9994 17.4906C42.3722 18.1105 41.5388 18.4519 40.6519 18.4519C39.7654 18.4519 38.9316 18.1105 38.3048 17.4906C37.6776 16.8711 37.3323 16.0469 37.3323 15.1707C37.3323 14.294 37.6776 13.4702 38.3048 12.8503Z" fill="#323941"/>
<path d="M24.8703 45.1364L17.3087 52.6102C16.8764 53.0375 16.8764 53.73 17.3087 54.1573C17.5248 54.3705 17.8079 54.4773 18.091 54.4773C18.3742 54.4773 18.6573 54.3705 18.8734 54.1573L26.435 46.683C26.8673 46.2562 26.8673 45.5637 26.435 45.1364C26.0032 44.7096 25.3026 44.7092 24.8703 45.1364Z" fill="#323941"/>
<path d="M5.64465 36.4825L0.324182 41.7415C-0.108061 42.1683 -0.108061 42.8609 0.324182 43.2882C0.540303 43.5018 0.823422 43.6086 1.10654 43.6086C1.38966 43.6086 1.67278 43.5018 1.8889 43.2882L7.20937 38.0296C7.64161 37.6023 7.64161 36.9098 7.20937 36.4825C6.77713 36.0553 6.07689 36.0553 5.64465 36.4825Z" fill="#323941"/>
<path d="M9.66146 35.153C9.95236 35.153 10.2368 35.0359 10.4438 34.8325C10.6496 34.6291 10.768 34.3472 10.768 34.0592C10.768 33.7717 10.6496 33.4893 10.4438 33.2859C10.2368 33.0825 9.95236 32.9654 9.66146 32.9654C9.37013 32.9654 9.08485 33.0825 8.87781 33.2859C8.67206 33.4893 8.55363 33.7717 8.55363 34.0592C8.55363 34.3472 8.67206 34.6291 8.87781 34.8325C9.08485 35.0359 9.37013 35.153 9.66146 35.153Z" fill="#323941"/>
<path d="M14.165 49.1658L9.13975 54.1329C8.7075 54.5602 8.7075 55.2523 9.13975 55.6796C9.35587 55.8932 9.63899 56 9.9221 56C10.2052 56 10.4883 55.8932 10.7045 55.6796L15.7297 50.7124C16.162 50.2856 16.162 49.593 15.7297 49.1658C15.2975 48.7385 14.5972 48.7385 14.165 49.1658Z" fill="#323941"/>
</svg>
