<svg width="72" height="53" viewBox="0 0 72 53" fill="none" xmlns="http://www.w3.org/2000/svg">
<path d="M16.4167 0H54L51.1439 34H13L16.4167 0Z" fill="#009EFF"/>
<path d="M36.9943 8C35.8805 8 34.9681 8.9187 34.9681 10.0402C34.9681 11.1616 35.8805 12.0596 36.9943 12.0596C38.1081 12.0596 39 11.1616 39 10.0402C39 8.9187 38.1081 8 36.9943 8ZM28.7044 12.5231C28.3674 12.5231 28.0961 12.7963 28.0961 13.1356C28.0961 13.4749 28.3674 13.7481 28.7044 13.7481H35.3133C35.5394 13.7356 36.197 13.7894 36.4929 14.1743C36.8052 14.584 36.6614 15.2999 36.4929 15.8255C36.4929 15.8255 34.5735 22.0205 34.4297 22.4839C34.1255 23.473 33.172 24.0937 32.2555 23.6882C31.4992 23.353 31.4499 22.6288 31.7047 21.9253C31.7376 21.8384 31.7787 21.7763 31.8157 21.7018C31.8157 21.7018 33.4597 18.5857 33.8214 17.7167C34.0885 17.0794 33.7433 16.6407 32.9172 16.6407H29.1606C28.8236 16.6407 28.5523 16.9138 28.5523 17.2532C28.5523 17.5925 28.8236 17.8656 29.1606 17.8656H30.2292C30.4553 17.8532 31.1293 17.8822 31.3882 18.2919C31.8732 19.0533 31.5403 19.3016 30.8169 21.8342C30.7717 21.9667 30.7306 22.1032 30.706 22.2439C30.706 22.2439 30.2087 24.0151 31.791 24.7476C33.2542 25.4221 34.9516 24.7021 35.4572 23.0964C35.8106 21.9667 37.6478 16.1979 37.6478 16.1979C38.0218 15.0226 37.9602 14.0833 37.4464 13.417C36.7354 12.4983 35.4654 12.519 35.2722 12.5273H28.7044V12.5231ZM26.6083 14.5467C26.2713 14.5467 26 14.8199 26 15.1592C26 15.4985 26.2713 15.7882 26.6083 15.7882H34.3803C34.7174 15.7882 34.9886 15.4985 34.9886 15.1592C34.9886 14.8199 34.7174 14.5467 34.3803 14.5467H26.6083Z" fill="white"/>
<circle cx="24.1463" cy="44.3415" r="2.19512" fill="#009EFF"/>
<circle cx="56.6346" cy="44.3415" r="2.19512" fill="#009EFF"/>
<path d="M58.289 16.8436H53.7561L55.1218 1.14709C55.1244 1.11866 55.1248 1.09064 55.1249 1.06263C55.1249 1.06024 55.1252 1.05799 55.1252 1.05559V1.05447C55.1252 0.627247 54.8677 0.250702 54.4893 0.086993C54.4861 0.0855853 54.483 0.0838965 54.4797 0.0824888C54.4563 0.0726353 54.4319 0.064189 54.4075 0.0560246C54.3983 0.0530686 54.3896 0.0494085 54.3805 0.0465932C54.3605 0.0405403 54.34 0.0357544 54.3196 0.0308277C54.3052 0.0274493 54.2915 0.0233674 54.277 0.0205521C54.2591 0.017033 54.2405 0.0147811 54.2223 0.0121066C54.2051 0.00957285 54.1882 0.00661637 54.1709 0.00506796C54.168 0.00478643 54.1653 0.00422292 54.1624 0.00394139C54.1438 0.00225221 54.1255 0.00253383 54.1071 0.00183001C54.0947 0.00140771 54.0826 0 54.0702 0H54.057C54.0559 0 54.0548 0 54.0538 0H32.4859C31.9037 0 31.4312 0.472969 31.4312 1.05573C31.4312 1.63709 31.9037 2.11147 32.4859 2.11147H52.9206L50.8217 26.235C50.8214 26.2368 50.8214 26.2386 50.8211 26.2405L50.2915 32.3273H13.6432L14.2562 25.9931H21.2342C21.8168 25.9931 22.2889 25.5205 22.2889 24.9374C22.2889 24.3544 21.8168 23.8817 21.2342 23.8817H14.4607L15.755 10.5098H26.8609C27.4435 10.5098 27.9156 10.0371 27.9156 9.45402C27.9156 8.87098 27.4435 8.39829 26.8609 8.39829H15.9595L16.5681 2.11147H28.2671C28.8479 2.11147 29.3218 1.63709 29.3218 1.05573C29.3218 0.472969 28.8479 0 28.2671 0H15.6108L15.6093 0.000140687C15.1139 -7.73361e-08 14.6841 0.349097 14.5802 0.833045C14.5795 0.836564 14.5782 0.839942 14.5775 0.843461C14.5722 0.869784 14.5687 0.89667 14.5652 0.923697C14.5642 0.932284 14.5623 0.940448 14.5615 0.949035C14.5614 0.950724 14.5609 0.952272 14.5608 0.953961L13.8402 8.39829H1.05469C0.47208 8.39829 0 8.87098 0 9.45402C0 10.0371 0.47208 10.5098 1.05469 10.5098H13.6358L12.3414 23.8817H8.57844C7.99583 23.8817 7.52375 24.3544 7.52375 24.9374C7.52375 25.5205 7.99583 25.9931 8.57844 25.9931H12.1371L11.4323 33.2736C11.4322 33.2747 11.4322 33.2759 11.432 33.2769L10.3423 44.5351C10.3422 44.5363 10.342 44.5377 10.3419 44.5389L10.3415 44.5429C10.3401 44.5576 10.3402 44.5719 10.3394 44.5866C10.3384 44.606 10.3364 44.625 10.3364 44.6447C10.3364 44.6456 10.3365 44.6464 10.3365 44.6474C10.3365 44.6746 10.3385 44.7013 10.3405 44.728C10.3413 44.7366 10.341 44.7454 10.342 44.7538C10.3448 44.7811 10.3495 44.808 10.3544 44.8347C10.3558 44.8426 10.3565 44.8507 10.3581 44.8584C10.3621 44.8787 10.3679 44.8982 10.3732 44.9181C10.3769 44.932 10.3799 44.9462 10.3841 44.9599C10.3853 44.9637 10.387 44.9673 10.3882 44.9713C10.4392 45.1284 10.5258 45.2694 10.6389 45.3846C10.641 45.3867 10.6427 45.3891 10.6448 45.391C10.656 45.4023 10.6683 45.4124 10.6801 45.4231C10.7528 45.4899 10.8349 45.5465 10.9248 45.5908C10.9435 45.6001 10.9619 45.6098 10.981 45.6178C10.9868 45.6203 10.993 45.622 10.9989 45.6243C11.0253 45.6348 11.0519 45.645 11.0793 45.6536C11.0819 45.6543 11.0842 45.6547 11.0868 45.6555C11.118 45.6648 11.1495 45.673 11.1817 45.6796C11.1859 45.6805 11.1903 45.6807 11.1944 45.6816C11.225 45.6874 11.2558 45.6923 11.2872 45.6954L11.2891 45.6957C11.3237 45.699 11.358 45.7007 11.3921 45.7007L11.3936 45.7006H16.0888C16.6073 49.6354 19.9774 52.6829 24.0478 52.6829C28.1179 52.6829 31.488 49.6354 32.0065 45.7006H48.9236C49.4423 49.6354 52.8122 52.6829 56.8825 52.6829C60.9526 52.6829 64.323 49.6354 64.8416 45.7006H69.5379L69.5402 45.7007C69.5753 45.7007 69.6099 45.6986 69.6442 45.6952C69.6504 45.6947 69.6563 45.6934 69.6625 45.6927C69.6899 45.6895 69.7172 45.6857 69.7439 45.6803C69.7555 45.6781 69.7666 45.675 69.778 45.6723C69.7987 45.6675 69.8195 45.6624 69.8397 45.6564C69.8535 45.6523 69.8669 45.6475 69.8804 45.6429C69.8977 45.637 69.9149 45.6308 69.932 45.6239C69.9466 45.6181 69.9605 45.6118 69.9747 45.6054C69.9902 45.5983 70.0057 45.5909 70.0207 45.5832C70.035 45.5759 70.0488 45.5683 70.0626 45.5604C70.0771 45.5519 70.0914 45.5432 70.1056 45.5342C70.1189 45.5258 70.1321 45.5172 70.1447 45.5082C70.1591 45.4982 70.1727 45.4876 70.1866 45.4769C70.1982 45.4678 70.2098 45.4588 70.2211 45.4492C70.2356 45.4369 70.2492 45.4241 70.263 45.411C70.2726 45.4019 70.2825 45.3929 70.2918 45.3833C70.3064 45.3684 70.3204 45.3526 70.3343 45.3367C70.3418 45.3281 70.3495 45.3198 70.3567 45.3111C70.3721 45.292 70.3862 45.2722 70.4002 45.2524C70.405 45.2455 70.4104 45.239 70.415 45.232C70.4322 45.2062 70.4483 45.1798 70.4632 45.1525C70.4644 45.1508 70.4655 45.1492 70.4662 45.1474C70.4821 45.1181 70.4967 45.0881 70.5098 45.0572C70.5135 45.0483 70.5163 45.0391 70.5198 45.0303C70.5284 45.0084 70.5368 44.9866 70.544 44.964C70.5486 44.9493 70.552 44.9343 70.5561 44.9195C70.5607 44.9019 70.5656 44.8844 70.5696 44.8666C70.5731 44.8506 70.5753 44.8343 70.578 44.8181C70.5804 44.8039 70.5835 44.79 70.5853 44.7755C70.63 44.4168 71.4559 37.7841 71.8248 33.4953C71.8252 33.4912 71.8253 33.487 71.8258 33.4829C71.9319 32.2466 72 31.2055 72 30.5681C72 23.0005 65.8493 16.8436 58.289 16.8436ZM53.5723 18.9553H57.8871L57.336 25.2892H53.0212L53.5723 18.9553ZM24.0481 50.5713C20.7832 50.5713 18.1271 47.9126 18.1271 44.6446C18.1271 41.3766 20.7833 38.7178 24.0481 38.7178C27.3129 38.7178 29.969 41.3766 29.969 44.6446C29.969 47.9126 27.3129 50.5713 24.0481 50.5713ZM56.8825 50.5713C53.6177 50.5713 50.9617 47.9126 50.9617 44.6446C50.9617 41.3766 53.6179 38.7178 56.8825 38.7178C60.1474 38.7178 62.8035 41.3766 62.8035 44.6446C62.8035 47.9126 60.1474 50.5713 56.8825 50.5713ZM68.606 43.5884H64.8419C64.3235 39.6533 60.9533 36.6057 56.8828 36.6057C52.8125 36.6057 49.4423 39.6535 48.9239 43.5884H32.0069C31.4886 39.6533 28.1185 36.6057 24.0481 36.6057C19.9777 36.6057 16.6073 39.6535 16.089 43.5884H12.5531L13.4389 34.4382H51.258V34.4387H51.2596C51.2949 34.4387 51.3299 34.4368 51.3645 34.4332C51.3709 34.4327 51.3773 34.4313 51.3837 34.4304C51.4113 34.4272 51.4387 34.4232 51.4657 34.4179C51.4774 34.4155 51.4888 34.4123 51.5003 34.4094C51.5214 34.4044 51.5425 34.3995 51.563 34.3933C51.5771 34.389 51.5905 34.384 51.6041 34.3792C51.6218 34.373 51.6395 34.3669 51.6567 34.3599C51.6715 34.3538 51.6857 34.3471 51.7 34.3403C51.7156 34.3332 51.7312 34.326 51.7463 34.3181C51.7606 34.3105 51.7747 34.3023 51.7889 34.2942C51.8034 34.2857 51.8177 34.2771 51.8318 34.2681C51.8454 34.2593 51.8583 34.25 51.8714 34.2407C51.8853 34.2308 51.8989 34.2207 51.9124 34.2101C51.9244 34.2004 51.9364 34.1904 51.9482 34.1801C51.9616 34.1686 51.9746 34.1568 51.9873 34.1445C51.998 34.1343 52.0087 34.1237 52.0191 34.1129C52.0317 34.0996 52.044 34.086 52.0561 34.072C52.0655 34.0611 52.0748 34.0501 52.0838 34.0388C52.0954 34.024 52.1066 34.0088 52.1175 33.9935C52.1258 33.9819 52.1338 33.9704 52.1417 33.9586C52.152 33.9427 52.1618 33.9263 52.1712 33.9097C52.1784 33.8974 52.1857 33.885 52.1922 33.8723C52.2011 33.8557 52.2086 33.8388 52.2167 33.8218C52.2229 33.8081 52.2292 33.7947 52.2348 33.7807C52.2417 33.764 52.2475 33.747 52.2535 33.73C52.2587 33.7149 52.2642 33.6999 52.2688 33.6844C52.2735 33.668 52.2773 33.6513 52.2815 33.6347C52.2856 33.6179 52.2901 33.6013 52.2933 33.5843C52.2965 33.5677 52.2985 33.5508 52.301 33.5339C52.3036 33.5164 52.3065 33.4993 52.3082 33.4815C52.3085 33.479 52.3091 33.4766 52.3092 33.4741L52.8378 27.4001H58.2887C61.5202 27.4001 62.9776 29.076 64.5204 30.8505C65.7935 32.3146 67.2148 33.9482 69.6307 34.3467C69.3239 37.5941 68.8279 41.763 68.606 43.5884ZM69.811 32.231C68.2438 31.9112 67.2795 30.8083 66.1113 29.4648C64.6503 27.7848 62.8668 25.7346 59.4478 25.3525L59.9934 19.0817C65.5852 19.9096 69.8906 24.7446 69.8906 30.5684C69.8906 30.9641 69.8611 31.539 69.811 32.231Z" fill="#323941"/>
<path d="M24.0481 40.7734C21.9158 40.7734 20.1809 42.5099 20.1809 44.6444C20.1809 46.779 21.9158 48.5154 24.0481 48.5154C26.1804 48.5154 27.9153 46.779 27.9153 44.6444C27.9153 42.51 26.1804 40.7734 24.0481 40.7734ZM24.0481 46.404C23.0788 46.404 22.2903 45.6147 22.2903 44.6444C22.2903 43.6741 23.0788 42.8849 24.0481 42.8849C25.0175 42.8849 25.806 43.6741 25.806 44.6444C25.806 45.6147 25.0173 46.404 24.0481 46.404Z" fill="#323941"/>
<path d="M56.8825 40.7734C54.7502 40.7734 53.0153 42.5099 53.0153 44.6444C53.0153 46.779 54.7502 48.5154 56.8825 48.5154C59.0148 48.5154 60.7497 46.779 60.7497 44.6444C60.7497 42.51 59.0148 40.7734 56.8825 40.7734ZM56.8825 46.404C55.9131 46.404 55.1246 45.6147 55.1246 44.6444C55.1246 43.6741 55.9131 42.8849 56.8825 42.8849C57.8518 42.8849 58.6403 43.6741 58.6403 44.6444C58.6403 45.6147 57.8518 46.404 56.8825 46.404Z" fill="#323941"/>
<path d="M9.98442 16.8439H4.82824C4.24563 16.8439 3.77355 17.3166 3.77355 17.8996C3.77355 18.4827 4.24563 18.9553 4.82824 18.9553H9.98442C10.567 18.9553 11.0391 18.4827 11.0391 17.8996C11.0391 17.3166 10.567 16.8439 9.98442 16.8439Z" fill="#323941"/>
</svg>
