<svg width="56" height="46" viewBox="0 0 56 46" fill="none" xmlns="http://www.w3.org/2000/svg">
<rect x="30" y="23" width="15" height="8" fill="#009EFF"/>
<rect x="1" y="5" width="48" height="8" fill="#009EFF"/>
<path d="M29.8574 31.9184H44.786C45.3458 31.9184 45.719 31.5429 45.719 30.9796V22.5306C45.719 21.9674 45.3458 21.5919 44.786 21.5919H29.8574C29.2976 21.5919 28.9244 21.9674 28.9244 22.5306V30.9796C28.9243 31.5428 29.2976 31.9184 29.8574 31.9184ZM30.7904 23.4694H43.853V30.0408H30.7904V23.4694Z" fill="#323941"/>
<path d="M4.66525 19.7142H12.1296C12.6894 19.7142 13.0626 19.3387 13.0626 18.7754C13.0626 18.2122 12.6894 17.8367 12.1296 17.8367H4.66525C4.10542 17.8367 3.73224 18.2122 3.73224 18.7754C3.73224 19.3387 4.10542 19.7142 4.66525 19.7142Z" fill="#323941"/>
<path d="M15.8617 19.7142H23.3261C23.8859 19.7142 24.2591 19.3387 24.2591 18.7754C24.2591 18.2122 23.8859 17.8367 23.3261 17.8367H15.8617C15.3019 17.8367 14.9287 18.2122 14.9287 18.7754C14.9287 19.3387 15.3019 19.7142 15.8617 19.7142Z" fill="#323941"/>
<path d="M4.66525 23.4694H16.7948C17.3546 23.4694 17.7278 23.0939 17.7278 22.5306C17.7278 21.9674 17.3546 21.5919 16.7948 21.5919H4.66525C4.10542 21.5919 3.73224 21.9674 3.73224 22.5306C3.73224 23.0939 4.10542 23.4694 4.66525 23.4694Z" fill="#323941"/>
<path d="M23.326 21.5918H20.5269C19.9671 21.5918 19.5939 21.9673 19.5939 22.5305C19.5939 23.0938 19.9671 23.4693 20.5269 23.4693H23.326C23.8858 23.4693 24.259 23.0938 24.259 22.5305C24.259 21.9673 23.8858 21.5918 23.326 21.5918Z" fill="#323941"/>
<path d="M55.1428 9.95099C54.4897 9.10609 53.6499 8.63667 52.6236 8.54283L50.3843 8.26978V3.75507C50.3843 1.6898 48.7048 5.37142e-09 46.6521 5.37142e-09H3.73213C1.67948 -0.000110007 0 1.68969 0 3.75507V33.7959C0 35.4916 1.13244 36.9333 2.67371 37.3953C2.6267 39.2944 4.0548 40.943 5.97154 41.1184L49.0781 46C49.1713 46 49.358 46 49.4513 46C51.3174 46 52.9969 44.5918 53.1834 42.8082L55.9825 12.6735C56.0758 11.7346 55.7959 10.7019 55.1428 9.95099ZM1.86612 6.5714H48.5183V12.2041H1.86612V6.5714ZM3.73213 1.87748H46.652C47.6784 1.87748 48.5181 2.72238 48.5181 3.75507V4.69381H1.86612V3.75507C1.86612 2.72238 2.70586 1.87748 3.73213 1.87748ZM1.86612 33.7958V14.0815H48.5183V33.7958C48.5183 34.8285 47.6785 35.6734 46.6521 35.6734H3.73224C2.70586 35.6734 1.86612 34.8285 1.86612 33.7958ZM54.1164 12.2979L51.3173 42.4326C51.224 43.4653 50.2909 44.2163 49.2646 44.1224L6.25134 39.2408C5.31834 39.147 4.66514 38.3959 4.57187 37.551H46.652C48.7047 37.551 50.3842 35.8612 50.3842 33.7959V10.0448L52.5302 10.2326C52.9967 10.2326 53.4632 10.5143 53.7431 10.8897C54.0231 11.2652 54.2098 11.8285 54.1164 12.2979Z" fill="#323941"/>
</svg>
