<svg width="92" height="92" viewBox="0 0 92 92" fill="none" xmlns="http://www.w3.org/2000/svg">
<g clip-path="url(#clip0_704_54364)">
<path d="M30.891 34.7111C31.1718 34.9037 31.4864 35 31.801 35C32.1034 35 32.4071 34.91 32.6812 34.7317C36.7299 32.0813 41.3363 30.6796 46.0007 30.6796C50.6651 30.6796 55.2727 32.0813 59.3202 34.7317C59.8777 35.0963 60.5582 35.0884 61.1103 34.7111C61.6611 34.3339 62 33.6425 62 32.8958V24.2535C62 16.9465 57.5822 15 51.3328 15H42C35.7507 15 30 16.9465 30 24.2535V32.8974C30.0014 33.6425 30.3402 34.3339 30.891 34.7111Z" stroke="#999999" stroke-width="2" stroke-linecap="round"/>
<path d="M72.7085 35.8139V22.148C72.7085 11.0387 63.0975 2 51.2848 2H40.7152C28.9025 2 19.2915 11.0387 19.2915 22.148V35.8139C13.9386 41.7524 11 49.277 11 57.0834C11 75.2341 26.7008 90 45.9992 90C65.2977 90 81 75.2341 81 57.0834C81 49.277 78.0614 41.7524 72.7085 35.8139Z" stroke="#999999" stroke-width="2" stroke-linecap="round"/>
<path d="M76.0829 53.6851C76.3674 55.8825 76.3626 58.1077 76.0687 60.3038" stroke="#009EFF" stroke-width="2" stroke-linecap="round"/>
<path d="M75.433 63.5023C74.2811 67.8012 72.0179 71.7211 68.8709 74.8681C65.7239 78.0151 61.804 80.2783 57.5051 81.4302" stroke="#009EFF" stroke-width="2" stroke-linecap="round"/>
</g>
<defs>
<clipPath id="clip0_704_54364">
<rect width="92" height="92" fill="white"/>
</clipPath>
</defs>
</svg>
