<svg width="90" height="90" viewBox="0 0 90 90" fill="none" xmlns="http://www.w3.org/2000/svg">
<path d="M22.6641 44.9985C22.6641 32.6834 32.6838 22.665 44.9975 22.665C57.3112 22.665 67.331 32.6848 67.331 44.9985C67.331 57.3122 57.3126 67.3319 44.9975 67.3319C32.6824 67.3319 22.6641 57.3122 22.6641 44.9985Z" stroke="#009EFF" stroke-width="2"/>
<path d="M36.7109 31.9736C38.8696 30.4192 41.321 29.6021 43.8162 29.6052" stroke="#009EFF" stroke-width="2" stroke-linecap="round" stroke-linejoin="round"/>
<path d="M29.6016 43.8158C29.602 40.8089 30.8532 37.8893 33.1542 35.5264" stroke="#009EFF" stroke-width="2" stroke-linecap="round" stroke-linejoin="round"/>
<path d="M81.036 35.2596L81.2354 35.9994H82.0016H85.3648C87.3683 35.9994 88.9992 37.6299 89.0015 39.6329V50.3653C89.0015 52.3687 87.37 53.9991 85.3677 53.9991H82.0045H81.2381L81.0389 54.7392C80.2041 57.8407 78.9742 60.809 77.3715 63.5961L76.9897 64.26L77.5313 64.8017L79.9072 67.1775C80.5955 67.867 80.9722 68.7764 80.9722 69.7474C80.9722 70.7205 80.5951 71.6308 79.9078 72.3182L72.3199 79.906C72.3198 79.9061 72.3197 79.9062 72.3196 79.9063C70.958 81.2664 68.5413 81.268 67.1796 79.9063L64.8031 77.5299L64.2615 76.9883L63.5975 77.3701C60.8107 78.9726 57.8423 80.2012 54.7402 81.0376L54.0006 81.237V82.0031V85.3662C54.0006 87.3696 52.3691 89 50.3668 89H39.6346C37.6313 89 36.0009 87.3685 36.0009 85.3662V82.0031V81.2366L35.2608 81.0374C32.1593 80.2027 29.191 78.9727 26.4039 77.3701L25.74 76.9883L25.1984 77.5299L22.8219 79.9063L22.8216 79.9066C21.461 81.2684 19.0417 81.2673 17.6821 79.9066L17.6818 79.9063L10.0943 72.3188C10.0941 72.3186 10.094 72.3184 10.0938 72.3183C10.0938 72.3182 10.0937 72.3182 10.0937 72.3182C9.40583 71.6288 9.02928 70.7198 9.02928 69.7474C9.02928 68.7759 9.40625 67.8655 10.0937 67.1781L12.4701 64.8017L13.0118 64.26L12.6299 63.5961C11.0274 60.8092 9.79882 57.8408 8.96245 54.7388L8.76302 53.9991H7.99693H4.63375C2.63019 53.9991 1 52.3689 1 50.3653V39.6332C1 37.6296 2.63019 35.9994 4.63375 35.9994H7.99693H8.76379L8.9627 35.2588C9.79602 32.1561 11.0259 29.1867 12.6281 26.4045L13.0107 25.7403L12.4687 25.1984L10.0934 22.8231C10.0931 22.8228 10.0928 22.8224 10.0924 22.8221C9.40565 22.1325 9.02928 21.2232 9.02928 20.2526C9.02928 19.2787 9.40547 18.3686 10.0922 17.6818L17.6804 10.0937C19.0404 8.7337 21.4599 8.732 22.8202 10.0934L22.8205 10.0937L25.1969 12.4701L25.7385 13.0118L26.4025 12.6299C29.1893 11.0274 32.1577 9.79882 35.2598 8.96245L35.9994 8.76302V7.99693V4.63375C35.9994 2.62999 37.6298 1 39.6317 1H50.3654C52.3688 1 53.9994 2.63021 54.0006 4.63432V7.99693V8.76327L54.7406 8.96253C57.8409 9.7974 60.8091 11.0259 63.5944 12.6284L64.2585 13.0104L64.8002 12.4687L67.1763 10.0925C67.1764 10.0924 67.1765 10.0923 67.1766 10.0922C68.5386 8.73174 70.9568 8.73386 72.3167 10.0922C72.3168 10.0923 72.3169 10.0924 72.317 10.0925L79.9042 17.6798C80.5925 18.3692 80.9693 19.2785 80.9693 20.2511C80.9693 21.2226 80.5923 22.133 79.9048 22.8204L77.5284 25.1969L76.9865 25.7387L77.3688 26.4029C78.9711 29.1864 80.1996 32.1561 81.036 35.2596Z" stroke="#999999" stroke-width="2"/>
</svg>
