<svg width="86" height="86" viewBox="0 0 86 86" fill="none" xmlns="http://www.w3.org/2000/svg">
<path d="M63.8975 6.80438L84.7951 43L63.8975 79.1956L22.1024 79.1956L1.2049 43L22.1025 6.80438L63.8975 6.80438Z" fill="white" stroke="#CCCCCC" stroke-width="2.08696"/>
<g clip-path="url(#clip0_1405_41709)">
<path d="M35.7573 38.9723H37.074C37.074 35.7052 39.732 33.0472 42.9992 33.0472V31.7305C39.0062 31.7305 35.7573 34.9794 35.7573 38.9723Z" fill="#CCCCCC"/>
<path d="M54.4112 50.1642H53.7529V38.9716C53.7529 33.0429 48.9287 28.2188 42.9994 28.2188C37.07 28.2188 32.2459 33.0429 32.2459 38.9716V50.1635H31.5875C30.2568 50.1635 29.1733 51.2462 29.1733 52.5777V57.6253H56.8247V52.5777C56.8247 51.2469 55.742 50.1642 54.4112 50.1642ZM33.5626 38.9716C33.5626 33.768 37.7958 29.5354 42.9994 29.5354C48.2029 29.5354 52.4362 33.7687 52.4362 38.9716V50.1635H33.5626V38.9716ZM55.508 53.2367H48.8803V54.5534H55.508V56.3093H30.4907V54.5534H37.5569V53.2367H30.4907V52.5784C30.4907 51.9734 30.9826 51.4809 31.5882 51.4809H54.4112C55.0162 51.4809 55.5087 51.9727 55.5087 52.5784V53.2367H55.508Z" fill="#CCCCCC"/>
<path d="M60.4564 32.1123L59.5254 33.0433C64.4022 37.9208 64.4022 45.8561 59.5254 50.7337L60.4564 51.6647C65.8468 46.2735 65.8468 37.5028 60.4564 32.1123Z" fill="#CCCCCC"/>
<path d="M57.8704 34.6982L56.9395 35.6292C60.3907 39.0804 60.3907 44.6957 56.9395 48.147L57.8704 49.0779C61.8346 45.1138 61.8346 38.6631 57.8704 34.6982Z" fill="#CCCCCC"/>
<path d="M26.4728 33.043L25.5419 32.1113C20.1514 37.5018 20.1514 46.2732 25.5419 51.6637L26.4728 50.7327C21.596 45.8559 21.596 37.9198 26.4728 33.043Z" fill="#CCCCCC"/>
<path d="M29.0594 35.6299L28.1284 34.6982C24.1642 38.6624 24.1642 45.1138 28.1284 49.0779L29.0594 48.147C25.6081 44.6964 25.6081 39.0804 29.0594 35.6299Z" fill="#CCCCCC"/>
<path d="M44.9743 48.2519V45.1337C45.7732 44.5323 46.291 43.5767 46.291 42.5017C46.291 40.6869 44.8141 39.21 42.9992 39.21C41.1844 39.21 39.7075 40.6869 39.7075 42.5017C39.7075 43.576 40.2253 44.5323 41.0242 45.1337V48.2519H39.4883V49.5686H46.5109V48.2519H44.9743ZM43.6576 48.2519H42.3409V45.7281C42.5538 45.7717 42.7737 45.7942 42.9992 45.7942C43.2248 45.7942 43.4447 45.771 43.6576 45.7281V48.2519ZM42.9992 44.4775C41.9102 44.4775 41.0242 43.5915 41.0242 42.5024C41.0242 41.4134 41.9102 40.5274 42.9992 40.5274C44.0883 40.5274 44.9743 41.4134 44.9743 42.5024C44.9743 43.5915 44.0883 44.4775 42.9992 44.4775Z" fill="#CCCCCC"/>
<path d="M40.805 53.2373H39.4883V54.554H40.805V53.2373Z" fill="#CCCCCC"/>
<path d="M46.9495 53.2373H45.6328V54.554H46.9495V53.2373Z" fill="#CCCCCC"/>
<path d="M43.8772 53.2373H42.5605V54.554H43.8772V53.2373Z" fill="#CCCCCC"/>
</g>
<defs>
<clipPath id="clip0_1405_41709">
<rect width="43" height="29.4065" fill="white" transform="translate(21.4995 28.2188)"/>
</clipPath>
</defs>
</svg>
