<svg width="86" height="86" viewBox="0 0 86 86" fill="none" xmlns="http://www.w3.org/2000/svg">
<path d="M63.8975 6.80438L84.7951 43L63.8975 79.1956L22.1024 79.1956L1.2049 43L22.1025 6.80438L63.8975 6.80438Z" fill="white" stroke="#CCCCCC" stroke-width="2.08696"/>
<path d="M50.3513 52.2631C50.6645 51.9288 50.6645 51.39 50.3513 51.0682C50.0272 50.7339 49.5048 50.7339 49.1923 51.0682L43.3174 57.1171V37.1287C43.3174 36.6628 42.9583 36.2799 42.506 36.2799C42.0544 36.2799 41.6832 36.6622 41.6832 37.1287V57.1159L35.8198 51.0669C35.4958 50.7327 34.9855 50.7327 34.6614 51.0669C34.3482 51.39 34.3482 51.9276 34.6614 52.2625L41.9274 59.7577C42.2406 60.0808 42.7618 60.0808 43.0859 59.7577L50.3513 52.2631ZM40.0266 46.2498C40.4667 46.2498 40.838 46.6202 40.838 47.0867C40.838 47.5526 40.4674 47.9355 40.0266 47.9355H32.2044C29.9444 47.9355 27.8936 46.9913 26.4105 45.4496C24.9154 43.9191 24 41.8037 24 39.4724C24 37.1411 24.9154 35.025 26.4099 33.4958C27.8936 31.9653 29.9444 31.0093 32.2044 31.0093C32.7491 31.0093 33.2938 31.0685 33.8265 31.1883C34.1282 31.2475 34.4172 31.3199 34.6953 31.4159C35.5641 29.8736 36.8047 28.5826 38.2763 27.6384C39.8984 26.5981 41.8108 26 43.8615 26C46.6657 26 49.2273 27.1357 51.1276 28.9761C52.8428 30.6376 54.0127 32.8616 54.3724 35.3718C54.5459 35.3475 54.7316 35.3475 54.9057 35.3475C56.5859 35.3475 58.1161 36.0522 59.2158 37.1879C60.3283 38.3236 61 39.9015 61 41.6353C61 43.3803 60.3277 44.9469 59.2158 46.0938C58.1149 47.2295 56.5852 47.9343 54.9057 47.9343H44.9861C44.5345 47.9343 44.1747 47.552 44.1747 47.0855C44.1747 46.619 44.5339 46.2485 44.9861 46.2485H54.9057C56.1336 46.2485 57.2582 45.734 58.0574 44.8977C58.8688 44.0607 59.367 42.9132 59.367 41.634C59.367 40.3674 58.8682 39.2073 58.0574 38.3829C57.2582 37.5459 56.1336 37.032 54.9057 37.032C54.7201 37.032 54.5351 37.0438 54.3724 37.0682C54.1989 37.08 54.0248 37.1156 53.8736 37.1517C53.8162 37.1636 53.7576 37.1761 53.7001 37.1879C53.2479 37.2122 52.8658 36.8536 52.8313 36.3871C52.6923 33.9605 51.6378 31.7726 50.0151 30.2072C48.4045 28.6412 46.2376 27.6851 43.8615 27.6851C42.1233 27.6851 40.5012 28.1997 39.1336 29.0715C37.7086 29.9678 36.5611 31.2712 35.8083 32.8254C35.6112 33.2202 35.159 33.3992 34.7539 33.232C34.3597 33.053 33.9426 32.9208 33.5145 32.8254C33.0973 32.7418 32.6681 32.6938 32.205 32.6938C30.3857 32.6938 28.7515 33.459 27.558 34.6783C26.3761 35.9094 25.6342 37.607 25.6342 39.4718C25.6342 41.3484 26.3761 43.0341 27.558 44.2653C28.7515 45.4845 30.3857 46.2498 32.205 46.2498H40.0266Z" fill="#CCCCCC"/>
</svg>
