<svg width="98" height="98" viewBox="0 0 98 98" fill="none" xmlns="http://www.w3.org/2000/svg">
<path d="M72.9227 7.56475L96.8453 49L72.9226 90.4353L25.0774 90.4353L1.15471 49L25.0774 7.56475L72.9227 7.56475Z" fill="#009EFF" stroke="#009EFF" stroke-width="2"/>
<g clip-path="url(#clip0_540_6151)">
<path d="M56.3454 62.3752C56.0236 62.2924 55.6977 62.4918 55.6183 62.8168L55.0183 65.2454C54.9371 65.5716 55.1336 65.9008 55.4548 65.9817C55.5036 65.9942 55.5524 66.0002 55.6007 66.0002C55.8695 66.0002 56.1136 65.8162 56.1818 65.5406L56.7818 63.1121C56.8624 62.7865 56.6665 62.4567 56.3454 62.3752Z" fill="#EFF9FF"/>
<path d="M49 50.2142C49.0782 50.2142 49.1559 50.1993 49.2294 50.1684L55.8294 47.4047C56.1353 47.2767 56.2806 46.9213 56.1541 46.6118C56.0276 46.3017 55.6753 46.1559 55.37 46.2826L49 48.9499L32.2 41.9154V41.7136C32.2 41.3785 31.9312 41.1064 31.6 41.1064C31.2688 41.107 31 41.3791 31 41.7142V42.3213C31 42.5672 31.1465 42.7886 31.3706 42.882L48.7706 50.1678C48.8441 50.1987 48.9218 50.2142 49 50.2142Z" fill="#EFF9FF"/>
<path d="M56.1377 56.4347C55.9912 56.1341 55.6324 56.0103 55.3341 56.1591C54.1947 56.7293 52.2918 57.3924 49.6 57.4829V52.0364C49.6 51.7013 49.3312 51.4293 49 51.4293C48.6688 51.4293 48.4 51.7013 48.4 52.0364V57.4775C40.95 57.237 38.5459 52.6704 38.2 51.9103V47.7859C38.2 47.4507 37.9312 47.1787 37.6 47.1787C37.2688 47.1787 37 47.4507 37 47.7859V52.0359C37 52.1126 37.0147 52.1894 37.0424 52.2614C37.1471 52.5245 39.7006 58.7144 49 58.7144C52.25 58.7144 54.5277 57.9168 55.8659 57.2478C56.1635 57.0989 56.2853 56.7353 56.1377 56.4347Z" fill="#EFF9FF"/>
<path d="M57.9999 62.9648C57.6681 62.9648 57.3999 63.2369 57.3999 63.572V65.3934C57.3999 65.7285 57.6681 66.0006 57.9999 66.0006C58.3317 66.0006 58.5999 65.7285 58.5999 65.3934V63.572C58.5999 63.2369 58.3317 62.9648 57.9999 62.9648Z" fill="#EFF9FF"/>
<path d="M66.4 41.1073C66.0682 41.1073 65.8 41.3793 65.8 41.7144V41.915L58.6 44.9138V43.8168L66.6294 40.4543C66.8535 40.3609 67 40.1394 67 39.8936C67 39.6478 66.8535 39.4269 66.63 39.3329L49.2294 32.046C49.0824 31.9847 48.9182 31.9847 48.7712 32.046L31.3706 39.3317C31.1459 39.4257 31 39.6466 31 39.8924C31 40.1382 31.1465 40.3597 31.3706 40.4531L48.7706 47.7388C48.8441 47.7698 48.9218 47.7853 49 47.7853C49.0782 47.7853 49.1559 47.7704 49.2294 47.7388L55.5212 45.1043C55.8276 44.9769 55.9729 44.6216 55.8465 44.3115C55.72 44.0019 55.3688 43.8555 55.0629 43.9829L49 46.5216L33.1688 39.893L49 33.2638L64.8312 39.893L57.9424 42.7775L51.3441 40.2847C51.3788 40.1585 51.4 40.0287 51.4 39.893C51.4 38.8716 50.3459 38.0716 49 38.0716C47.6541 38.0716 46.6 38.8716 46.6 39.893C46.6 40.9144 47.6541 41.7144 49 41.7144C49.6006 41.7144 50.1365 41.549 50.5529 41.2817L57.4 43.8686V45.8138V45.8144V58.8263C56.7035 59.0781 56.2 59.7454 56.2 60.5359C56.2 61.54 57.0076 62.3573 58 62.3573C58.9924 62.3573 59.8 61.54 59.8 60.5359C59.8 59.7454 59.2965 59.0781 58.6 58.8263V55.3799C60.3224 54.0644 60.94 52.3121 60.9671 52.2341C60.9888 52.1704 61 52.1031 61 52.0359V47.7859C61 47.4507 60.7318 47.1787 60.4 47.1787C60.0682 47.1787 59.8 47.4507 59.8 47.7859V51.9234C59.6965 52.1805 59.3353 52.9746 58.6 53.7573V46.2269L66.6288 42.8835C66.8541 42.79 67 42.568 67 42.3222V41.715C67 41.3793 66.7318 41.1073 66.4 41.1073ZM49 40.5001C48.2676 40.5001 47.8 40.1406 47.8 39.893C47.8 39.6454 48.2676 39.2859 49 39.2859C49.7329 39.2859 50.2 39.6454 50.2 39.893C50.2 40.1406 49.7324 40.5001 49 40.5001ZM58 61.143C57.6688 61.143 57.4 60.8704 57.4 60.5359C57.4 60.2013 57.6688 59.9287 58 59.9287C58.3312 59.9287 58.6 60.2013 58.6 60.5359C58.6 60.8704 58.3312 61.143 58 61.143Z" fill="#EFF9FF"/>
<path d="M60.3819 62.8174C60.3013 62.4924 59.9748 62.2942 59.6548 62.3758C59.3331 62.4573 59.1378 62.7871 59.2183 63.1121L59.8184 65.5406C59.8866 65.8162 60.1307 66.0002 60.3995 66.0002C60.4478 66.0002 60.4966 65.9948 60.5454 65.9817C60.8672 65.9002 61.0625 65.571 60.9825 65.2454L60.3819 62.8174Z" fill="#EFF9FF"/>
</g>
<defs>
<clipPath id="clip0_540_6151">
<rect width="36" height="34" fill="white" transform="translate(31 32)"/>
</clipPath>
</defs>
</svg>
