<svg width="100" height="98" viewBox="0 0 100 98" fill="none" xmlns="http://www.w3.org/2000/svg">
<path d="M99 49L74.5 91.4353L25.5 91.4353L1.00001 49L25.5 6.56475L74.5 6.56475L99 49Z" stroke="#999999" stroke-width="2" stroke-miterlimit="10" stroke-linecap="round" stroke-linejoin="round"/>
<g clip-path="url(#clip0_1402_38789)">
<path d="M56.2303 37.8952C54.3273 35.9794 51.7973 34.9238 49.1056 34.9238C46.4144 34.9238 43.8838 35.9794 41.9808 37.8952C38.0526 41.8499 38.0526 48.2854 41.9808 52.2401C43.8838 54.1559 46.4144 55.2115 49.1056 55.2115C51.7967 55.2115 54.3267 54.1565 56.2303 52.2401C60.1579 48.2854 60.1579 41.8499 56.2303 37.8952ZM55.3691 51.3745C53.6961 53.059 51.472 53.9867 49.1061 53.9867C46.7403 53.9867 44.5161 53.059 42.8432 51.3745C39.3891 47.8967 39.3891 42.238 42.8432 38.7602C44.5161 37.0757 46.7403 36.148 49.1061 36.148C51.472 36.148 53.6961 37.0757 55.3691 38.7602C58.8226 42.238 58.8226 47.8967 55.3691 51.3745Z" fill="#009EFF"/>
<path d="M54.3449 39.7934C52.9455 38.3841 51.0849 37.6084 49.1061 37.6084C47.1272 37.6084 45.2661 38.3847 43.8666 39.7934C43.629 40.0325 43.629 40.4206 43.8672 40.6596C44.1049 40.8987 44.4908 40.8987 44.7284 40.659C45.8978 39.4816 47.4525 38.8331 49.1061 38.8331C50.7596 38.8331 52.3143 39.4816 53.4837 40.659C53.6025 40.7785 53.7584 40.8389 53.9143 40.8389C54.0702 40.8389 54.2255 40.7791 54.3449 40.6596C54.5825 40.4206 54.5825 40.033 54.3449 39.7934Z" fill="#009EFF"/>
<path d="M45.3729 62.1738H32.6088C32.2724 62.1738 32 62.4484 32 62.7862V66.3871C32 66.7256 32.2724 66.9995 32.6088 66.9995H35.2524C35.5888 66.9995 35.8612 66.7256 35.8612 66.3871C35.8612 66.0493 35.5888 65.7747 35.2524 65.7747H33.2176V63.3986H44.7641V65.7747H39.1941C38.8576 65.7747 38.5853 66.0487 38.5853 66.3871C38.5853 66.725 38.8576 66.9995 39.1941 66.9995H45.3729C45.7094 66.9995 45.9818 66.7256 45.9818 66.3871V62.7862C45.9818 62.4478 45.7094 62.1738 45.3729 62.1738Z" fill="#999999"/>
<path d="M67.8218 59.8386L62.6182 54.6042C62.3806 54.3651 61.9953 54.3651 61.7571 54.6042L61.4606 54.9024L59.5829 53.0143C62.6394 48.8934 63.0624 43.2465 60.4971 38.6824C60.3318 38.3878 59.96 38.2842 59.6676 38.4511C59.3747 38.6173 59.2718 38.9913 59.4371 39.2853C61.8771 43.6264 61.3353 49.0478 58.1835 52.8197C58.1729 52.8321 58.1629 52.8445 58.1524 52.857C58.1118 52.9055 58.07 52.9534 58.0288 53.0007C58.01 53.0226 57.9912 53.0439 57.9718 53.0658C57.9341 53.1084 57.8959 53.1516 57.8571 53.1936C57.8318 53.2214 57.8059 53.2492 57.78 53.277C57.7441 53.3155 57.7088 53.354 57.6724 53.3918C57.6447 53.4208 57.6165 53.4498 57.5882 53.4788C57.5547 53.5131 57.5218 53.5474 57.4882 53.5818C57.3441 53.7267 57.1971 53.8669 57.0471 54.003C57.0394 54.0095 57.0324 54.016 57.0247 54.0225C54.7753 56.0543 51.9347 57.0702 49.0929 57.0696C46.0529 57.0696 43.0124 55.9064 40.6982 53.5812C38.4559 51.3281 37.2212 48.3331 37.2212 45.147C37.2212 41.9608 38.4559 38.9658 40.6982 36.7128C45.3271 32.0617 52.8588 32.0617 57.4882 36.7128C57.7265 36.9518 58.1118 36.9518 58.3494 36.7122C58.5871 36.4731 58.5871 36.085 58.3488 35.846C53.2453 30.718 44.9412 30.718 39.8382 35.846C37.3659 38.3304 36.0041 41.6331 36.0041 45.1464C36.0041 46.8202 36.3135 48.4455 36.9047 49.9578H32.6088C32.2724 49.9584 32 50.2323 32 50.5702V54.1711C32 54.5095 32.2724 54.7834 32.6088 54.7834H40.1871C40.6541 55.2201 41.1453 55.6159 41.6565 55.9709H32.6088C32.2724 55.9715 32 56.2454 32 56.5839V60.1847C32 60.5232 32.2724 60.7971 32.6088 60.7971H54.4553C54.7918 60.7971 55.0641 60.5232 55.0641 60.1847V56.8519C55.7135 56.5182 56.3406 56.1259 56.9382 55.6763L58.8147 57.5637L58.5182 57.8619C58.4041 57.9767 58.34 58.1323 58.34 58.295C58.34 58.4577 58.4041 58.6133 58.5182 58.7281L63.7224 63.9625C63.8365 64.0773 63.9912 64.1418 64.1529 64.1418C64.3147 64.1418 64.4694 64.0773 64.5835 63.9625L67.8224 60.7048C68.0594 60.4652 68.0594 60.0777 67.8218 59.8386ZM33.2176 53.5593V51.1831H37.4576C37.8912 52.0245 38.4171 52.8209 39.0312 53.5593H33.2176ZM53.8465 59.5724H33.2176V57.1962H43.5312C43.6088 57.1962 43.6829 57.1809 43.7518 57.1542C45.4465 57.9133 47.27 58.2938 49.0935 58.2938C50.7076 58.2938 52.3218 57.9956 53.8465 57.401V59.5724ZM57.8824 54.8947C57.9441 54.8379 58.0053 54.7805 58.0665 54.7231C58.0812 54.7095 58.0959 54.6959 58.1106 54.6817C58.1912 54.6047 58.2712 54.5266 58.35 54.4474C58.3812 54.416 58.4112 54.3841 58.4418 54.3527C58.4794 54.3142 58.5171 54.2764 58.5535 54.2373C58.59 54.1989 58.6265 54.1598 58.6624 54.1208C58.6935 54.087 58.7247 54.0539 58.7553 54.0202C58.7718 54.0018 58.7894 53.9835 58.8059 53.9652L60.5994 55.7686L59.6753 56.6981L57.8824 54.8947ZM64.1524 62.6632L59.8094 58.295L60.1041 57.9985C60.1047 57.998 60.1053 57.9974 60.1059 57.9968L61.8906 56.2017C61.8912 56.2011 61.8918 56.2005 61.8924 56.1999L62.1871 55.9035L66.53 60.2717L64.1524 62.6632Z" fill="#999999"/>
</g>
<defs>
<clipPath id="clip0_1402_38789">
<rect width="36" height="35" fill="white" transform="translate(32 32)"/>
</clipPath>
</defs>
</svg>
