<svg width="100" height="98" viewBox="0 0 100 98" fill="none" xmlns="http://www.w3.org/2000/svg">
<path d="M99 49L74.5 91.4353L25.5 91.4353L1.00001 49L25.5 6.56475L74.5 6.56475L99 49Z" stroke="#999999" stroke-width="2" stroke-miterlimit="10" stroke-linecap="round" stroke-linejoin="round"/>
<g clip-path="url(#clip0_1402_38553)">
<path d="M54.9689 43.8639V41.0884C54.9689 40.6721 54.6889 40.3945 54.2689 40.3945H45.8689C45.4489 40.3945 45.1689 40.6721 45.1689 41.0884V43.8639C45.1689 44.2802 45.4489 44.5578 45.8689 44.5578H54.2689C54.6889 44.5578 54.9689 44.2802 54.9689 43.8639ZM53.5689 43.17H46.5689V41.7823H53.5689V43.17Z" fill="#999999"/>
<path d="M42.3689 57.7412C40.8289 57.7412 39.5688 58.9902 39.5688 60.5167C39.5688 62.0433 40.8289 63.2922 42.3689 63.2922C43.9089 63.2922 45.1689 62.0433 45.1689 60.5167C45.1689 58.9902 43.9089 57.7412 42.3689 57.7412ZM42.3689 61.9045C41.5989 61.9045 40.9689 61.28 40.9689 60.5167C40.9689 59.7535 41.5989 59.129 42.3689 59.129C43.1389 59.129 43.7689 59.7535 43.7689 60.5167C43.7689 61.28 43.1389 61.9045 42.3689 61.9045Z" fill="#999999"/>
<path d="M57.7688 57.7412C56.2288 57.7412 54.9688 58.9902 54.9688 60.5167C54.9688 62.0433 56.2288 63.2922 57.7688 63.2922C59.3088 63.2922 60.5688 62.0433 60.5688 60.5167C60.5688 58.9902 59.3088 57.7412 57.7688 57.7412ZM57.7688 61.9045C56.9988 61.9045 56.3688 61.28 56.3688 60.5167C56.3688 59.7535 56.9988 59.129 57.7688 59.129C58.5388 59.129 59.1688 59.7535 59.1688 60.5167C59.1688 61.28 58.5388 61.9045 57.7688 61.9045Z" fill="#999999"/>
<path d="M57.6989 46.2921C57.8389 46.0145 57.7689 45.737 57.5589 45.4594C57.3489 45.1819 56.9989 45.1819 56.7189 45.3206L53.3589 47.3329C52.1689 48.0268 50.9089 48.6513 49.7189 49.2064C49.3689 49.3451 48.9489 49.5533 48.5289 49.7615C47.0589 50.5247 46.2889 52.1206 46.6389 53.7166C46.9189 54.9655 47.9689 56.0063 49.2289 56.2839C49.5089 56.3533 49.7889 56.3533 50.0689 56.3533C51.3989 56.3533 52.5889 55.59 53.2189 54.4104C53.3589 54.0635 53.5689 53.6472 53.7789 53.2308C54.4089 52.0513 54.9689 50.8023 55.6689 49.6227L57.6989 46.2921ZM54.4789 48.8594C53.7089 50.1084 53.0789 51.3574 52.5189 52.6064C52.3789 53.0227 52.1689 53.3696 51.9589 53.7859C51.5389 54.688 50.5589 55.1043 49.5789 54.8961C48.8089 54.7574 48.1789 54.1329 48.0389 53.3696C47.8289 52.3982 48.2489 51.4268 49.1589 51.0104C49.5089 50.8023 49.9289 50.6635 50.3489 50.4553C51.6089 49.8308 52.9389 49.2064 54.1289 48.5125L55.0389 47.9574L54.4789 48.8594Z" fill="#009EFF"/>
<path d="M69.5693 45.182C69.5604 45.135 69.5474 45.0888 69.5289 45.0439C69.5103 44.9983 69.487 44.9568 69.4602 44.9187C68.4116 42.4289 66.8874 40.1813 65.0022 38.286C64.9754 38.2466 64.9445 38.2092 64.9088 38.1738C64.8732 38.1384 64.8354 38.1078 64.7956 38.0813C60.9978 34.369 55.7917 32.0684 50.0688 32.0684C47.3272 32.0684 44.7049 32.5969 42.2982 33.5548C42.2508 33.5636 42.2041 33.5765 42.1588 33.5949C42.1136 33.6133 42.071 33.6364 42.0326 33.6629C39.5208 34.7024 37.2534 36.2133 35.3414 38.082C35.3016 38.1085 35.2638 38.1391 35.2282 38.1745C35.1925 38.2099 35.1616 38.2473 35.1348 38.2867C31.3898 42.0514 29.0688 47.2119 29.0688 52.8847C29.0688 57.6031 30.6088 62.1133 33.6188 65.7908C33.7588 65.999 33.9688 66.0684 34.1788 66.0684H65.9588C66.1688 66.0684 66.3788 65.999 66.5189 65.7908C69.5289 62.1133 71.0689 57.6031 71.0689 52.8847C71.0689 50.1677 70.5356 47.5677 69.5693 45.182ZM65.6789 64.6806H34.5288C33.5825 63.4704 32.796 62.1724 32.1749 60.8085L34.1088 60.0316C34.4588 59.8929 34.5988 59.4765 34.4588 59.1296C34.3188 58.7826 33.8988 58.6439 33.5488 58.7826L31.6534 59.5445C30.9499 57.6466 30.5546 55.6398 30.4819 53.5786H35.3688C35.7888 53.5786 36.0688 53.301 36.0688 52.8847C36.0688 52.4684 35.7888 52.1908 35.3688 52.1908H30.4826C30.5608 50.0031 31.0089 47.9044 31.7659 45.9548L33.6882 46.7786C33.7582 46.848 33.8982 46.848 33.9682 46.848C34.2482 46.848 34.4582 46.7092 34.5982 46.4316C34.7382 46.0847 34.5982 45.6684 34.2482 45.5296L32.3067 44.6969C33.1844 42.8405 34.3497 41.1418 35.7456 39.6582L37.1888 41.0888C37.3288 41.2275 37.4688 41.2969 37.6788 41.2969C37.8888 41.2969 38.0288 41.2275 38.1688 41.0888C38.4488 40.8112 38.4488 40.3949 38.1688 40.1173L36.7256 38.6867C38.2937 37.2371 40.0993 36.0377 42.0779 35.1548L42.8588 37.0643C42.9288 37.3418 43.2088 37.4806 43.4888 37.4806C43.5588 37.4806 43.6288 37.4806 43.7688 37.4112C44.1188 37.2724 44.2588 36.8561 44.1188 36.5092L43.3537 34.6377C45.2423 33.9493 47.2647 33.5439 49.3688 33.4697V38.3133C49.3688 38.7296 49.6488 39.0071 50.0688 39.0071C50.4888 39.0071 50.7689 38.7296 50.7689 38.3133V33.4697C52.9759 33.5473 55.0931 33.9915 57.0599 34.7425L56.2288 36.648C56.0889 36.9949 56.2288 37.4112 56.5788 37.55C56.6488 37.6194 56.7888 37.6194 56.8588 37.6194C57.1388 37.6194 57.4188 37.4112 57.4888 37.2031L58.3288 35.2786C60.2017 36.1486 61.9153 37.3037 63.4121 38.6874L61.9688 40.118C61.6889 40.3956 61.6889 40.8119 61.9688 41.0894C62.1088 41.2282 62.2489 41.2976 62.4589 41.2976C62.5989 41.2976 62.8088 41.2282 62.9488 41.0894L64.3921 39.6588C65.8545 41.2133 67.0651 43.0031 67.9552 44.9643L66.0289 45.7384C65.6788 45.8772 65.5389 46.2935 65.6789 46.6405C65.7489 46.918 66.0289 47.0568 66.3088 47.0568C66.3788 47.0568 66.4488 46.9874 66.5888 46.9874L68.4768 46.2289C69.1713 48.101 69.5803 50.1058 69.6551 52.1915H64.7688C64.3489 52.1915 64.0688 52.469 64.0688 52.8854C64.0688 53.3017 64.3489 53.5792 64.7688 53.5792H69.6558C69.5796 55.7418 69.1493 57.8439 68.391 59.8241L66.4488 58.9915C66.0989 58.8527 65.6788 58.9915 65.5388 59.3384C65.3988 59.6854 65.5389 60.1017 65.8889 60.2405L67.8557 61.084C67.2662 62.3466 66.5388 63.552 65.6789 64.6806Z" fill="#999999"/>
</g>
<defs>
<clipPath id="clip0_1402_38553">
<rect width="42" height="34" fill="white" transform="translate(29 32)"/>
</clipPath>
</defs>
</svg>
