<svg width="100" height="98" viewBox="0 0 100 98" fill="none" xmlns="http://www.w3.org/2000/svg">
<g clip-path="url(#clip0_1402_38097)">
<path d="M42.2476 46.9984H43.748C43.748 43.2754 46.7769 40.2465 50.4999 40.2465V38.7461C45.9498 38.7461 42.2476 42.4483 42.2476 46.9984Z" fill="#009EFF"/>
<path d="M63.5041 59.7527H62.7539V46.9983C62.7539 40.2424 57.2566 34.7451 50.4999 34.7451C43.7432 34.7451 38.2459 40.2424 38.2459 46.9983V59.7519H37.4957C35.9792 59.7519 34.7446 60.9857 34.7446 62.503V68.2549H66.2543V62.503C66.2543 60.9865 65.0205 59.7527 63.5041 59.7527ZM39.7463 46.9983C39.7463 41.0687 44.5702 36.2455 50.4999 36.2455C56.4295 36.2455 61.2535 41.0695 61.2535 46.9983V59.7519H39.7463V46.9983ZM64.7539 63.254H57.2014V64.7544H64.7539V66.7552H36.2459V64.7544H44.298V63.254H36.2459V62.5038C36.2459 61.8144 36.8063 61.2532 37.4965 61.2532H63.5041C64.1935 61.2532 64.7547 61.8136 64.7547 62.5038V63.254H64.7539Z" fill="#999999"/>
<path d="M70.3929 39.1816L69.332 40.2425C74.8894 45.8006 74.8894 54.8432 69.332 60.4014L70.3929 61.4622C76.5355 55.3188 76.5355 45.3243 70.3929 39.1816Z" fill="#009EFF"/>
<path d="M67.4456 42.1279L66.3848 43.1888C70.3176 47.1216 70.3176 53.5204 66.3848 57.4532L67.4456 58.5141C71.9629 53.9968 71.9629 46.646 67.4456 42.1279Z" fill="#009EFF"/>
<path d="M31.6678 40.2423L30.607 39.1807C24.4643 45.3233 24.4643 55.3186 30.607 61.4613L31.6678 60.4004C26.1105 54.843 26.1105 45.7997 31.6678 40.2423Z" fill="#009EFF"/>
<path d="M34.6148 43.1896L33.554 42.1279C29.0367 46.6452 29.0367 53.9968 33.554 58.5141L34.6148 57.4532C30.682 53.5212 30.682 47.1216 34.6148 43.1896Z" fill="#009EFF"/>
<path d="M52.7505 57.5731V54.0198C53.6609 53.3345 54.251 52.2456 54.251 51.0206C54.251 48.9525 52.568 47.2695 50.4999 47.2695C48.4318 47.2695 46.7488 48.9525 46.7488 51.0206C46.7488 52.2448 47.3389 53.3345 48.2493 54.0198V57.5731H46.499V59.0736H54.5016V57.5731H52.7505ZM51.2501 57.5731H49.7497V54.6972C49.9923 54.7468 50.2429 54.7725 50.4999 54.7725C50.7569 54.7725 51.0075 54.746 51.2501 54.6972V57.5731ZM50.4999 53.272C49.2589 53.272 48.2493 52.2624 48.2493 51.0214C48.2493 49.7804 49.2589 48.7708 50.4999 48.7708C51.7409 48.7708 52.7505 49.7804 52.7505 51.0214C52.7505 52.2624 51.7409 53.272 50.4999 53.272Z" fill="#009EFF"/>
<path d="M47.9994 63.2539H46.499V64.7543H47.9994V63.2539Z" fill="#009EFF"/>
<path d="M55.0014 63.2539H53.501V64.7543H55.0014V63.2539Z" fill="#009EFF"/>
<path d="M51.5009 63.2539H50.0005V64.7543H51.5009V63.2539Z" fill="#009EFF"/>
</g>
<path d="M99 49L74.5 91.4353L25.5 91.4353L1.00001 49L25.5 6.56475L74.5 6.56475L99 49Z" stroke="#999999" stroke-width="2" stroke-miterlimit="10" stroke-linecap="round" stroke-linejoin="round"/>
<defs>
<clipPath id="clip0_1402_38097">
<rect width="49" height="33.5098" fill="white" transform="translate(26 34.7451)"/>
</clipPath>
</defs>
</svg>
