<svg width="86" height="86" viewBox="0 0 86 86" fill="none" xmlns="http://www.w3.org/2000/svg">
<path d="M63.8975 6.80438L84.7951 43L63.8975 79.1956L22.1024 79.1956L1.2049 43L22.1025 6.80438L63.8975 6.80438Z" fill="white" stroke="#CCCCCC" stroke-width="2.08696"/>
<g clip-path="url(#clip0_1405_41760)">
<path d="M47.3503 37.8639V35.0884C47.3503 34.6721 47.077 34.3945 46.667 34.3945H38.467C38.057 34.3945 37.7837 34.6721 37.7837 35.0884V37.8639C37.7837 38.2803 38.057 38.5578 38.467 38.5578H46.667C47.077 38.5578 47.3503 38.2803 47.3503 37.8639ZM45.9837 37.17H39.1504V35.7823H45.9837V37.17Z" fill="#CCCCCC"/>
<path d="M35.0502 51.7412C33.5469 51.7412 32.3169 52.9902 32.3169 54.5167C32.3169 56.0433 33.5469 57.2922 35.0502 57.2922C36.5536 57.2922 37.7836 56.0433 37.7836 54.5167C37.7836 52.9902 36.5536 51.7412 35.0502 51.7412ZM35.0502 55.9045C34.2986 55.9045 33.6836 55.28 33.6836 54.5167C33.6836 53.7535 34.2986 53.129 35.0502 53.129C35.8019 53.129 36.4169 53.7535 36.4169 54.5167C36.4169 55.28 35.8019 55.9045 35.0502 55.9045Z" fill="#CCCCCC"/>
<path d="M50.0834 51.7412C48.5801 51.7412 47.3501 52.9902 47.3501 54.5167C47.3501 56.0433 48.5801 57.2922 50.0834 57.2922C51.5868 57.2922 52.8168 56.0433 52.8168 54.5167C52.8168 52.9902 51.5868 51.7412 50.0834 51.7412ZM50.0834 55.9045C49.3318 55.9045 48.7168 55.28 48.7168 54.5167C48.7168 53.7535 49.3318 53.129 50.0834 53.129C50.8351 53.129 51.4501 53.7535 51.4501 54.5167C51.4501 55.28 50.8351 55.9045 50.0834 55.9045Z" fill="#CCCCCC"/>
<path d="M50.0151 40.2921C50.1518 40.0145 50.0834 39.737 49.8784 39.4594C49.6734 39.1819 49.3318 39.1819 49.0584 39.3206L45.7784 41.3329C44.6168 42.0268 43.3868 42.6513 42.2251 43.2064C41.8834 43.3451 41.4734 43.5533 41.0634 43.7615C39.6284 44.5247 38.8768 46.1206 39.2184 47.7166C39.4918 48.9655 40.5168 50.0063 41.7468 50.2839C42.0201 50.3533 42.2934 50.3533 42.5668 50.3533C43.8651 50.3533 45.0268 49.59 45.6418 48.4104C45.7784 48.0635 45.9834 47.6472 46.1884 47.2308C46.8034 46.0513 47.3501 44.8023 48.0334 43.6227L50.0151 40.2921ZM46.8718 42.8594C46.1201 44.1084 45.5051 45.3574 44.9584 46.6064C44.8218 47.0227 44.6168 47.3696 44.4118 47.7859C44.0018 48.688 43.0451 49.1043 42.0884 48.8961C41.3368 48.7574 40.7218 48.1329 40.5851 47.3696C40.3801 46.3982 40.7901 45.4268 41.6784 45.0104C42.0201 44.8023 42.4301 44.6635 42.8401 44.4553C44.0701 43.8308 45.3684 43.2064 46.5301 42.5125L47.4184 41.9574L46.8718 42.8594Z" fill="#CCCCCC"/>
<path d="M61.6031 39.182C61.5944 39.135 61.5817 39.0888 61.5636 39.0439C61.5455 38.9983 61.5227 38.9568 61.4966 38.9187C60.4729 36.4289 58.985 34.1813 57.1447 32.286C57.1185 32.2466 57.0884 32.2092 57.0536 32.1738C57.0187 32.1384 56.9819 32.1078 56.943 32.0813C53.2356 28.369 48.1535 26.0684 42.5669 26.0684C39.8905 26.0684 37.3307 26.5969 34.9812 27.5548C34.935 27.5636 34.8894 27.5765 34.8452 27.5949C34.801 27.6133 34.7595 27.6364 34.722 27.6629C32.27 28.7024 30.0565 30.2133 28.1901 32.082C28.1512 32.1085 28.1144 32.1391 28.0796 32.1745C28.0447 32.2099 28.0146 32.2473 27.9884 32.2867C24.3326 36.0514 22.0669 41.2119 22.0669 46.8847C22.0669 51.6031 23.5702 56.1133 26.5086 59.7908C26.6452 59.999 26.8502 60.0684 27.0552 60.0684H58.0786C58.2836 60.0684 58.4886 59.999 58.6252 59.7908C61.5636 56.1133 63.0669 51.6031 63.0669 46.8847C63.0669 44.1677 62.5464 41.5677 61.6031 39.182ZM57.8052 58.6806H27.3969C26.4731 57.4704 25.7053 56.1724 25.099 54.8085L26.9869 54.0316C27.3286 53.8928 27.4652 53.4765 27.3286 53.1296C27.1919 52.7826 26.7819 52.6439 26.4402 52.7826L24.5899 53.5446C23.9032 51.6466 23.5173 49.6398 23.4463 47.5786H28.2169C28.6269 47.5786 28.9002 47.301 28.9002 46.8847C28.9002 46.4684 28.6269 46.1908 28.2169 46.1908H23.447C23.5233 44.0031 23.9608 41.9044 24.6997 39.9548L26.5762 40.7786C26.6446 40.848 26.7812 40.848 26.8496 40.848C27.1229 40.848 27.3279 40.7092 27.4646 40.4316C27.6012 40.0847 27.4646 39.6684 27.1229 39.5296L25.2276 38.6969C26.0845 36.8405 27.222 35.1418 28.5847 33.6582L29.9936 35.0888C30.1302 35.2275 30.2669 35.2969 30.4719 35.2969C30.6769 35.2969 30.8136 35.2275 30.9502 35.0888C31.2236 34.8112 31.2236 34.3949 30.9502 34.1173L29.5414 32.6867C31.0722 31.2371 32.8348 30.0377 34.7662 29.1548L35.5286 31.0643C35.5969 31.3418 35.8702 31.4806 36.1436 31.4806C36.2119 31.4806 36.2802 31.4806 36.4169 31.4112C36.7586 31.2724 36.8952 30.8561 36.7586 30.5092L36.0116 28.6377C37.8552 27.9493 39.8295 27.5439 41.8836 27.4697V32.3133C41.8836 32.7296 42.1569 33.0071 42.5669 33.0071C42.9769 33.0071 43.2502 32.7296 43.2502 32.3133V27.4697C45.4047 27.5473 47.4715 27.9915 49.3915 28.7425L48.5802 30.648C48.4436 30.9949 48.5802 31.4112 48.9219 31.55C48.9902 31.6194 49.1269 31.6194 49.1952 31.6194C49.4686 31.6194 49.7419 31.4112 49.8102 31.2031L50.6302 29.2786C52.4585 30.1486 54.1313 31.3037 55.5924 32.6874L54.1836 34.118C53.9102 34.3956 53.9102 34.8119 54.1836 35.0894C54.3202 35.2282 54.4569 35.2976 54.6619 35.2976C54.7986 35.2976 55.0036 35.2282 55.1402 35.0894L56.5491 33.6588C57.9767 35.2133 59.1585 37.0031 60.0274 38.9643L58.1469 39.7384C57.8052 39.8772 57.6686 40.2935 57.8052 40.6405C57.8736 40.918 58.1469 41.0568 58.4202 41.0568C58.4886 41.0568 58.5569 40.9874 58.6936 40.9874L60.5366 40.2289C61.2145 42.101 61.6138 44.1058 61.6868 46.1915H56.9169C56.5069 46.1915 56.2336 46.469 56.2336 46.8854C56.2336 47.3017 56.5069 47.5792 56.9169 47.5792H61.6875C61.6131 49.7418 61.1931 51.8439 60.4528 53.8241L58.5569 52.9915C58.2152 52.8527 57.8052 52.9915 57.6686 53.3384C57.5319 53.6854 57.6686 54.1017 58.0102 54.2405L59.9303 55.084C59.3548 56.3466 58.6447 57.552 57.8052 58.6806Z" fill="#CCCCCC"/>
</g>
<defs>
<clipPath id="clip0_1405_41760">
<rect width="41" height="34" fill="white" transform="translate(22 26)"/>
</clipPath>
</defs>
</svg>
