<svg width="86" height="86" viewBox="0 0 86 86" fill="none" xmlns="http://www.w3.org/2000/svg">
<path d="M63.8975 6.80438L84.7951 43L63.8975 79.1956L22.1024 79.1956L1.2049 43L22.1025 6.80438L63.8975 6.80438Z" fill="white" stroke="#CCCCCC" stroke-width="2.08696"/>
<g clip-path="url(#clip0_1405_41772)">
<path d="M41.9999 33.666C36.8535 33.666 32.6665 37.8524 32.6665 42.9994C32.6665 48.1458 36.8529 52.3328 41.9999 52.3328C47.1469 52.3328 51.3333 48.1458 51.3333 42.9994C51.3333 37.853 47.1463 33.666 41.9999 33.666ZM41.9999 50.9992C37.5888 50.9992 34 47.4105 34 42.9994C34 38.5883 37.5888 34.9995 41.9999 34.9995C46.411 34.9995 49.9998 38.5883 49.9998 42.9994C49.9998 47.4105 46.411 50.9992 41.9999 50.9992Z" fill="#CCCCCC"/>
<path d="M58.1459 38.9998H56.8006C56.4571 37.7251 55.9524 36.5051 55.2942 35.3616L56.2448 34.411C56.5948 34.061 56.7877 33.5952 56.7877 33.1005C56.7877 32.6052 56.5948 32.1399 56.2448 31.7893L53.2095 28.7541C52.5095 28.0547 51.289 28.0535 50.5878 28.7541L49.6372 29.7046C48.4931 29.0464 47.2737 28.5417 46.0002 28.1988V26.8535C45.9996 25.8312 45.1685 25 44.1461 25H39.8527C38.8309 25 37.9998 25.8312 37.9998 26.8535V28.1988C36.7257 28.5423 35.5063 29.047 34.3616 29.7052L33.411 28.7546C32.7104 28.0535 31.4893 28.0547 30.7893 28.7546L27.7541 31.7899C27.4041 32.1399 27.2117 32.6058 27.2117 33.101C27.2117 33.5957 27.4047 34.061 27.7541 34.4116L28.7046 35.3622C28.0464 36.5051 27.5411 37.7251 27.1988 38.9998H25.8535C24.8312 38.9998 24 39.8309 24 40.8533V45.1461C24 46.1685 24.8312 46.9996 25.8535 46.9996H27.1988C27.5423 48.2737 28.047 49.4931 28.7052 50.6378L27.7546 51.5884C27.4047 51.9384 27.2117 52.4043 27.2117 52.899C27.2117 53.3942 27.4047 53.8595 27.7546 54.2101L30.7899 57.2454C31.4899 57.9459 32.711 57.9465 33.4116 57.2454L34.3622 56.2948C35.5069 56.953 36.7263 57.4583 38.0004 57.8012V59.1465C38.0004 60.1682 38.8315 61 39.8539 61H44.1467C45.1685 61 46.0002 60.1688 46.0002 59.1465V57.8012C47.2743 57.4577 48.4937 56.953 49.6384 56.2948L50.589 57.2454C51.2901 57.9465 52.5101 57.9453 53.2107 57.2454L56.2459 54.2101C56.5959 53.8601 56.7889 53.3942 56.7889 52.899C56.7889 52.4043 56.5959 51.939 56.2459 51.5884L55.2954 50.6378C55.9536 49.4931 56.4589 48.2737 56.8018 46.9996H58.1471C59.1688 46.9996 60.0006 46.1685 60.0006 45.1461V40.8527C59.9994 39.8309 59.1682 38.9998 58.1459 38.9998ZM58.6659 45.1461C58.6659 45.4326 58.4324 45.6661 58.1459 45.6661H55.7512L55.6312 46.1814C55.2842 47.6726 54.6989 49.0878 53.8895 50.3884L53.6095 50.8378L55.3024 52.5307C55.506 52.7343 55.506 53.0642 55.3024 53.2666L52.2672 56.3018C52.0642 56.5048 51.7348 56.506 51.5313 56.3018L49.8384 54.6089L49.389 54.8889C48.089 55.6983 46.6737 56.2842 45.182 56.6307L44.6667 56.7507V59.1453C44.6667 59.4318 44.4332 59.6653 44.1467 59.6653H39.8533C39.5668 59.6653 39.3333 59.4318 39.3333 59.1453V56.7507L38.818 56.6307C37.3268 56.2836 35.9116 55.6983 34.611 54.8889L34.1616 54.6089L32.4687 56.3018C32.2646 56.506 31.9346 56.5048 31.7328 56.3018L28.6976 53.2666C28.494 53.0631 28.494 52.7331 28.6976 52.5307L30.3905 50.8378L30.1105 50.3884C29.3011 49.0884 28.7152 47.6732 28.3688 46.1814L28.2488 45.6661H25.8535C25.567 45.6661 25.3335 45.4326 25.3335 45.1461V40.8527C25.3335 40.5662 25.567 40.3327 25.8535 40.3327H28.2482L28.3682 39.8174C28.7152 38.3257 29.3011 36.9104 30.1099 35.6104L30.3899 35.161L28.697 33.4681C28.4935 33.2646 28.4935 32.9346 28.697 32.7322L31.7322 29.697C31.9352 29.494 32.2652 29.4929 32.4681 29.697L34.161 31.3899L34.6104 31.1099C35.9104 30.3005 37.3257 29.7146 38.8174 29.3682L39.3327 29.2482V26.8535C39.3327 26.567 39.5662 26.3335 39.8527 26.3335H44.145C44.432 26.3335 44.6655 26.567 44.6655 26.8535V29.2482L45.1808 29.3682C46.672 29.7158 48.0873 30.3011 49.3878 31.1099L49.8372 31.3899L51.5301 29.697C51.7343 29.4929 52.0642 29.494 52.266 29.697L55.3013 32.7322C55.5048 32.9358 55.5048 33.2657 55.3013 33.4681L53.6083 35.161L53.8883 35.6104C54.6977 36.9098 55.2836 38.3251 55.6301 39.8174L55.7501 40.3327H58.1447C58.4312 40.3327 58.6647 40.5662 58.6647 40.8527V45.1461H58.6659Z" fill="#CCCCCC"/>
<path d="M41.9999 36.333C38.324 36.333 35.3335 39.3235 35.3335 42.9994C35.3335 46.6752 38.324 49.6657 41.9999 49.6657C45.6757 49.6657 48.6662 46.6752 48.6662 42.9994C48.6662 39.3235 45.6757 36.333 41.9999 36.333ZM41.9999 48.3328C39.0593 48.3328 36.6664 45.9405 36.6664 42.9994C36.6664 40.0588 39.0593 37.6659 41.9999 37.6659C44.9404 37.6659 47.3333 40.0582 47.3333 42.9994C47.3333 45.9399 44.9404 48.3328 41.9999 48.3328Z" fill="#CCCCCC"/>
</g>
<defs>
<clipPath id="clip0_1405_41772">
<rect width="36" height="36" fill="white" transform="translate(24 25)"/>
</clipPath>
</defs>
</svg>
