<svg width="100" height="98" viewBox="0 0 100 98" fill="none" xmlns="http://www.w3.org/2000/svg">
<path d="M99 49L74.5 91.4353L25.5 91.4353L1.00001 49L25.5 6.56475L74.5 6.56475L99 49Z" stroke="#999999" stroke-width="2" stroke-miterlimit="10" stroke-linecap="round" stroke-linejoin="round"/>
<g clip-path="url(#clip0_1402_38710)">
<path d="M47.8929 52.8455C48.3568 52.8455 48.7481 53.2269 48.7481 53.7071C48.7481 54.1867 48.3575 54.5809 47.8929 54.5809H39.6478C37.2657 54.5809 35.1041 53.6089 33.5408 52.0218C31.9648 50.4463 31 48.2686 31 45.8688C31 43.4689 31.9648 41.2906 33.5402 39.7164C35.1041 38.1409 37.2657 37.1567 39.6478 37.1567C40.222 37.1567 40.7962 37.2176 41.3576 37.3409C41.6756 37.4019 41.9803 37.4764 42.2734 37.5752C43.1892 35.9875 44.4969 34.6586 46.048 33.6866C47.7578 32.6157 49.7735 32 51.9351 32C54.8908 32 57.591 33.1691 59.5939 35.0637C61.4019 36.774 62.635 39.0634 63.0142 41.6475C63.1971 41.6225 63.3927 41.6225 63.5763 41.6225C65.3472 41.6225 66.9602 42.348 68.1194 43.5171C69.292 44.6862 70 46.3105 70 48.0953C70 49.8916 69.2913 51.5044 68.1194 52.685C66.9589 53.8541 65.3466 54.5796 63.5763 54.5796H53.1205C52.6444 54.5796 52.2653 54.1861 52.2653 53.7058C52.2653 53.2256 52.6438 52.8442 53.1205 52.8442H63.5763C64.8706 52.8442 66.0559 52.3146 66.8984 51.4536C67.7536 50.5921 68.2787 49.4108 68.2787 48.094C68.2787 46.7901 67.753 45.5959 66.8984 44.7472C66.0559 43.8856 64.8706 43.3566 63.5763 43.3566C63.3806 43.3566 63.1856 43.3688 63.0142 43.3938C62.8313 43.406 62.6477 43.4426 62.4884 43.4798C62.4279 43.492 62.3661 43.5049 62.3055 43.5171C61.8288 43.5421 61.4261 43.173 61.3898 42.6927C61.2432 40.1947 60.1318 37.9425 58.4213 36.331C56.7236 34.7189 54.4396 33.7347 51.9351 33.7347C50.103 33.7347 48.3932 34.2644 46.9516 35.1619C45.4496 36.0845 44.24 37.4263 43.4466 39.0262C43.2389 39.4326 42.7622 39.6168 42.3352 39.4448C41.9197 39.2605 41.48 39.1244 41.0288 39.0262C40.5891 38.9402 40.1366 38.8907 39.6485 38.8907C37.7309 38.8907 36.0083 39.6785 34.7504 40.9336C33.5045 42.201 32.7226 43.9485 32.7226 45.8681C32.7226 47.7999 33.5045 49.5353 34.7504 50.8026C36.0083 52.0578 37.7309 52.8455 39.6485 52.8455H47.8929Z" fill="#999999"/>
<path d="M58.7758 59.0355C59.1059 58.6914 59.1059 58.1367 58.7758 57.8055C58.4342 57.4613 57.8836 57.4613 57.5541 57.8055L51.3617 64.0323V43.4558C51.3617 42.9762 50.9832 42.582 50.5065 42.582C50.0304 42.582 49.6391 42.9756 49.6391 43.4558V64.0311L43.4588 57.8042C43.1173 57.46 42.5794 57.46 42.2378 57.8042C41.9077 58.1367 41.9077 58.6901 42.2378 59.0349L49.8966 66.7506C50.2267 67.0832 50.776 67.0832 51.1176 66.7506L58.7758 59.0355Z" fill="#009EFF"/>
</g>
<defs>
<clipPath id="clip0_1402_38710">
<rect width="39" height="35" fill="white" transform="translate(31 32)"/>
</clipPath>
</defs>
</svg>
