<svg width="86" height="86" viewBox="0 0 86 86" fill="none" xmlns="http://www.w3.org/2000/svg">
<path d="M63.8975 6.80438L84.7951 43L63.8975 79.1956L22.1024 79.1956L1.2049 43L22.1025 6.80438L63.8975 6.80438Z" fill="white" stroke="#CCCCCC" stroke-width="2.08696"/>
<g clip-path="url(#clip0_1405_41744)">
<path d="M49.2303 31.7263C47.3273 29.8652 44.7973 28.8398 42.1056 28.8398C39.4144 28.8398 36.8838 29.8652 34.9808 31.7263C31.0526 35.568 31.0526 41.8197 34.9808 45.6614C36.8838 47.5225 39.4144 48.5478 42.1056 48.5478C44.7967 48.5478 47.3267 47.523 49.2303 45.6614C53.1579 41.8197 53.1579 35.568 49.2303 31.7263ZM48.3691 44.8205C46.6961 46.4568 44.472 47.3581 42.1061 47.3581C39.7403 47.3581 37.5161 46.4568 35.8432 44.8205C32.3891 41.4421 32.3891 35.945 35.8432 32.5666C37.5161 30.9303 39.7403 30.029 42.1061 30.029C44.472 30.029 46.6961 30.9303 48.3691 32.5666C51.8226 35.945 51.8226 41.4421 48.3691 44.8205Z" fill="#CCCCCC"/>
<path d="M47.3444 33.5708C45.945 32.2018 44.0844 31.4482 42.1056 31.4482C40.1267 31.4482 38.2656 32.2023 36.8661 33.5708C36.6285 33.803 36.6285 34.1801 36.8667 34.4123C37.1044 34.6445 37.4903 34.6445 37.7279 34.4117C38.8973 33.2679 40.452 32.638 42.1056 32.638C43.7591 32.638 45.3138 33.2679 46.4832 34.4117C46.602 34.5278 46.7579 34.5864 46.9138 34.5864C47.0697 34.5864 47.225 34.5284 47.3444 34.4123C47.582 34.1801 47.582 33.8036 47.3444 33.5708Z" fill="#CCCCCC"/>
<path d="M38.3729 55.3115H25.6088C25.2724 55.3115 25 55.5782 25 55.9064V59.4044C25 59.7332 25.2724 59.9993 25.6088 59.9993H28.2524C28.5888 59.9993 28.8612 59.7332 28.8612 59.4044C28.8612 59.0762 28.5888 58.8095 28.2524 58.8095H26.2176V56.5013H37.7641V58.8095H32.1941C31.8576 58.8095 31.5853 59.0757 31.5853 59.4044C31.5853 59.7326 31.8576 59.9993 32.1941 59.9993H38.3729C38.7094 59.9993 38.9818 59.7332 38.9818 59.4044V55.9064C38.9818 55.5776 38.7094 55.3115 38.3729 55.3115Z" fill="#CCCCCC"/>
<path d="M60.8218 53.0432L55.6182 47.9583C55.3806 47.7261 54.9953 47.7261 54.7571 47.9583L54.4606 48.248L52.5829 46.4139C55.6394 42.4107 56.0624 36.9252 53.4971 32.4915C53.3318 32.2053 52.96 32.1047 52.6676 32.2668C52.3747 32.4283 52.2718 32.7915 52.4371 33.0772C54.8771 37.2942 54.3353 42.5607 51.1835 46.2248C51.1729 46.2369 51.1629 46.249 51.1524 46.2611C51.1118 46.3082 51.07 46.3547 51.0288 46.4007C51.01 46.422 50.9912 46.4427 50.9718 46.4639C50.9341 46.5053 50.8959 46.5473 50.8571 46.5881C50.8318 46.6151 50.8059 46.6421 50.78 46.6691C50.7441 46.7065 50.7088 46.7439 50.6724 46.7806C50.6447 46.8088 50.6165 46.837 50.5882 46.8651C50.5547 46.8985 50.5218 46.9318 50.4882 46.9651C50.3441 47.106 50.1971 47.2422 50.0471 47.3744C50.0394 47.3807 50.0324 47.387 50.0247 47.3933C47.7753 49.3671 44.9347 50.3539 42.0929 50.3534C39.0529 50.3534 36.0124 49.2234 33.6982 46.9646C31.4559 44.7759 30.2212 41.8664 30.2212 38.7713C30.2212 35.6762 31.4559 32.7668 33.6982 30.5781C38.3271 26.0599 45.8588 26.0599 50.4882 30.5781C50.7265 30.8103 51.1118 30.8103 51.3494 30.5775C51.5871 30.3453 51.5871 29.9683 51.3488 29.7361C46.2453 24.7546 37.9412 24.7546 32.8382 29.7361C30.3659 32.1495 29.0041 35.3578 29.0041 38.7708C29.0041 40.3968 29.3135 41.9756 29.9047 43.4447H25.6088C25.2724 43.4453 25 43.7114 25 44.0396V47.5376C25 47.8664 25.2724 48.1325 25.6088 48.1325H33.1871C33.6541 48.5566 34.1453 48.9412 34.6565 49.286H25.6088C25.2724 49.2866 25 49.5527 25 49.8815V53.3795C25 53.7082 25.2724 53.9743 25.6088 53.9743H47.4553C47.7918 53.9743 48.0641 53.7082 48.0641 53.3795V50.1418C48.7135 49.8177 49.3406 49.4366 49.9382 48.9998L51.8147 50.8333L51.5182 51.123C51.4041 51.2345 51.34 51.3856 51.34 51.5437C51.34 51.7017 51.4041 51.8529 51.5182 51.9644L56.7224 57.0493C56.8365 57.1608 56.9912 57.2235 57.1529 57.2235C57.3147 57.2235 57.4694 57.1608 57.5835 57.0493L60.8224 53.8847C61.0594 53.6519 61.0594 53.2754 60.8218 53.0432ZM26.2176 46.9433V44.6351H30.4576C30.8912 45.4524 31.4171 46.226 32.0312 46.9433H26.2176ZM46.8465 52.7846H26.2176V50.4764H36.5312C36.6088 50.4764 36.6829 50.4614 36.7518 50.4355C38.4465 51.173 40.27 51.5425 42.0935 51.5425C43.7076 51.5425 45.3218 51.2529 46.8465 50.6752V52.7846ZM50.8824 48.2405C50.9441 48.1854 51.0053 48.1296 51.0665 48.0738C51.0812 48.0606 51.0959 48.0474 51.1106 48.0336C51.1912 47.9589 51.2712 47.883 51.35 47.806C51.3812 47.7755 51.4112 47.7445 51.4418 47.714C51.4794 47.6767 51.5171 47.6399 51.5535 47.602C51.59 47.5646 51.6265 47.5267 51.6624 47.4887C51.6935 47.456 51.7247 47.4238 51.7553 47.391C51.7718 47.3732 51.7894 47.3554 51.8059 47.3376L53.5994 49.0895L52.6753 49.9924L50.8824 48.2405ZM57.1524 55.7871L52.8094 51.5437L53.1041 51.2557C53.1047 51.2552 53.1053 51.2546 53.1059 51.254L54.8906 49.5102C54.8912 49.5096 54.8918 49.509 54.8924 49.5085L55.1871 49.2205L59.53 53.464L57.1524 55.7871Z" fill="#CCCCCC"/>
</g>
<defs>
<clipPath id="clip0_1405_41744">
<rect width="36" height="34" fill="white" transform="translate(25 26)"/>
</clipPath>
</defs>
</svg>
