<svg width="98" height="98" viewBox="0 0 98 98" fill="none" xmlns="http://www.w3.org/2000/svg">
<path d="M72.9227 7.56475L96.8453 49L72.9226 90.4353L25.0774 90.4353L1.15471 49L25.0774 7.56475L72.9227 7.56475Z" fill="white" stroke="#CCCCCC" stroke-width="2"/>
<g clip-path="url(#clip0_540_6099)">
<path d="M57.7757 59.0358C58.1058 58.6917 58.1058 58.137 57.7757 57.8057C57.4341 57.4616 56.8835 57.4616 56.554 57.8057L50.3616 64.0326V43.4561C50.3616 42.9765 49.9831 42.5823 49.5064 42.5823C49.0303 42.5823 48.639 42.9759 48.639 43.4561V64.0313L42.4587 57.8044C42.1172 57.4603 41.5793 57.4603 41.2377 57.8044C40.9076 58.137 40.9076 58.6904 41.2377 59.0352L48.8965 66.7509C49.2266 67.0835 49.7759 67.0835 50.1175 66.7509L57.7757 59.0358ZM46.8929 52.8455C47.3568 52.8455 47.7481 53.2269 47.7481 53.7071C47.7481 54.1867 47.3575 54.5809 46.8929 54.5809H38.6478C36.2657 54.5809 34.1041 53.6089 32.5408 52.0218C30.9648 50.4463 30 48.2686 30 45.8688C30 43.4689 30.9648 41.2906 32.5402 39.7164C34.1041 38.1409 36.2657 37.1567 38.6478 37.1567C39.222 37.1567 39.7962 37.2176 40.3576 37.3409C40.6756 37.4019 40.9803 37.4764 41.2734 37.5752C42.1892 35.9875 43.4969 34.6586 45.048 33.6866C46.7578 32.6157 48.7735 32 50.9351 32C53.8908 32 56.591 33.1691 58.5939 35.0637C60.4019 36.774 61.635 39.0634 62.0142 41.6475C62.1971 41.6225 62.3927 41.6225 62.5763 41.6225C64.3472 41.6225 65.9602 42.348 67.1194 43.5171C68.292 44.6862 69 46.3105 69 48.0953C69 49.8916 68.2913 51.5044 67.1194 52.685C65.9589 53.8541 64.3466 54.5796 62.5763 54.5796H52.1205C51.6444 54.5796 51.2653 54.1861 51.2653 53.7058C51.2653 53.2256 51.6438 52.8442 52.1205 52.8442H62.5763C63.8706 52.8442 65.0559 52.3146 65.8984 51.4536C66.7536 50.5921 67.2787 49.4108 67.2787 48.094C67.2787 46.7901 66.753 45.5959 65.8984 44.7472C65.0559 43.8856 63.8706 43.3566 62.5763 43.3566C62.3806 43.3566 62.1856 43.3688 62.0142 43.3938C61.8313 43.406 61.6477 43.4426 61.4884 43.4798C61.4279 43.492 61.3661 43.5049 61.3055 43.5171C60.8288 43.5421 60.4261 43.173 60.3898 42.6927C60.2432 40.1947 59.1318 37.9425 57.4213 36.331C55.7236 34.7189 53.4396 33.7347 50.9351 33.7347C49.103 33.7347 47.3932 34.2644 45.9516 35.1619C44.4496 36.0845 43.24 37.4263 42.4466 39.0262C42.2389 39.4326 41.7622 39.6168 41.3352 39.4448C40.9197 39.2605 40.48 39.1244 40.0288 39.0262C39.5891 38.9402 39.1366 38.8907 38.6485 38.8907C36.7309 38.8907 35.0083 39.6785 33.7504 40.9336C32.5045 42.201 31.7226 43.9485 31.7226 45.8681C31.7226 47.7999 32.5045 49.5353 33.7504 50.8026C35.0083 52.0578 36.7309 52.8455 38.6485 52.8455H46.8929Z" fill="#CCCCCC"/>
</g>
<defs>
<clipPath id="clip0_540_6099">
<rect width="39" height="35" fill="white" transform="translate(30 32)"/>
</clipPath>
</defs>
</svg>
