<svg width="98" height="98" viewBox="0 0 98 98" fill="none" xmlns="http://www.w3.org/2000/svg">
<path d="M72.9227 7.56475L96.8453 49L72.9226 90.4353L25.0774 90.4353L1.15471 49L25.0774 7.56475L72.9227 7.56475Z" fill="white" stroke="#CCCCCC" stroke-width="2"/>
<g clip-path="url(#clip0_540_6104)">
<path d="M53.9687 43.8639V41.0884C53.9687 40.6721 53.6887 40.3945 53.2687 40.3945H44.8687C44.4487 40.3945 44.1687 40.6721 44.1687 41.0884V43.8639C44.1687 44.2802 44.4487 44.5578 44.8687 44.5578H53.2687C53.6887 44.5578 53.9687 44.2802 53.9687 43.8639ZM52.5687 43.17H45.5687V41.7823H52.5687V43.17Z" fill="#CCCCCC"/>
<path d="M41.3686 57.7412C39.8286 57.7412 38.5686 58.9902 38.5686 60.5167C38.5686 62.0433 39.8286 63.2922 41.3686 63.2922C42.9086 63.2922 44.1686 62.0433 44.1686 60.5167C44.1686 58.9902 42.9086 57.7412 41.3686 57.7412ZM41.3686 61.9045C40.5986 61.9045 39.9686 61.28 39.9686 60.5167C39.9686 59.7535 40.5986 59.129 41.3686 59.129C42.1386 59.129 42.7686 59.7535 42.7686 60.5167C42.7686 61.28 42.1386 61.9045 41.3686 61.9045Z" fill="#CCCCCC"/>
<path d="M56.7685 57.7412C55.2285 57.7412 53.9685 58.9902 53.9685 60.5167C53.9685 62.0433 55.2285 63.2922 56.7685 63.2922C58.3085 63.2922 59.5685 62.0433 59.5685 60.5167C59.5685 58.9902 58.3085 57.7412 56.7685 57.7412ZM56.7685 61.9045C55.9985 61.9045 55.3685 61.28 55.3685 60.5167C55.3685 59.7535 55.9985 59.129 56.7685 59.129C57.5385 59.129 58.1685 59.7535 58.1685 60.5167C58.1685 61.28 57.5385 61.9045 56.7685 61.9045Z" fill="#CCCCCC"/>
<path d="M56.6987 46.2921C56.8387 46.0145 56.7687 45.737 56.5587 45.4594C56.3487 45.1819 55.9987 45.1819 55.7187 45.3206L52.3586 47.3329C51.1686 48.0268 49.9086 48.6513 48.7186 49.2064C48.3686 49.3451 47.9486 49.5533 47.5286 49.7615C46.0586 50.5247 45.2886 52.1206 45.6386 53.7166C45.9186 54.9655 46.9686 56.0063 48.2286 56.2839C48.5086 56.3533 48.7886 56.3533 49.0686 56.3533C50.3986 56.3533 51.5886 55.59 52.2186 54.4104C52.3586 54.0635 52.5686 53.6472 52.7786 53.2308C53.4087 52.0513 53.9687 50.8023 54.6687 49.6227L56.6987 46.2921ZM53.4787 48.8594C52.7087 50.1084 52.0786 51.3574 51.5186 52.6064C51.3786 53.0227 51.1686 53.3696 50.9586 53.7859C50.5386 54.688 49.5586 55.1043 48.5786 54.8961C47.8086 54.7574 47.1786 54.1329 47.0386 53.3696C46.8286 52.3982 47.2486 51.4268 48.1586 51.0104C48.5086 50.8023 48.9286 50.6635 49.3486 50.4553C50.6086 49.8308 51.9386 49.2064 53.1287 48.5125L54.0387 47.9574L53.4787 48.8594Z" fill="#CCCCCC"/>
<path d="M68.5691 45.182C68.5602 45.135 68.5471 45.0888 68.5286 45.0439C68.5101 44.9983 68.4867 44.9568 68.46 44.9187C67.4114 42.4289 65.8871 40.1813 64.0019 38.286C63.9752 38.2466 63.9443 38.2092 63.9086 38.1738C63.8729 38.1384 63.8352 38.1078 63.7954 38.0813C59.9975 34.369 54.7914 32.0684 49.0686 32.0684C46.3269 32.0684 43.7047 32.5969 41.2979 33.5548C41.2506 33.5636 41.2039 33.5765 41.1586 33.5949C41.1133 33.6133 41.0708 33.6364 41.0323 33.6629C38.5206 34.7024 36.2531 36.2133 34.3412 38.082C34.3013 38.1085 34.2636 38.1391 34.2279 38.1745C34.1922 38.2099 34.1613 38.2473 34.1346 38.2867C30.3896 42.0514 28.0686 47.2119 28.0686 52.8847C28.0686 57.6031 29.6086 62.1133 32.6186 65.7908C32.7586 65.999 32.9686 66.0684 33.1786 66.0684H64.9586C65.1686 66.0684 65.3786 65.999 65.5186 65.7908C68.5286 62.1133 70.0686 57.6031 70.0686 52.8847C70.0686 50.1677 69.5354 47.5677 68.5691 45.182ZM64.6786 64.6806H33.5286C32.5822 63.4704 31.7958 62.1724 31.1747 60.8085L33.1086 60.0316C33.4586 59.8929 33.5986 59.4765 33.4586 59.1296C33.3186 58.7826 32.8986 58.6439 32.5486 58.7826L30.6531 59.5445C29.9497 57.6466 29.5544 55.6398 29.4816 53.5786H34.3686C34.7886 53.5786 35.0686 53.301 35.0686 52.8847C35.0686 52.4684 34.7886 52.1908 34.3686 52.1908H29.4823C29.5606 50.0031 30.0087 47.9044 30.7657 45.9548L32.6879 46.7786C32.7579 46.848 32.8979 46.848 32.9679 46.848C33.2479 46.848 33.4579 46.7092 33.5979 46.4316C33.7379 46.0847 33.5979 45.6684 33.2479 45.5296L31.3064 44.6969C32.1842 42.8405 33.3495 41.1418 34.7454 39.6582L36.1886 41.0888C36.3286 41.2275 36.4686 41.2969 36.6786 41.2969C36.8886 41.2969 37.0286 41.2275 37.1686 41.0888C37.4486 40.8112 37.4486 40.3949 37.1686 40.1173L35.7254 38.6867C37.2935 37.2371 39.0991 36.0377 41.0776 35.1548L41.8586 37.0643C41.9286 37.3418 42.2086 37.4806 42.4886 37.4806C42.5586 37.4806 42.6286 37.4806 42.7686 37.4112C43.1186 37.2724 43.2586 36.8561 43.1186 36.5092L42.3534 34.6377C44.242 33.9493 46.2645 33.5439 48.3686 33.4697V38.3133C48.3686 38.7296 48.6486 39.0071 49.0686 39.0071C49.4886 39.0071 49.7686 38.7296 49.7686 38.3133V33.4697C51.9757 33.5473 54.0928 33.9915 56.0597 34.7425L55.2286 36.648C55.0886 36.9949 55.2286 37.4112 55.5786 37.55C55.6486 37.6194 55.7886 37.6194 55.8586 37.6194C56.1386 37.6194 56.4186 37.4112 56.4886 37.2031L57.3286 35.2786C59.2014 36.1486 60.9151 37.3037 62.4118 38.6874L60.9686 40.118C60.6886 40.3956 60.6886 40.8119 60.9686 41.0894C61.1086 41.2282 61.2486 41.2976 61.4586 41.2976C61.5986 41.2976 61.8086 41.2282 61.9486 41.0894L63.3918 39.6588C64.8543 41.2133 66.0649 43.0031 66.955 44.9643L65.0286 45.7384C64.6786 45.8772 64.5386 46.2935 64.6786 46.6405C64.7486 46.918 65.0286 47.0568 65.3086 47.0568C65.3786 47.0568 65.4486 46.9874 65.5886 46.9874L67.4765 46.2289C68.1711 48.101 68.5801 50.1058 68.6549 52.1915H63.7686C63.3486 52.1915 63.0686 52.469 63.0686 52.8854C63.0686 53.3017 63.3486 53.5792 63.7686 53.5792H68.6556C68.5794 55.7418 68.1491 57.8439 67.3908 59.8241L65.4486 58.9915C65.0986 58.8527 64.6786 58.9915 64.5386 59.3384C64.3986 59.6854 64.5386 60.1017 64.8886 60.2405L66.8555 61.084C66.266 62.3466 65.5385 63.552 64.6786 64.6806Z" fill="#CCCCCC"/>
</g>
<defs>
<clipPath id="clip0_540_6104">
<rect width="42" height="34" fill="white" transform="translate(28 32)"/>
</clipPath>
</defs>
</svg>
