<svg width="100" height="98" viewBox="0 0 100 98" fill="none" xmlns="http://www.w3.org/2000/svg">
<path d="M99 49L74.5 91.4353L25.5 91.4353L1.00001 49L25.5 6.56475L74.5 6.56475L99 49Z" stroke="#999999" stroke-width="2" stroke-miterlimit="10" stroke-linecap="round" stroke-linejoin="round"/>
<g clip-path="url(#clip0_1402_38998)">
<path d="M57.3454 62.3752C57.0236 62.2924 56.6977 62.4918 56.6183 62.8168L56.0183 65.2454C55.9371 65.5716 56.1336 65.9008 56.4548 65.9817C56.5036 65.9942 56.5524 66.0002 56.6007 66.0002C56.8695 66.0002 57.1136 65.8162 57.1818 65.5406L57.7818 63.1121C57.8624 62.7865 57.6665 62.4567 57.3454 62.3752Z" fill="#999999"/>
<path d="M50 50.2142C50.0782 50.2142 50.1559 50.1993 50.2294 50.1684L56.8294 47.4047C57.1353 47.2767 57.2806 46.9213 57.1541 46.6118C57.0276 46.3017 56.6753 46.1559 56.37 46.2826L50 48.9499L33.2 41.9154V41.7136C33.2 41.3785 32.9312 41.1064 32.6 41.1064C32.2688 41.107 32 41.3791 32 41.7142V42.3213C32 42.5672 32.1465 42.7886 32.3706 42.882L49.7706 50.1678C49.8441 50.1987 49.9218 50.2142 50 50.2142Z" fill="#999999"/>
<path d="M57.1377 56.4347C56.9912 56.1341 56.6324 56.0103 56.3341 56.1591C55.1947 56.7293 53.2918 57.3924 50.6 57.4829V52.0364C50.6 51.7013 50.3312 51.4293 50 51.4293C49.6688 51.4293 49.4 51.7013 49.4 52.0364V57.4775C41.95 57.237 39.5459 52.6704 39.2 51.9103V47.7859C39.2 47.4507 38.9312 47.1787 38.6 47.1787C38.2688 47.1787 38 47.4507 38 47.7859V52.0359C38 52.1126 38.0147 52.1894 38.0424 52.2614C38.1471 52.5245 40.7006 58.7144 50 58.7144C53.25 58.7144 55.5277 57.9168 56.8659 57.2478C57.1635 57.0989 57.2853 56.7353 57.1377 56.4347Z" fill="#999999"/>
<path d="M58.9999 62.9648C58.6681 62.9648 58.3999 63.2369 58.3999 63.572V65.3934C58.3999 65.7285 58.6681 66.0006 58.9999 66.0006C59.3317 66.0006 59.5999 65.7285 59.5999 65.3934V63.572C59.5999 63.2369 59.3317 62.9648 58.9999 62.9648Z" fill="#999999"/>
<path d="M67.4 41.1073C67.0682 41.1073 66.8 41.3793 66.8 41.7144V41.915L59.6 44.9138V43.8168L67.6294 40.4543C67.8535 40.3609 68 40.1394 68 39.8936C68 39.6478 67.8535 39.4269 67.63 39.3329L50.2294 32.046C50.0824 31.9847 49.9182 31.9847 49.7712 32.046L32.3706 39.3317C32.1459 39.4257 32 39.6466 32 39.8924C32 40.1382 32.1465 40.3597 32.3706 40.4531L49.7706 47.7388C49.8441 47.7698 49.9218 47.7853 50 47.7853C50.0782 47.7853 50.1559 47.7704 50.2294 47.7388L56.5212 45.1043C56.8276 44.9769 56.9729 44.6216 56.8465 44.3115C56.72 44.0019 56.3688 43.8555 56.0629 43.9829L50 46.5216L34.1688 39.893L50 33.2638L65.8312 39.893L58.9424 42.7775L52.3441 40.2847C52.3788 40.1585 52.4 40.0287 52.4 39.893C52.4 38.8716 51.3459 38.0716 50 38.0716C48.6541 38.0716 47.6 38.8716 47.6 39.893C47.6 40.9144 48.6541 41.7144 50 41.7144C50.6006 41.7144 51.1365 41.549 51.5529 41.2817L58.4 43.8686V45.8138V45.8144V58.8263C57.7035 59.0781 57.2 59.7454 57.2 60.5359C57.2 61.54 58.0076 62.3573 59 62.3573C59.9924 62.3573 60.8 61.54 60.8 60.5359C60.8 59.7454 60.2965 59.0781 59.6 58.8263V55.3799C61.3224 54.0644 61.94 52.3121 61.9671 52.2341C61.9888 52.1704 62 52.1031 62 52.0359V47.7859C62 47.4507 61.7318 47.1787 61.4 47.1787C61.0682 47.1787 60.8 47.4507 60.8 47.7859V51.9234C60.6965 52.1805 60.3353 52.9746 59.6 53.7573V46.2269L67.6288 42.8835C67.8541 42.79 68 42.568 68 42.3222V41.715C68 41.3793 67.7318 41.1073 67.4 41.1073ZM50 40.5001C49.2676 40.5001 48.8 40.1406 48.8 39.893C48.8 39.6454 49.2676 39.2859 50 39.2859C50.7329 39.2859 51.2 39.6454 51.2 39.893C51.2 40.1406 50.7324 40.5001 50 40.5001ZM59 61.143C58.6688 61.143 58.4 60.8704 58.4 60.5359C58.4 60.2013 58.6688 59.9287 59 59.9287C59.3312 59.9287 59.6 60.2013 59.6 60.5359C59.6 60.8704 59.3312 61.143 59 61.143Z" fill="#009EFF"/>
<path d="M61.3819 62.8174C61.3013 62.4924 60.9748 62.2942 60.6548 62.3758C60.3331 62.4573 60.1378 62.7871 60.2183 63.1121L60.8184 65.5406C60.8866 65.8162 61.1307 66.0002 61.3995 66.0002C61.4478 66.0002 61.4966 65.9948 61.5454 65.9817C61.8672 65.9002 62.0625 65.571 61.9825 65.2454L61.3819 62.8174Z" fill="#999999"/>
</g>
<defs>
<clipPath id="clip0_1402_38998">
<rect width="36" height="34" fill="white" transform="translate(32 32)"/>
</clipPath>
</defs>
</svg>
