<svg width="98" height="98" viewBox="0 0 98 98" fill="none" xmlns="http://www.w3.org/2000/svg">
<path d="M72.9227 7.56475L96.8453 49L72.9226 90.4353L25.0774 90.4353L1.15471 49L25.0774 7.56475L72.9227 7.56475Z" fill="white" stroke="#CCCCCC" stroke-width="2"/>
<g clip-path="url(#clip0_540_6075)">
<path d="M48.9996 39.666C43.8533 39.666 39.6663 43.8524 39.6663 48.9994C39.6663 54.1458 43.8527 58.3328 48.9996 58.3328C54.1466 58.3328 58.333 54.1458 58.333 48.9994C58.333 43.853 54.146 39.666 48.9996 39.666ZM48.9996 56.9992C44.5885 56.9992 40.9998 53.4105 40.9998 48.9994C40.9998 44.5883 44.5885 40.9995 48.9996 40.9995C53.4107 40.9995 56.9995 44.5883 56.9995 48.9994C56.9995 53.4105 53.4107 56.9992 48.9996 56.9992Z" fill="#CCCCCC"/>
<path d="M65.1459 44.9998H63.8006C63.4571 43.7251 62.9524 42.5051 62.2942 41.3616L63.2448 40.411C63.5948 40.061 63.7877 39.5952 63.7877 39.1005C63.7877 38.6052 63.5948 38.1399 63.2448 37.7893L60.2095 34.7541C59.5095 34.0547 58.289 34.0535 57.5878 34.7541L56.6372 35.7046C55.4931 35.0464 54.2737 34.5417 53.0002 34.1988V32.8535C52.9996 31.8312 52.1685 31 51.1461 31H46.8527C45.8309 31 44.9998 31.8312 44.9998 32.8535V34.1988C43.7257 34.5423 42.5063 35.047 41.3616 35.7052L40.411 34.7546C39.7104 34.0535 38.4893 34.0547 37.7893 34.7546L34.7541 37.7899C34.4041 38.1399 34.2117 38.6058 34.2117 39.101C34.2117 39.5957 34.4046 40.061 34.7541 40.4116L35.7046 41.3622C35.0464 42.5051 34.5411 43.7251 34.1988 44.9998H32.8535C31.8312 44.9998 31 45.8309 31 46.8533V51.1461C31 52.1685 31.8312 52.9996 32.8535 52.9996H34.1988C34.5423 54.2737 35.047 55.4931 35.7052 56.6378L34.7546 57.5884C34.4047 57.9384 34.2117 58.4043 34.2117 58.899C34.2117 59.3942 34.4047 59.8595 34.7546 60.2101L37.7899 63.2454C38.4899 63.9459 39.711 63.9465 40.4116 63.2454L41.3622 62.2948C42.5069 62.953 43.7263 63.4583 45.0004 63.8012V65.1465C45.0004 66.1682 45.8315 67 46.8539 67H51.1467C52.1685 67 53.0002 66.1688 53.0002 65.1465V63.8012C54.2743 63.4577 55.4937 62.953 56.6384 62.2948L57.589 63.2454C58.2901 63.9465 59.5101 63.9453 60.2107 63.2454L63.2459 60.2101C63.5959 59.8601 63.7889 59.3942 63.7889 58.899C63.7889 58.4043 63.5959 57.939 63.2459 57.5884L62.2954 56.6378C62.9536 55.4931 63.4589 54.2737 63.8018 52.9996H65.1471C66.1688 52.9996 67.0006 52.1685 67.0006 51.1461V46.8527C66.9994 45.8309 66.1682 44.9998 65.1459 44.9998ZM65.6659 51.1461C65.6659 51.4326 65.4324 51.6661 65.1459 51.6661H62.7512L62.6312 52.1814C62.2842 53.6726 61.6989 55.0878 60.8895 56.3884L60.6095 56.8378L62.3024 58.5307C62.506 58.7343 62.506 59.0642 62.3024 59.2666L59.2672 62.3018C59.0642 62.5048 58.7348 62.506 58.5313 62.3018L56.8384 60.6089L56.389 60.8889C55.089 61.6983 53.6737 62.2842 52.182 62.6307L51.6667 62.7507V65.1453C51.6667 65.4318 51.4332 65.6653 51.1467 65.6653H46.8533C46.5668 65.6653 46.3333 65.4318 46.3333 65.1453V62.7507L45.818 62.6307C44.3268 62.2836 42.9116 61.6983 41.611 60.8889L41.1616 60.6089L39.4687 62.3018C39.2646 62.506 38.9346 62.5048 38.7328 62.3018L35.6976 59.2666C35.494 59.0631 35.494 58.7331 35.6976 58.5307L37.3905 56.8378L37.1105 56.3884C36.3011 55.0884 35.7152 53.6732 35.3688 52.1814L35.2488 51.6661H32.8535C32.567 51.6661 32.3335 51.4326 32.3335 51.1461V46.8527C32.3335 46.5662 32.567 46.3327 32.8535 46.3327H35.2482L35.3682 45.8174C35.7152 44.3257 36.3011 42.9104 37.1099 41.6104L37.3899 41.161L35.697 39.4681C35.4935 39.2646 35.4935 38.9346 35.697 38.7322L38.7322 35.697C38.9352 35.494 39.2652 35.4929 39.4681 35.697L41.161 37.3899L41.6104 37.1099C42.9104 36.3005 44.3257 35.7146 45.8174 35.3682L46.3327 35.2482V32.8535C46.3327 32.567 46.5662 32.3335 46.8527 32.3335H51.145C51.432 32.3335 51.6655 32.567 51.6655 32.8535V35.2482L52.1808 35.3682C53.672 35.7158 55.0873 36.3011 56.3878 37.1099L56.8372 37.3899L58.5301 35.697C58.7343 35.4929 59.0642 35.494 59.266 35.697L62.3013 38.7322C62.5048 38.9358 62.5048 39.2657 62.3013 39.4681L60.6083 41.161L60.8883 41.6104C61.6977 42.9098 62.2836 44.3251 62.6301 45.8174L62.7501 46.3327H65.1447C65.4312 46.3327 65.6647 46.5662 65.6647 46.8527V51.1461H65.6659Z" fill="#CCCCCC"/>
<path d="M48.9996 42.333C45.3238 42.333 42.3333 45.3235 42.3333 48.9994C42.3333 52.6752 45.3238 55.6657 48.9996 55.6657C52.6754 55.6657 55.666 52.6752 55.666 48.9994C55.666 45.3235 52.6754 42.333 48.9996 42.333ZM48.9996 54.3328C46.0591 54.3328 43.6662 51.9405 43.6662 48.9994C43.6662 46.0588 46.0591 43.6659 48.9996 43.6659C51.9402 43.6659 54.3331 46.0582 54.3331 48.9994C54.3331 51.9399 51.9402 54.3328 48.9996 54.3328Z" fill="#CCCCCC"/>
</g>
<defs>
<clipPath id="clip0_540_6075">
<rect width="36" height="36" fill="white" transform="translate(31 31)"/>
</clipPath>
</defs>
</svg>
