<svg width="98" height="98" viewBox="0 0 98 98" fill="none" xmlns="http://www.w3.org/2000/svg">
<path d="M72.9227 7.56475L96.8453 49L72.9226 90.4353L25.0774 90.4353L1.15471 49L25.0774 7.56475L72.9227 7.56475Z" fill="white" stroke="#CCCCCC" stroke-width="2"/>
<g clip-path="url(#clip0_540_6116)">
<path d="M41.2478 46.9984H42.7482C42.7482 43.2754 45.7771 40.2465 49.5001 40.2465V38.7461C44.95 38.7461 41.2478 42.4483 41.2478 46.9984Z" fill="#CCCCCC"/>
<path d="M62.5041 59.7527H61.7539V46.9983C61.7539 40.2424 56.2566 34.7451 49.4999 34.7451C42.7432 34.7451 37.2459 40.2424 37.2459 46.9983V59.7519H36.4957C34.9792 59.7519 33.7446 60.9857 33.7446 62.503V68.2549H65.2543V62.503C65.2543 60.9865 64.0205 59.7527 62.5041 59.7527ZM38.7463 46.9983C38.7463 41.0687 43.5702 36.2455 49.4999 36.2455C55.4295 36.2455 60.2535 41.0695 60.2535 46.9983V59.7519H38.7463V46.9983ZM63.7539 63.254H56.2014V64.7544H63.7539V66.7552H35.2459V64.7544H43.298V63.254H35.2459V62.5038C35.2459 61.8144 35.8063 61.2532 36.4965 61.2532H62.5041C63.1935 61.2532 63.7547 61.8136 63.7547 62.5038V63.254H63.7539Z" fill="#CCCCCC"/>
<path d="M69.3931 39.1816L68.3323 40.2425C73.8896 45.8006 73.8896 54.8432 68.3323 60.4014L69.3931 61.4622C75.5358 55.3188 75.5358 45.3243 69.3931 39.1816Z" fill="#CCCCCC"/>
<path d="M66.4459 42.1279L65.385 43.1888C69.3178 47.1216 69.3178 53.5204 65.385 57.4532L66.4459 58.5141C70.9632 53.9968 70.9632 46.646 66.4459 42.1279Z" fill="#CCCCCC"/>
<path d="M30.6678 40.2423L29.607 39.1807C23.4643 45.3233 23.4643 55.3186 29.607 61.4613L30.6678 60.4004C25.1105 54.843 25.1105 45.7997 30.6678 40.2423Z" fill="#CCCCCC"/>
<path d="M33.6151 43.1896L32.5542 42.1279C28.0369 46.6452 28.0369 53.9968 32.5542 58.5141L33.6151 57.4532C29.6823 53.5212 29.6823 47.1216 33.6151 43.1896Z" fill="#CCCCCC"/>
<path d="M51.7505 57.5731V54.0198C52.6609 53.3345 53.251 52.2456 53.251 51.0206C53.251 48.9525 51.568 47.2695 49.4999 47.2695C47.4318 47.2695 45.7488 48.9525 45.7488 51.0206C45.7488 52.2448 46.3389 53.3345 47.2493 54.0198V57.5731H45.499V59.0736H53.5016V57.5731H51.7505ZM50.2501 57.5731H48.7497V54.6972C48.9923 54.7468 49.2429 54.7725 49.4999 54.7725C49.7569 54.7725 50.0075 54.746 50.2501 54.6972V57.5731ZM49.4999 53.272C48.2589 53.272 47.2493 52.2624 47.2493 51.0214C47.2493 49.7804 48.2589 48.7708 49.4999 48.7708C50.7409 48.7708 51.7505 49.7804 51.7505 51.0214C51.7505 52.2624 50.7409 53.272 49.4999 53.272Z" fill="#CCCCCC"/>
<path d="M46.9994 63.2539H45.499V64.7543H46.9994V63.2539Z" fill="#CCCCCC"/>
<path d="M54.0014 63.2539H52.501V64.7543H54.0014V63.2539Z" fill="#CCCCCC"/>
<path d="M50.5009 63.2539H49.0005V64.7543H50.5009V63.2539Z" fill="#CCCCCC"/>
</g>
<defs>
<clipPath id="clip0_540_6116">
<rect width="49" height="33.5098" fill="white" transform="translate(25 34.7451)"/>
</clipPath>
</defs>
</svg>
