<svg width="20" height="30" viewBox="0 0 20 30" fill="none" xmlns="http://www.w3.org/2000/svg">
<path d="M19.5 7.99998C19.5 7.14996 18.85 6.49998 18 6.49998H16.5V1.5C16.5 0.64998 15.85 0 15 0C14.1499 0 13.5 0.64998 13.5 1.5V6.49998H6.5V1.5C6.5 0.64998 5.85002 0 5 0C4.14998 0 3.5 0.64998 3.5 1.5V6.49998H2C1.14998 6.49998 0.5 7.14996 0.5 7.99998C0.5 8.67328 0.907988 9.22066 1.50002 9.41936V18.5C1.50002 21 3.5 23 6.00002 23H7.50002V25C7.50002 25.3 7.7 25.4999 8 25.4999H8.49998V27.4999C8.49998 27.7999 8.69996 27.9999 8.99996 27.9999H9.49994V29.4999C9.49994 29.7999 9.69992 29.9999 9.99992 29.9999C10.2999 29.9999 10.4999 29.7999 10.4999 29.4999V27.9999H10.9999C11.2999 27.9999 11.4999 27.7999 11.4999 27.4999V25.5H11.9998C12.2998 25.5 12.4998 25.3 12.4998 25V23H13.9998C16.4998 23 18.4998 21.0001 18.4998 18.5V9.41941C19.092 9.22072 19.5 8.67328 19.5 7.99998ZM14.5 1.5C14.5 1.2 14.7 1.00002 15 1.00002C15.3 1.00002 15.4999 1.2 15.4999 1.5V6.49998H14.5V1.5ZM4.49996 1.5C4.49996 1.24998 4.69994 1.00002 4.99994 1.00002C5.29994 1.00002 5.49992 1.2 5.49992 1.5V6.49998H4.4999V1.5H4.49996ZM10.5 27H9.49994V25.5H10.5V27ZM11.5 24.5H11H9.00002H8.49998V23H11.5V24.5ZM17.5 18.5C17.5 20.45 15.95 22 14 22H12H8H6.00002C4.05002 22 2.50004 20.45 2.50004 18.5V9.49998H17.5V18.5H17.5ZM18 8.50002H2C1.7 8.50002 1.50002 8.30004 1.50002 8.00004C1.50002 7.70004 1.7 7.50006 2 7.50006H3.99998H5.99996H13.9999H16H18C18.3 7.50006 18.4999 7.70004 18.4999 8.00004C18.4999 8.30004 18.3 8.50002 18 8.50002Z" fill="#323941"/>
<path d="M8.00046 16H10.8005L8.15046 18.65C7.95048 18.85 7.95048 19.15 8.15046 19.3501C8.25048 19.4501 8.35044 19.5001 8.50044 19.5001C8.65044 19.5001 8.75046 19.4501 8.85042 19.3501L12.3504 15.8501C12.5004 15.7001 12.5504 15.5001 12.4504 15.3C12.4004 15.1001 12.2004 15 12.0004 15H9.2004L11.8504 12.35C12.0504 12.15 12.0504 11.85 11.8504 11.65C11.6504 11.45 11.3504 11.45 11.1504 11.65L7.65042 15.15C7.50042 15.3 7.50042 15.5 7.5504 15.7C7.60038 15.9 7.80042 16 8.00046 16Z" fill="#323941"/>
</svg>
