<svg width="32" height="33" viewBox="0 0 32 33" fill="none" xmlns="http://www.w3.org/2000/svg">
<g clip-path="url(#clip0_1034_14575)">
<path d="M10.6667 31.1668C12.1394 31.1668 13.3333 29.9729 13.3333 28.5002C13.3333 27.0274 12.1394 25.8335 10.6667 25.8335C9.19391 25.8335 8 27.0274 8 28.5002C8 29.9729 9.19391 31.1668 10.6667 31.1668Z" stroke="#009EFF" stroke-width="2" stroke-linecap="round" stroke-linejoin="round"/>
<path d="M26.6667 31.1668C28.1394 31.1668 29.3333 29.9729 29.3333 28.5002C29.3333 27.0274 28.1394 25.8335 26.6667 25.8335C25.1939 25.8335 24 27.0274 24 28.5002C24 29.9729 25.1939 31.1668 26.6667 31.1668Z" stroke="#009EFF" stroke-width="2" stroke-linecap="round" stroke-linejoin="round"/>
<path d="M7.55967 8.50016H30.6663L28.4263 19.6868C28.3044 20.3007 27.9705 20.8521 27.4829 21.2446C26.9954 21.637 26.3854 21.8455 25.7597 21.8335H11.6663C11.0153 21.839 10.3846 21.6061 9.89342 21.1788C9.40219 20.7514 9.0843 20.1591 8.99967 19.5135L6.97301 4.1535C6.88896 3.51248 6.57491 2.92382 6.08928 2.49705C5.60364 2.07029 4.97951 1.83447 4.33301 1.8335H1.33301" stroke="#009EFF" stroke-width="2.23" stroke-linecap="round" stroke-linejoin="round"/>
</g>
<defs>
<clipPath id="clip0_1034_14575">
<rect width="32" height="32" fill="white" transform="translate(0 0.5)"/>
</clipPath>
</defs>
</svg>
