<svg width="21" height="39" viewBox="0 0 21 39" fill="none" xmlns="http://www.w3.org/2000/svg">
<path d="M18.2812 0.730469H2.4375C1.79129 0.731315 1.1718 0.988394 0.714862 1.44533C0.257926 1.90227 0.000846479 2.52176 0 3.16797V36.0742C0.000846479 36.7204 0.257926 37.3399 0.714862 37.7969C1.1718 38.2538 1.79129 38.5109 2.4375 38.5117H18.2812C18.9275 38.5109 19.547 38.2538 20.0039 37.7969C20.4608 37.3399 20.7179 36.7204 20.7188 36.0742V3.16797C20.7179 2.52176 20.4608 1.90227 20.0039 1.44533C19.547 0.988394 18.9275 0.731315 18.2812 0.730469V0.730469ZM13.2113 1.94922L12.8685 3.16797H7.78857L7.48389 1.94922H13.2113ZM19.5 36.0742C19.4996 36.3973 19.371 36.7071 19.1426 36.9355C18.9141 37.164 18.6044 37.2925 18.2812 37.293H2.4375C2.1144 37.2925 1.80465 37.164 1.57618 36.9355C1.34771 36.7071 1.21917 36.3973 1.21875 36.0742V3.16797C1.21917 2.84487 1.34771 2.53512 1.57618 2.30665C1.80465 2.07818 2.1144 1.94964 2.4375 1.94922H6.22705L6.72141 3.92512C6.75436 4.05695 6.83043 4.17398 6.93753 4.25762C7.04463 4.34126 7.17661 4.3867 7.3125 4.38672H13.3301C13.4629 4.38672 13.592 4.34334 13.6979 4.26317C13.8038 4.18301 13.8806 4.07046 13.9166 3.94264L14.4772 1.94922H18.2812C18.6044 1.94964 18.9141 2.07818 19.1426 2.30665C19.371 2.53512 19.4996 2.84487 19.5 3.16797V36.0742Z" fill="#009EFF"/>
<path d="M7.3125 34.8555H3.04688C2.88526 34.8555 2.73026 34.9197 2.61598 35.034C2.5017 35.1482 2.4375 35.3032 2.4375 35.4648C2.4375 35.6265 2.5017 35.7815 2.61598 35.8957C2.73026 36.01 2.88526 36.0742 3.04688 36.0742H7.3125C7.47412 36.0742 7.62911 36.01 7.74339 35.8957C7.85767 35.7815 7.92188 35.6265 7.92188 35.4648C7.92188 35.3032 7.85767 35.1482 7.74339 35.034C7.62911 34.9197 7.47412 34.8555 7.3125 34.8555Z" fill="#009EFF"/>
<path d="M9.75 34.8555H9.14062C8.97901 34.8555 8.82401 34.9197 8.70973 35.034C8.59545 35.1482 8.53125 35.3032 8.53125 35.4648C8.53125 35.6265 8.59545 35.7815 8.70973 35.8957C8.82401 36.01 8.97901 36.0742 9.14062 36.0742H9.75C9.91162 36.0742 10.0666 36.01 10.1809 35.8957C10.2952 35.7815 10.3594 35.6265 10.3594 35.4648C10.3594 35.3032 10.2952 35.1482 10.1809 35.034C10.0666 34.9197 9.91162 34.8555 9.75 34.8555Z" fill="#009EFF"/>
</svg>
