<svg width="26" height="17" viewBox="0 0 26 17" fill="none" xmlns="http://www.w3.org/2000/svg">
<g clip-path="url(#clip0_1001_6989)">
<path d="M2.78797 4.80936H1.7334V8.50373H2.78797C3.34549 8.50373 3.74851 8.36939 4.10451 8.08056C4.52768 7.73127 4.77621 7.20734 4.77621 6.66327C4.7695 5.56839 3.95674 4.80936 2.78797 4.80936V4.80936ZM3.63432 7.59022C3.40594 7.79173 3.11711 7.88577 2.64691 7.88577H2.45212V5.44077H2.64691C3.11039 5.44077 3.39251 5.52137 3.63432 5.73631C3.88285 5.95798 4.03062 6.30055 4.03062 6.65655C4.03062 7.01255 3.88285 7.36855 3.63432 7.59022ZM5.10535 4.80936H5.82407V8.50373H5.10535V4.80936V4.80936ZM7.58393 6.22666C7.15404 6.06545 7.02642 5.95798 7.02642 5.76318C7.02642 5.52809 7.2548 5.35344 7.56378 5.35344C7.77873 5.35344 7.96009 5.44077 8.14145 5.65571L8.5176 5.16537C8.20862 4.89669 7.83918 4.75563 7.42944 4.75563C6.77789 4.75563 6.27411 5.21239 6.27411 5.81692C6.27411 6.32741 6.50921 6.58938 7.18091 6.83119C7.46303 6.93195 7.60409 6.99912 7.67797 7.03942C7.81903 7.13346 7.89292 7.2678 7.89292 7.42229C7.89292 7.72456 7.65782 7.94622 7.3354 7.94622C6.99284 7.94622 6.71744 7.77158 6.54951 7.45588L6.08604 7.90592C6.41517 8.39626 6.81819 8.6112 7.36227 8.6112C8.10786 8.6112 8.63851 8.11414 8.63851 7.39542C8.65194 6.79761 8.40341 6.52892 7.58393 6.22666V6.22666ZM8.8736 6.66327C8.8736 7.75142 9.72667 8.59105 10.8215 8.59105C11.1305 8.59105 11.3992 8.5306 11.7216 8.37611V7.52976C11.4328 7.81859 11.1775 7.93278 10.8551 7.93278C10.1297 7.93278 9.61248 7.40886 9.61248 6.65655C9.61248 5.94454 10.1431 5.38703 10.8215 5.38703C11.1641 5.38703 11.4261 5.50794 11.7216 5.80349V4.95714C11.4059 4.79593 11.144 4.72876 10.835 4.72876C9.75354 4.72876 8.8736 5.58854 8.8736 6.66327V6.66327ZM17.4445 7.29467L16.4571 4.80936H15.6712L17.2363 8.59777H17.6259L19.2178 4.80936H18.4387L17.4445 7.29467V7.29467ZM19.547 8.50373H21.5889V7.87905H20.2657V6.88493H21.5419V6.26024H20.2657V5.44077H21.5889V4.80936H19.547V8.50373V8.50373ZM24.4437 5.90424C24.4437 5.21239 23.9668 4.81608 23.1339 4.81608H22.0659V8.51045H22.7846V7.02599H22.8786L23.8727 8.51045H24.7594L23.5973 6.9521C24.1414 6.83791 24.4437 6.46847 24.4437 5.90424V5.90424ZM22.9928 6.51549H22.7846V5.39375H23.0062C23.4563 5.39375 23.6981 5.58182 23.6981 5.94454C23.6981 6.31398 23.4563 6.51549 22.9928 6.51549V6.51549Z" fill="#231F20"/>
<path d="M13.9317 8.63809C14.4538 8.63809 14.9546 8.43066 15.3238 8.06145C15.693 7.69223 15.9004 7.19147 15.9004 6.66932C15.9004 6.14718 15.693 5.64641 15.3238 5.2772C14.9546 4.90798 14.4538 4.70056 13.9317 4.70056C13.4095 4.70056 12.9087 4.90798 12.5395 5.2772C12.1703 5.64641 11.9629 6.14718 11.9629 6.66932C11.9629 7.19147 12.1703 7.69223 12.5395 8.06145C12.9087 8.43066 13.4095 8.63809 13.9317 8.63809Z" fill="url(#paint0_linear_1001_6989)"/>
<path opacity="0.65" d="M13.9317 8.63809C14.4538 8.63809 14.9546 8.43066 15.3238 8.06145C15.693 7.69223 15.9004 7.19147 15.9004 6.66932C15.9004 6.14718 15.693 5.64641 15.3238 5.2772C14.9546 4.90798 14.4538 4.70056 13.9317 4.70056C13.4095 4.70056 12.9087 4.90798 12.5395 5.2772C12.1703 5.64641 11.9629 6.14718 11.9629 6.66932C11.9629 7.19147 12.1703 7.69223 12.5395 8.06145C12.9087 8.43066 13.4095 8.63809 13.9317 8.63809Z" fill="url(#paint1_linear_1001_6989)"/>
<path d="M24.9535 5.04159C24.9535 4.97456 24.9066 4.94104 24.8328 4.94104H24.7256V5.2628H24.806V5.13544L24.8999 5.2628H24.9937L24.8865 5.12873C24.9267 5.12203 24.9535 5.08851 24.9535 5.04159V5.04159ZM24.8194 5.08851H24.806V5.00137H24.8194C24.8597 5.00137 24.8798 5.01478 24.8798 5.04159C24.8798 5.07511 24.8597 5.08851 24.8194 5.08851Z" fill="#231F20"/>
<path d="M24.8466 4.82019C24.6921 4.82019 24.5645 4.94781 24.5645 5.10231C24.5645 5.2568 24.6921 5.38442 24.8466 5.38442C25.0011 5.38442 25.1287 5.2568 25.1287 5.10231C25.1287 4.94781 25.0011 4.82019 24.8466 4.82019ZM24.8466 5.3374C24.7257 5.3374 24.6182 5.23665 24.6182 5.10231C24.6182 4.97468 24.7189 4.86721 24.8466 4.86721C24.9675 4.86721 25.0682 4.97468 25.0682 5.10231C25.0682 5.22993 24.9675 5.3374 24.8466 5.3374Z" fill="#231F20"/>
<path d="M25.2428 8.72144C25.2428 8.72144 18.5862 13.3488 6.41895 15.4492H23.8987C24.2531 15.4492 24.5932 15.3092 24.8448 15.0595C25.0965 14.8099 25.2393 14.471 25.2421 14.1166L25.2582 12.088L25.2428 8.72211V8.72144Z" fill="#F48120"/>
</g>
<defs>
<linearGradient id="paint0_linear_1001_6989" x1="14.9372" y1="8.24514" x2="13.577" y2="6.11517" gradientUnits="userSpaceOnUse">
<stop stop-color="#F89F20"/>
<stop offset="0.25" stop-color="#F79A20"/>
<stop offset="0.533" stop-color="#F68D20"/>
<stop offset="0.62" stop-color="#F58720"/>
<stop offset="0.723" stop-color="#F48120"/>
<stop offset="1" stop-color="#F37521"/>
</linearGradient>
<linearGradient id="paint1_linear_1001_6989" x1="14.7229" y1="8.21626" x2="12.7347" y2="4.32978" gradientUnits="userSpaceOnUse">
<stop stop-color="#F58720"/>
<stop offset="0.359" stop-color="#E16F27"/>
<stop offset="0.703" stop-color="#D4602C"/>
<stop offset="0.982" stop-color="#D05B2E"/>
</linearGradient>
<clipPath id="clip0_1001_6989">
<rect width="25.5247" height="16.1209" fill="white" transform="translate(0.389648)"/>
</clipPath>
</defs>
</svg>
