<svg width="25" height="25" viewBox="0 0 25 25" fill="none" xmlns="http://www.w3.org/2000/svg">
<path d="M24.1445 6.76548L17.7754 0.147363C17.6848 0.0532227 17.5597 0 17.429 0H7.93633C6.87397 0 6.00967 0.863965 6.00967 1.92588V8.65386H2.16265C1.36782 8.65386 0.721191 9.30029 0.721191 10.0949V17.309C0.721191 18.1036 1.36782 18.75 2.16265 18.75H6.00967V23.0775C6.00967 24.1375 6.87397 25 7.93633 25H22.3522C23.4146 25 24.2789 24.138 24.2789 23.0786V7.09888C24.2789 6.97456 24.2307 6.85508 24.1445 6.76548ZM17.5481 1.2979L22.7766 6.73076H17.5481V1.2979ZM2.16265 17.7885C1.898 17.7885 1.68276 17.5734 1.68276 17.309V10.0949C1.68276 9.83052 1.89805 9.61538 2.16265 9.61538H15.1452C15.4098 9.61538 15.625 9.83052 15.625 10.0949V17.309C15.625 17.5734 15.4098 17.7885 15.1452 17.7885H2.16265ZM23.3173 23.0786C23.3173 23.6079 22.8844 24.0385 22.3522 24.0385H7.93633C7.40415 24.0385 6.97119 23.6074 6.97119 23.0775V18.75H15.1452C15.94 18.75 16.5866 18.1036 16.5866 17.309V10.0949C16.5866 9.30029 15.94 8.65386 15.1452 8.65386H6.97119V1.92588C6.97119 1.39409 7.40415 0.961523 7.93633 0.961523H16.5866V7.21152C16.5866 7.47705 16.8019 7.69228 17.0673 7.69228H23.3173V23.0786Z" fill="white"/>
<path d="M6.46899 12.2021C6.30937 11.9945 6.11123 11.8598 5.87461 11.7978C5.7206 11.7565 5.39009 11.7358 4.88301 11.7358H3.54492V15.8656H4.37876V14.3078H4.92246C5.29995 14.3078 5.58823 14.288 5.7873 14.2486C5.93379 14.2166 6.07793 14.1514 6.21972 14.0528C6.36152 13.9542 6.47842 13.8185 6.57046 13.6457C6.6625 13.473 6.70849 13.2598 6.70849 13.0063C6.70845 12.6776 6.62861 12.4096 6.46899 12.2021ZM5.75488 13.3387C5.69199 13.4308 5.60513 13.4983 5.49429 13.5416C5.38345 13.5848 5.16377 13.6063 4.83511 13.6063H4.37876V12.4345H4.78159C5.08208 12.4345 5.28208 12.4438 5.38159 12.4626C5.5168 12.4871 5.62856 12.5481 5.7168 12.6458C5.80508 12.7434 5.84922 12.8674 5.84922 13.0176C5.84927 13.1396 5.81777 13.2467 5.75488 13.3387Z" fill="white"/>
<path d="M10.717 12.8641C10.6269 12.6002 10.4954 12.3772 10.3227 12.195C10.1499 12.0128 9.94233 11.8861 9.7001 11.8147C9.51982 11.7621 9.25781 11.7358 8.91416 11.7358H7.39014V15.8656H8.95923C9.26724 15.8656 9.51323 15.8365 9.69727 15.7782C9.94331 15.6994 10.1386 15.5895 10.2832 15.4486C10.4748 15.2627 10.6222 15.0195 10.7255 14.719C10.81 14.473 10.8522 14.18 10.8522 13.8401C10.8522 13.4533 10.8072 13.1279 10.717 12.8641ZM9.90571 14.5599C9.84937 14.7449 9.77661 14.8778 9.6874 14.9585C9.59819 15.0393 9.48599 15.0965 9.35078 15.1303C9.24751 15.1566 9.07939 15.1698 8.84653 15.1698H8.22398V12.4345H8.59863C8.93853 12.4345 9.16675 12.4476 9.28315 12.4739C9.43901 12.5077 9.56768 12.5725 9.66909 12.6683C9.77051 12.7641 9.84937 12.8974 9.90571 13.0683C9.96206 13.2392 9.99023 13.4843 9.99023 13.8036C9.99023 14.1228 9.96206 14.3749 9.90571 14.5599Z" fill="white"/>
<path d="M14.396 12.4345V11.7358H11.5649V15.8656H12.3988V14.1106H14.1228V13.412H12.3988V12.4345H14.396Z" fill="white"/>
</svg>
