<svg width="201" height="193" viewBox="0 0 201 193" fill="none" xmlns="http://www.w3.org/2000/svg">
<path d="M171.221 57.8871L171.221 55.6933L169.321 54.5965L102.479 16.0051L100.579 14.9082L98.6791 16.0051L31.8369 54.5964L29.937 55.6933L29.937 57.887L29.9371 135.07L29.9371 137.263L31.8369 138.36L98.6791 176.952L100.579 178.049L102.479 176.952L169.321 138.36L171.221 137.264L171.221 135.07L171.221 57.8871Z" fill="#009EFF" stroke="#F7F7F7" stroke-width="7.59931"/>
<path d="M116.547 58.2344H84.4531C83.1441 58.2361 81.8893 58.7568 80.9637 59.6824C80.0381 60.608 79.5173 61.8629 79.5156 63.1719V129.828C79.5173 131.137 80.0381 132.392 80.9637 133.318C81.8893 134.243 83.1441 134.764 84.4531 134.766H116.547C117.856 134.764 119.111 134.243 120.036 133.318C120.962 132.392 121.483 131.137 121.484 129.828V63.1719C121.483 61.8629 120.962 60.608 120.036 59.6824C119.111 58.7568 117.856 58.2361 116.547 58.2344V58.2344ZM106.277 60.7031L105.583 63.1719H95.2925L94.6753 60.7031H106.277ZM119.016 129.828C119.015 130.483 118.754 131.11 118.292 131.573C117.829 132.036 117.201 132.296 116.547 132.297H84.4531C83.7986 132.296 83.1712 132.036 82.7084 131.573C82.2456 131.11 81.9852 130.483 81.9844 129.828V63.1719C81.9852 62.5174 82.2456 61.8899 82.7084 61.4272C83.1712 60.9644 83.7986 60.704 84.4531 60.7031H92.1294L93.1308 64.7056C93.1975 64.9726 93.3516 65.2097 93.5686 65.3791C93.7855 65.5485 94.0529 65.6406 94.3281 65.6406H106.518C106.787 65.6406 107.048 65.5527 107.263 65.3904C107.477 65.228 107.633 65 107.706 64.7411L108.841 60.7031H116.547C117.201 60.704 117.829 60.9644 118.292 61.4272C118.754 61.8899 119.015 62.5174 119.016 63.1719V129.828Z" fill="white"/>
<path d="M94.3281 127.359H85.6875C85.3601 127.359 85.0462 127.489 84.8147 127.721C84.5832 127.952 84.4531 128.266 84.4531 128.594C84.4531 128.921 84.5832 129.235 84.8147 129.467C85.0462 129.698 85.3601 129.828 85.6875 129.828H94.3281C94.6555 129.828 94.9695 129.698 95.201 129.467C95.4325 129.235 95.5625 128.921 95.5625 128.594C95.5625 128.266 95.4325 127.952 95.201 127.721C94.9695 127.489 94.6555 127.359 94.3281 127.359Z" fill="white"/>
<path d="M99.2656 127.359H98.0312C97.7039 127.359 97.3899 127.489 97.1584 127.721C96.9269 127.952 96.7969 128.266 96.7969 128.594C96.7969 128.921 96.9269 129.235 97.1584 129.467C97.3899 129.698 97.7039 129.828 98.0312 129.828H99.2656C99.593 129.828 99.907 129.698 100.138 129.467C100.37 129.235 100.5 128.921 100.5 128.594C100.5 128.266 100.37 127.952 100.138 127.721C99.907 127.489 99.593 127.359 99.2656 127.359Z" fill="white"/>
</svg>
