<svg width="29" height="29" viewBox="0 0 29 29" fill="none" xmlns="http://www.w3.org/2000/svg">
<g clip-path="url(#clip0_1034_13339)">
<path d="M9.44369 27.3836C10.7396 27.3836 11.7902 26.333 11.7902 25.0371C11.7902 23.7411 10.7396 22.6906 9.44369 22.6906C8.14774 22.6906 7.09717 23.7411 7.09717 25.0371C7.09717 26.333 8.14774 27.3836 9.44369 27.3836Z" stroke="#323941" stroke-width="1.5" stroke-linecap="round" stroke-linejoin="round"/>
<path d="M23.5228 27.3836C24.8187 27.3836 25.8693 26.333 25.8693 25.0371C25.8693 23.7411 24.8187 22.6906 23.5228 22.6906C22.2268 22.6906 21.1763 23.7411 21.1763 25.0371C21.1763 26.333 22.2268 27.3836 23.5228 27.3836Z" stroke="#323941" stroke-width="1.5" stroke-linecap="round" stroke-linejoin="round"/>
<path d="M6.71009 7.43815H27.0427L25.0717 17.2818C24.9644 17.822 24.6705 18.3072 24.2415 18.6525C23.8125 18.9979 23.2757 19.1813 22.7251 19.1708H10.3237C9.75082 19.1756 9.19591 18.9707 8.76366 18.5947C8.33141 18.2186 8.05168 17.6974 7.97722 17.1293L6.19386 3.61331C6.1199 3.04925 5.84355 2.53127 5.41622 2.15573C4.98889 1.7802 4.43969 1.5727 3.8708 1.57184H1.23096" stroke="#323941" stroke-width="1.5" stroke-linecap="round" stroke-linejoin="round"/>
</g>
<defs>
<clipPath id="clip0_1034_13339">
<rect width="28.1583" height="28.1583" fill="white" transform="translate(0.0576172 0.39859)"/>
</clipPath>
</defs>
</svg>
