<svg width="13" height="15" viewBox="0 0 13 15" fill="none" xmlns="http://www.w3.org/2000/svg">
<path d="M11.6422 5.98926L11.6434 5.99154C11.6608 6.02569 11.6684 6.06399 11.6655 6.10222C11.6626 6.14022 11.6493 6.17668 11.6271 6.20765C11.627 6.20783 11.6268 6.20802 11.6267 6.2082L5.96168 13.9976C5.96162 13.9977 5.96157 13.9977 5.96152 13.9978C5.94214 14.0243 5.9168 14.0458 5.88755 14.0606C5.8594 14.0748 5.82839 14.0825 5.79686 14.083C5.77209 14.0821 5.74753 14.0781 5.72377 14.0711C5.68337 14.0572 5.64821 14.0312 5.62307 13.9966C5.59725 13.961 5.58333 13.9182 5.5833 13.8743V9.62467V9.12467H5.0833H1.55568C1.51787 9.12165 1.48155 9.10835 1.45068 9.08615C1.41774 9.06246 1.39244 9.02967 1.37787 8.99181L1.37083 8.97352L1.36239 8.95584C1.34657 8.92272 1.33978 8.88601 1.3427 8.84943C1.34552 8.81422 1.35724 8.78032 1.37673 8.75092L7.03828 0.966295C7.03835 0.966196 7.03843 0.966096 7.0385 0.965997C7.06446 0.930592 7.10095 0.904291 7.14275 0.890853C7.18467 0.877379 7.22979 0.877533 7.27162 0.891295L7.27161 0.891299L7.27348 0.891904C7.31699 0.90603 7.35464 0.934085 7.38062 0.971737C7.4066 1.00939 7.41946 1.05455 7.41723 1.10024L7.41663 1.11245V1.12467V5.37467V5.87467H7.91663H11.4573C11.4956 5.87489 11.5331 5.88565 11.5657 5.90578C11.5984 5.92601 11.6249 5.9549 11.6422 5.98926Z" stroke="#009EFF"/>
</svg>
