<svg width="12" height="12" viewBox="0 0 12 12" fill="none" xmlns="http://www.w3.org/2000/svg">
<path d="M6.05071 11.2118C8.89569 11.2118 11.202 8.90545 11.202 6.06047C11.202 3.21549 8.89569 0.90918 6.05071 0.90918C3.20573 0.90918 0.899414 3.21549 0.899414 6.06047C0.899414 8.90545 3.20573 11.2118 6.05071 11.2118Z" fill="#CBA747"/>
<path d="M9.01494 5.39141C8.81679 4.21392 7.87305 3.61274 7.39547 3.45825C6.91789 3.30577 3.75954 3.36891 3.75954 3.36891C3.68834 3.45624 3.732 4.64381 3.732 4.64381L4.45139 4.63978L4.4655 5.55195H3.84484C3.83547 5.55186 3.82617 5.55364 3.81749 5.55719C3.80881 5.56073 3.80093 5.56598 3.7943 5.57261C3.78767 5.57923 3.78243 5.58712 3.77888 5.5958C3.77533 5.60448 3.77355 5.61378 3.77364 5.62315V6.52323C3.77364 6.56286 3.80521 6.59443 3.84484 6.59443H4.47557C4.47759 7.08007 4.47154 7.46899 4.45206 7.47638C4.39833 7.49788 3.81395 7.44683 3.75618 7.48646C3.70043 7.52407 3.73066 8.22801 3.73066 8.49737C3.72864 8.76672 3.80186 8.7553 3.80186 8.7553C7.1503 8.67 7.06902 8.97764 8.01276 8.41206C8.95651 7.84716 9.21645 6.57025 9.01562 5.39074L9.01494 5.39141ZM5.44954 7.47302V6.58301L6.52494 6.59443C6.54407 6.59461 6.56249 6.58723 6.5762 6.5739C6.58991 6.56057 6.5978 6.54236 6.59816 6.52323V5.62315C6.5978 5.60403 6.58991 5.58582 6.5762 5.57248C6.56249 5.55915 6.54407 5.55177 6.52494 5.55195L5.44954 5.55396V4.56052C5.44954 4.56052 7.91201 4.28781 7.91201 6.13432C7.91201 7.90896 5.44954 7.47302 5.44954 7.47302Z" fill="white"/>
</svg>
