<svg width="104" height="104" viewBox="0 0 104 104" fill="none" xmlns="http://www.w3.org/2000/svg">
<circle cx="52" cy="52" r="52" fill="#009EFF"/>
<path d="M25 52.3623C25 50.8317 26.2408 49.591 27.7713 49.591H77.2287C78.7592 49.591 80 50.8317 80 52.3623C80 53.8929 78.7592 55.1336 77.2287 55.1336H27.7713C26.2408 55.1336 25 53.8929 25 52.3623Z" fill="white"/>
<path d="M52.5 79.8623C50.9694 79.8623 49.7287 78.6215 49.7287 77.091L49.7287 27.6336C49.7287 26.1031 50.9694 24.8623 52.5 24.8623C54.0306 24.8623 55.2713 26.1031 55.2713 27.6336L55.2713 77.091C55.2713 78.6215 54.0306 79.8623 52.5 79.8623Z" fill="white"/>
</svg>
