<svg width="80" height="80" viewBox="0 0 80 80" fill="none" xmlns="http://www.w3.org/2000/svg">
<path d="M60.7503 38.8986L31.417 18.8986C31.0077 18.6212 30.4797 18.5906 30.0423 18.8212C29.6063 19.0519 29.333 19.5052 29.333 19.9999V59.9999C29.333 60.4946 29.6063 60.9479 30.0437 61.1786C30.2383 61.2826 30.453 61.3332 30.6663 61.3332C30.929 61.3332 31.1917 61.2546 31.417 61.1012L60.7503 41.1012C61.1143 40.8532 61.333 40.4412 61.333 39.9999C61.333 39.5586 61.1143 39.1466 60.7503 38.8986ZM31.9997 57.4759V22.5239L57.633 39.9999L31.9997 57.4759Z" fill="white"/>
<path d="M40 0C17.944 0 0 17.944 0 40C0 62.056 17.944 80 40 80C62.056 80 80 62.056 80 40C80 17.944 62.056 0 40 0ZM40 77.3333C19.4147 77.3333 2.66667 60.5853 2.66667 40C2.66667 19.4147 19.4147 2.66667 40 2.66667C60.5853 2.66667 77.3333 19.4147 77.3333 40C77.3333 60.5853 60.5853 77.3333 40 77.3333Z" fill="white"/>
</svg>
