<svg width="25" height="16" viewBox="0 0 25 16" fill="none" xmlns="http://www.w3.org/2000/svg">
<path fill-rule="evenodd" clip-rule="evenodd" d="M23.0869 0.671753C23.8258 0.671753 24.4303 1.27629 24.4303 2.01516V14.1058C24.4303 14.8447 23.8258 15.4492 23.0869 15.4492H1.59243C0.853556 15.4492 0.249023 14.8447 0.249023 14.1058V2.01516C0.249023 1.27629 0.853556 0.671753 1.59243 0.671753H23.0869Z" fill="#3D95CE"/>
<path d="M16.1516 5.61552C16.1516 7.67362 14.434 10.3477 13.0396 12.2251H9.85571L8.57812 4.41318L11.3664 4.14315L12.0414 9.7015C12.6728 8.64961 13.4513 6.99789 13.4513 5.87144C13.4513 5.25482 13.3479 4.83501 13.1867 4.48908L15.7257 3.96313C16.0193 4.45885 16.1516 4.97002 16.1516 5.61552Z" fill="white"/>
</svg>
