<svg width="19" height="9" viewBox="0 0 19 9" fill="none" xmlns="http://www.w3.org/2000/svg">
<path d="M3.68946 1.44186C3.90305 1.17487 4.04788 0.81629 4.0097 0.449951C3.69722 0.465469 3.31597 0.656093 3.09507 0.923392C2.89684 1.1522 2.72143 1.52569 2.76707 1.87666C3.11789 1.90709 3.46841 1.70141 3.68946 1.44186Z" fill="black"/>
<path d="M4.0058 1.94528C3.49615 1.91485 3.06317 2.23434 2.81991 2.23434C2.5765 2.23434 2.20392 1.96049 1.80092 1.96795C1.27651 1.97556 0.789986 2.27222 0.523752 2.74383C-0.0236262 3.68706 0.379225 5.0867 0.911694 5.85497C1.17017 6.23531 1.48174 6.65368 1.8922 6.63861C2.28014 6.6234 2.43212 6.38759 2.90343 6.38759C3.37459 6.38759 3.51151 6.63861 3.92212 6.63101C4.34779 6.6234 4.61403 6.25067 4.8725 5.87034C5.16916 5.43676 5.29041 5.01839 5.29802 4.99557C5.29041 4.98796 4.47711 4.67593 4.4695 3.74031C4.46189 2.95682 5.10816 2.58409 5.13858 2.56112C4.77362 2.02135 4.20342 1.96049 4.00564 1.94528" fill="black"/>
<path d="M9.08462 0.88501C10.1919 0.88501 10.963 1.64827 10.963 2.75945C10.963 3.87459 10.176 4.64181 9.05693 4.64181H7.83104V6.59156H6.94531V0.88501H9.08462ZM7.83104 3.89833H8.84729C9.61861 3.89833 10.0574 3.48315 10.0574 2.76341C10.0574 2.04381 9.61846 1.63244 8.85125 1.63244H7.83104V3.89833Z" fill="black"/>
<path d="M11.1826 5.40902C11.1826 4.67741 11.7402 4.25828 12.7683 4.19499L13.8716 4.12775V3.81131C13.8716 3.34882 13.5672 3.09567 13.0254 3.09567C12.5784 3.09567 12.2541 3.32494 12.1872 3.67682H11.3881C11.412 2.93745 12.1079 2.39966 13.0491 2.39966C14.0614 2.39966 14.7219 2.92954 14.7219 3.75213V6.59141H13.9034V5.90726H13.8836C13.6502 6.35408 13.136 6.63476 12.5784 6.63476C11.756 6.63476 11.1826 6.14459 11.1826 5.40902ZM13.8716 5.04131V4.72092L12.887 4.78421C12.3332 4.81981 12.0448 5.02534 12.0448 5.38513C12.0448 5.73322 12.3452 5.95868 12.8158 5.95868C13.4167 5.95868 13.8716 5.575 13.8716 5.04131Z" fill="black"/>
<path d="M15.4748 8.11774V7.43374C15.5302 7.4415 15.6646 7.44941 15.7358 7.44941C16.1272 7.44941 16.3487 7.28359 16.4832 6.85624L16.5623 6.60324L15.0635 2.45105H15.9888L17.0328 5.82021H17.0526L18.0966 2.45105H18.9983L17.4441 6.81273C17.0881 7.81332 16.6808 8.14162 15.8188 8.14162C15.7516 8.14162 15.534 8.13371 15.4748 8.11774Z" fill="black"/>
</svg>
