<svg width="200" height="192" viewBox="0 0 200 192" fill="none" xmlns="http://www.w3.org/2000/svg">
<path d="M170.058 57.6L170.058 55.4171L168.167 54.3257L101.657 15.9257L99.7661 14.8343L97.8757 15.9257L31.365 54.3257L29.4745 55.4171L29.4746 57.6L29.4746 134.4L29.4746 136.583L31.365 137.674L97.8757 176.074L99.7661 177.166L101.657 176.074L168.167 137.674L170.058 136.583L170.058 134.4L170.058 57.6Z" fill="#009EFF" stroke="#F7F7F7" stroke-width="7.56163"/>
<path d="M90.4982 113.799V103.529H96.9133V94.227H90.4982V64.1621H75.8777L56.1102 95.1944V103.529H79.9058V113.799H90.4982ZM79.9058 94.227H66.4788L79.9058 73.5388V94.227Z" fill="white"/>
<path d="M121.879 114.692C136.051 114.692 142.467 101.818 142.467 89.0177C142.467 76.2178 136.051 63.4179 121.879 63.4179C107.631 63.4179 101.29 76.2178 101.29 89.0177C101.29 101.818 107.631 114.692 121.879 114.692ZM121.879 105.315C114.717 105.315 112.032 98.1712 112.032 89.0177C112.032 79.8643 114.717 72.7946 121.879 72.7946C128.965 72.7946 131.65 79.8643 131.65 89.0177C131.65 98.1712 128.965 105.315 121.879 105.315Z" fill="white"/>
<path d="M90.1663 131.295V122.818C90.1663 120.414 88.879 119.272 86.7174 119.272C84.9201 119.272 83.3657 120.341 82.6857 121.41C82.2485 120.074 81.1555 119.272 79.4311 119.272C77.6338 119.272 76.0794 120.39 75.5937 121.094V119.564H72.5091V131.295H75.5937V123.401C76.0551 122.745 76.9538 122.017 78.0224 122.017C79.2854 122.017 79.7711 122.794 79.7711 123.887V131.295H82.88V123.377C83.3172 122.745 84.2158 122.017 85.3087 122.017C86.5717 122.017 87.0575 122.794 87.0575 123.887V131.295H90.1663ZM94.7218 118.301C95.7418 118.301 96.5676 117.475 96.5676 116.455C96.5676 115.435 95.7418 114.633 94.7218 114.633C93.726 114.633 92.8759 115.435 92.8759 116.455C92.8759 117.475 93.726 118.301 94.7218 118.301ZM96.2762 131.295V119.564H93.1916V131.295H96.2762ZM102.419 131.295V115.095H99.3347V131.295H102.419ZM110.991 131.586C112.813 131.586 114.659 131.028 115.824 129.959L114.464 127.967C113.711 128.696 112.327 129.133 111.331 129.133C109.34 129.133 108.149 127.894 107.955 126.413H116.674V125.733C116.674 121.895 114.294 119.272 110.797 119.272C107.227 119.272 104.725 122.017 104.725 125.417C104.725 129.182 107.421 131.586 110.991 131.586ZM113.687 124.324H107.907C108.052 123.158 108.878 121.725 110.797 121.725C112.837 121.725 113.614 123.207 113.687 124.324ZM123.129 131.586C126.383 131.586 128.205 129.959 128.205 127.822C128.205 123.085 121.258 124.543 121.258 122.794C121.258 122.138 121.987 121.628 123.104 121.628C124.537 121.628 125.873 122.235 126.577 122.988L127.816 120.875C126.65 119.952 125.072 119.272 123.08 119.272C119.995 119.272 118.271 120.997 118.271 122.964C118.271 127.579 125.242 126 125.242 127.943C125.242 128.672 124.61 129.206 123.274 129.206C121.817 129.206 120.068 128.405 119.218 127.603L117.882 129.765C119.121 130.906 121.088 131.586 123.129 131.586Z" fill="white"/>
</svg>
