<svg width="13" height="13" viewBox="0 0 13 13" fill="none" xmlns="http://www.w3.org/2000/svg">
<path d="M6.5 0C2.90746 0 0 2.90712 0 6.5C0 10.0925 2.90712 13 6.5 13C10.0925 13 13 10.0929 13 6.5C13 2.90746 10.0929 0 6.5 0ZM6.30767 9.54228C5.93976 9.54228 5.65741 9.23427 5.65741 8.88344C5.65741 8.52409 5.94831 8.22466 6.30767 8.22466C6.66705 8.22466 6.96645 8.52412 6.96645 8.88347C6.96645 9.23424 6.67555 9.54228 6.30767 9.54228ZM7.28302 6.214C6.81246 6.58191 6.80387 6.83858 6.80387 7.28348C6.80387 7.44608 6.71831 7.6343 6.29908 7.6343C5.94826 7.6343 5.82852 7.50595 5.82852 7.06106C5.82852 6.32524 6.15365 5.97444 6.40176 5.76055C6.68411 5.52096 7.16325 5.25576 7.16325 4.79375C7.16325 4.40014 6.82101 4.21192 6.39321 4.21192C5.52051 4.21192 5.70875 4.87076 5.24669 4.87076C5.01569 4.87076 4.73335 4.71671 4.73335 4.38306C4.73335 3.92105 5.26381 3.23654 6.41888 3.23654C7.51403 3.23654 8.24129 3.84404 8.24129 4.64829C8.24129 5.45254 7.51403 6.03434 7.28302 6.214Z" fill="#999999"/>
</svg>
