<svg width="61" height="24" viewBox="0 0 61 24" fill="none" xmlns="http://www.w3.org/2000/svg">
<path fill-rule="evenodd" clip-rule="evenodd" d="M4.98167 13.5236C3.34048 13.5236 1.43786 14.2997 0.406667 15.1045L1.35071 17.059C2.17857 16.3116 3.51476 15.6793 4.72024 15.6793C5.86762 15.6793 6.49214 16.053 6.49214 16.8146C6.49214 17.332 6.07095 17.5907 5.28667 17.6913C2.32381 18.0649 0 18.8697 0 21.126C0 22.9081 1.29262 24.0003 3.29691 24.0003C4.73476 24.0003 6.01286 23.2099 6.62286 22.1751V23.7128H9.29524V17.2602C9.29524 14.6015 7.42167 13.5236 4.98167 13.5236ZM3.97952 21.9308C3.22429 21.9308 2.84667 21.5715 2.84667 20.9679C2.84667 19.847 4.11024 19.4733 6.41952 19.229C6.43405 20.7236 5.40286 21.9308 3.97952 21.9308ZM34.494 15.4781V13.811H31.8217V23.7128H34.6829V18.9416C34.6829 16.6709 36.0626 16.0099 37.0357 16.0099C37.4133 16.0099 37.9217 16.1248 38.2557 16.3691L38.7786 13.7536C38.3429 13.5667 37.8781 13.5236 37.5005 13.5236C36.0336 13.5236 35.104 14.1703 34.494 15.4781ZM52.0533 13.5236C50.5429 13.5236 49.41 14.4146 48.8145 15.2625C48.2626 14.156 47.1152 13.5236 45.721 13.5236C44.2105 13.5236 43.1648 14.3572 42.671 15.3057V13.811H39.9114V23.7128H42.7726V18.6111C42.7726 16.7859 43.7457 15.9093 44.6462 15.9093C45.4595 15.9093 46.2148 16.4266 46.2148 17.7775V23.7128H49.0905V18.6111C49.0905 16.7572 50.0345 15.9093 50.9786 15.9093C51.7338 15.9093 52.5326 16.4554 52.5326 17.7631V23.7128H55.3938V16.8721C55.3938 14.6446 53.8833 13.5236 52.0533 13.5236ZM19.4038 13.0781V13.811H15.0612V12.8051C15.0612 11.4973 15.8164 11.1236 16.47 11.1236C16.8476 11.1236 17.3414 11.2099 17.7481 11.4398L18.634 9.44219C18.1112 9.14039 17.2543 8.86734 16.1069 8.86734C14.2769 8.86734 12.2 9.8877 12.2 13.0925V13.8254H10.5443V16.0099H12.2V23.7128H15.0612V15.9955H19.4038V23.7128H22.265V15.9955H24.8648V13.811H22.265V12.8051C22.265 11.4973 23.0202 11.1236 23.6738 11.1236C24.4 11.1236 24.9519 11.4398 24.9519 11.4398L25.8379 9.44219C25.8379 9.44219 24.9374 8.86734 23.3107 8.86734C21.4952 8.85297 19.4038 9.87333 19.4038 13.0781ZM26.564 13.811H29.4252V23.7128H26.564V13.811Z" fill="#060809"/>
<path fill-rule="evenodd" clip-rule="evenodd" d="M43.2378 0C35.5111 0 28.6269 5.30299 26.6807 12.1293H29.4838C31.1104 7.04192 36.644 2.58683 43.2378 2.58683C51.2549 2.58683 58.1683 8.62275 58.1683 18.0216C58.1683 20.1341 57.8923 22.0311 57.3695 23.7126H60.0854L60.1145 23.6263C60.5647 21.8874 60.7826 20.0048 60.7826 18.0216C60.7826 7.54491 53.0704 0 43.2378 0Z" fill="#0FA0EA"/>
</svg>
