<svg width="14" height="10" viewBox="0 0 14 10" fill="none" xmlns="http://www.w3.org/2000/svg">
<path d="M2.55259 5.06044V7.54575C2.55259 7.74726 2.41825 7.74726 2.21674 7.68009C0.940506 7.14272 0.201632 5.46347 0.671824 4.05289C0.940505 3.31402 1.47787 2.70948 2.21674 2.4408C2.48542 2.30646 2.55259 2.37363 2.55259 2.57514V5.06044ZM3.896 5.06044V2.57514C3.896 2.37363 3.896 2.37363 4.09751 2.4408C5.50809 2.97816 6.24696 4.65742 5.7096 6.068C5.44092 6.80687 4.90355 7.41141 4.16468 7.68009C3.896 7.81443 3.896 7.74726 3.896 7.54575V5.06044ZM8.73226 0.358521H3.2243C5.77677 0.358521 7.79188 2.4408 7.79188 5.06044C7.79188 7.68009 5.77677 9.76237 3.2243 9.76237H8.73226C11.2847 9.76237 13.2998 7.68009 13.2998 5.06044C13.2998 2.4408 11.2847 0.358521 8.73226 0.358521Z" fill="#3086C8"/>
</svg>
