<svg width="12" height="12" viewBox="0 0 12 12" fill="none" xmlns="http://www.w3.org/2000/svg">
<path d="M6.44058 11.5684C9.48255 11.5684 11.9486 9.10242 11.9486 6.06046C11.9486 3.01849 9.48255 0.55249 6.44058 0.55249C3.39862 0.55249 0.932617 3.01849 0.932617 6.06046C0.932617 9.10242 3.39862 11.5684 6.44058 11.5684Z" fill="#1652F0"/>
<path d="M7.77085 6.76836C7.77085 6.07315 7.34835 5.83873 6.53022 5.72588C5.92568 5.63856 5.80814 5.4975 5.80814 5.21539C5.80814 4.93327 6.01301 4.75728 6.40461 4.75728C6.76061 4.75728 6.96683 4.88088 7.05146 5.16837C7.0604 5.19973 7.07922 5.22739 7.10511 5.24723C7.131 5.26707 7.16259 5.27804 7.1952 5.27853H7.50822C7.52866 5.2788 7.5489 5.27459 7.56754 5.26619C7.58617 5.25778 7.60273 5.24539 7.61606 5.22989C7.62938 5.21439 7.63914 5.19616 7.64465 5.17647C7.65015 5.15679 7.65128 5.13614 7.64793 5.11597C7.54852 4.66257 7.24289 4.38919 6.7633 4.30388V3.82563C6.7633 3.7862 6.74768 3.74837 6.71986 3.72043C6.69204 3.69248 6.65429 3.67669 6.61485 3.67651H6.31594C6.2764 3.67651 6.23847 3.69222 6.2105 3.72019C6.18254 3.74815 6.16683 3.78608 6.16683 3.82563V4.28709C5.5717 4.37105 5.19487 4.764 5.19487 5.26912C5.19487 5.92067 5.59252 6.17458 6.42274 6.28675C6.98698 6.37945 7.14818 6.5017 7.14818 6.8221C7.14818 7.14317 6.87547 7.35812 6.48992 7.35812C5.97069 7.35812 5.7947 7.13108 5.73626 6.83621C5.72947 6.80229 5.7112 6.77176 5.68453 6.74973C5.65786 6.72771 5.62442 6.71555 5.58983 6.7153H5.25062C5.23036 6.71502 5.21028 6.7192 5.19181 6.72753C5.17334 6.73587 5.15692 6.74816 5.14373 6.76353C5.13053 6.77891 5.12087 6.797 5.11543 6.81652C5.10999 6.83604 5.1089 6.85652 5.11225 6.87651C5.19957 7.37357 5.51796 7.73629 6.16683 7.82361V8.29514C6.16683 8.33469 6.18254 8.37262 6.2105 8.40059C6.23847 8.42855 6.2764 8.44426 6.31594 8.44426H6.61485C6.65429 8.44409 6.69204 8.4283 6.71986 8.40035C6.74768 8.37241 6.7633 8.33458 6.7633 8.29514V7.82495C7.37925 7.72688 7.77085 7.3017 7.77085 6.76836Z" fill="white"/>
<path d="M5.31272 9.14829C4.67998 8.91661 4.13368 8.49616 3.74773 7.94383C3.36178 7.3915 3.1548 6.73395 3.1548 6.06013C3.1548 5.38631 3.36178 4.72876 3.74773 4.17643C4.13368 3.6241 4.67998 3.20365 5.31272 2.97197C5.35327 2.95412 5.38803 2.92529 5.41307 2.88874C5.43812 2.85218 5.45245 2.80935 5.45445 2.76509V2.45745C5.45716 2.43028 5.45266 2.40287 5.44139 2.378C5.43012 2.35313 5.41249 2.33167 5.39028 2.31579C5.36806 2.29992 5.34205 2.29018 5.31487 2.28757C5.28769 2.28497 5.2603 2.28958 5.23547 2.30094C4.43804 2.55516 3.74211 3.05637 3.24827 3.73212C2.75444 4.40787 2.48828 5.22316 2.48828 6.06013C2.48828 6.8971 2.75444 7.71239 3.24827 8.38814C3.74211 9.06389 4.43804 9.5651 5.23547 9.81932C5.2603 9.83068 5.28769 9.83529 5.31487 9.83269C5.34205 9.83008 5.36806 9.82034 5.39028 9.80447C5.41249 9.78859 5.43012 9.76713 5.44139 9.74226C5.45266 9.71739 5.45716 9.68998 5.45445 9.66281V9.35651C5.45263 9.3122 5.43846 9.26929 5.41353 9.23261C5.3886 9.19593 5.35392 9.16696 5.31339 9.14896L5.31272 9.14829ZM7.64622 2.30161C7.62138 2.29047 7.59405 2.28602 7.56696 2.28872C7.53986 2.29143 7.51395 2.30118 7.4918 2.31701C7.46965 2.33284 7.45203 2.3542 7.44071 2.37896C7.42938 2.40372 7.42474 2.43101 7.42724 2.45812V2.76509C7.42909 2.8094 7.44336 2.85229 7.46842 2.88887C7.49348 2.92545 7.52832 2.95425 7.56897 2.97197C8.20193 3.20352 8.74846 3.62396 9.13459 4.17636C9.52073 4.72877 9.72781 5.38648 9.72781 6.06047C9.72781 6.73445 9.52073 7.39216 9.13459 7.94457C8.74846 8.49698 8.20193 8.91741 7.56897 9.14896C7.52702 9.16493 7.49099 9.1934 7.46576 9.23052C7.44053 9.26765 7.42732 9.31163 7.42791 9.35651V9.66348C7.42541 9.69059 7.43005 9.71789 7.44138 9.74265C7.45271 9.7674 7.47032 9.78876 7.49247 9.80459C7.51462 9.82043 7.54053 9.83018 7.56763 9.83288C7.59472 9.83558 7.62205 9.83114 7.64689 9.81999C8.44432 9.56578 9.14025 9.06457 9.63409 8.38881C10.1279 7.71306 10.3941 6.89777 10.3941 6.0608C10.3941 5.22383 10.1279 4.40855 9.63409 3.73279C9.14025 3.05704 8.44432 2.55583 7.64689 2.30161H7.64622Z" fill="white"/>
</svg>
