<svg width="23" height="17" viewBox="0 0 23 17" fill="none" xmlns="http://www.w3.org/2000/svg">
<g clip-path="url(#clip0_330_9283)">
<path d="M3.7467 16.697C2.83626 15.2903 2.31855 13.6606 2.24836 11.9805C2.17817 10.3003 2.55812 8.63222 3.34799 7.15277C4.13786 5.67332 5.30825 4.43756 6.73527 3.57631C8.16229 2.71506 9.79283 2.26036 11.4543 2.26036C13.1157 2.26036 14.7463 2.71506 16.1733 3.57631C17.6003 4.43756 18.7707 5.67332 19.5606 7.15277C20.3504 8.63222 20.7304 10.3003 20.6602 11.9805C20.59 13.6606 20.0723 15.2903 19.1619 16.697H21.7416C22.5984 14.9291 22.9963 12.9695 22.8979 11.0029C22.7994 9.03628 22.2077 7.12745 21.1787 5.45634C20.1496 3.78522 18.717 2.40688 17.016 1.45124C15.315 0.495596 13.4015 -0.00585938 11.456 -0.00585938C9.51054 -0.00585938 7.59709 0.495596 5.89607 1.45124C4.19504 2.40688 2.76247 3.78522 1.73341 5.45634C0.704344 7.12745 0.112684 9.03628 0.0142017 11.0029C-0.084281 12.9695 0.313657 14.9291 1.17051 16.697H3.7467Z" fill="#4A4AF4"/>
<path d="M11.6097 6.08496C9.93185 6.08496 8.00059 6.88631 6.95194 7.73189L7.90796 9.77153C8.74863 8.99318 10.1084 8.32804 11.3336 8.32804C12.4993 8.32804 13.1407 8.72075 13.1407 9.5168C13.1407 10.0475 12.7143 10.3518 11.9086 10.4261C8.8867 10.7073 6.53772 11.6644 6.53772 14.0118C6.53772 15.8745 7.86426 16.9996 10.0472 16.9996C10.7034 17.0005 11.348 16.8245 11.9148 16.4896C12.4815 16.1548 12.9499 15.6732 13.2718 15.0944V16.6954H15.9948V9.98382C15.9948 7.21181 14.0898 6.09204 11.6097 6.09204V6.08496ZM10.8145 14.8468C9.9406 14.8468 9.44948 14.4647 9.44948 13.8384C9.44948 12.5294 11.0225 12.2145 13.0848 12.2145C13.0848 13.5837 12.1795 14.8468 10.8127 14.8468H10.8145Z" fill="#060809"/>
</g>
<defs>
<clipPath id="clip0_330_9283">
<rect width="22.913" height="17" fill="white"/>
</clipPath>
</defs>
</svg>
