<svg width="39" height="39" viewBox="0 0 39 39" fill="none" xmlns="http://www.w3.org/2000/svg">
<circle cx="19.7961" cy="19.759" r="18.966" fill="#009EFF"/>
<path fill-rule="evenodd" clip-rule="evenodd" d="M30.513 12.5314C30.8914 12.9099 31.1641 13.3809 31.3039 13.8976C32.109 17.138 31.9229 22.2557 31.3196 25.6211C31.1798 26.1377 30.9071 26.6088 30.5286 26.9872C30.1501 27.3657 29.6791 27.6384 29.1625 27.7782C27.2711 28.294 19.6586 28.294 19.6586 28.294C19.6586 28.294 12.0461 28.294 10.1547 27.7782C9.63807 27.6384 9.16706 27.3657 8.78859 26.9872C8.41012 26.6088 8.1374 26.1377 7.9976 25.6211C7.18789 22.3948 7.40986 17.2739 7.98197 13.9132C8.12177 13.3966 8.39449 12.9255 8.77296 12.5471C9.15142 12.1686 9.62244 11.8959 10.1391 11.7561C12.0305 11.2402 19.643 11.2246 19.643 11.2246C19.643 11.2246 27.2554 11.2246 29.1468 11.7404C29.6635 11.8803 30.1345 12.153 30.513 12.5314ZM23.5352 19.7593L17.2201 23.4171V16.1016L23.5352 19.7593Z" fill="white"/>
</svg>
