<svg width="112" height="20" viewBox="0 0 112 20" fill="none" xmlns="http://www.w3.org/2000/svg">
<path d="M22.6046 5.58362C18.5359 5.58362 15.3567 8.67117 15.3567 12.8045C15.3567 16.9379 18.4555 19.999 22.6046 19.999C26.7536 19.999 29.9062 16.885 29.9062 12.7781C29.9062 8.6976 26.8075 5.58362 22.6046 5.58362ZM22.632 17.0202C20.315 17.0202 18.6172 15.2213 18.6172 12.8055C18.6172 10.3623 20.2876 8.56446 22.6046 8.56446C24.949 8.56446 26.6458 10.3898 26.6458 12.8055C26.6458 15.2213 24.949 17.0202 22.632 17.0202ZM30.7948 8.72504H32.8159V19.7317H36.0489V5.85192H30.7948V8.72504ZM7.22036 8.56344C8.91819 8.56344 10.2653 9.61024 10.7767 11.1672H14.1988C13.5786 7.83881 10.8305 5.58362 7.24781 5.58362C3.17911 5.58362 0 8.67117 0 12.8055C0 16.9399 3.0988 20 7.24781 20C10.7502 20 13.5522 17.7448 14.1723 14.3889H10.7767C10.2917 15.9459 8.94463 17.0202 7.2468 17.0202C4.90236 17.0202 3.25943 15.2213 3.25943 12.8055C3.26045 10.3623 4.87695 8.56344 7.22036 8.56344ZM92.2238 11.463L89.8529 11.1144C88.7214 10.9538 87.9131 10.5778 87.9131 9.69155C87.9131 8.72504 88.9644 8.24229 90.3918 8.24229C91.9544 8.24229 92.9518 8.91306 93.1673 10.0137H96.2925C95.9418 7.22191 93.7864 5.58463 90.4731 5.58463C87.051 5.58463 84.7879 7.32964 84.7879 9.79928C84.7879 12.1612 86.2702 13.5312 89.2602 13.9601L91.6311 14.3087C92.7901 14.4692 93.4367 14.9266 93.4367 15.7854C93.4367 16.886 92.3051 17.3423 90.7425 17.3423C88.8292 17.3423 87.7515 16.5639 87.5898 15.3829H84.4107C84.7076 18.0944 86.8355 20 90.7151 20C94.2449 20 96.5884 18.3891 96.5884 15.6238C96.5884 13.1541 94.8915 11.8654 92.2238 11.463ZM34.4324 0.134153C33.247 0.134153 32.3574 0.992937 32.3574 2.17389C32.3574 3.35485 33.246 4.21363 34.4324 4.21363C35.6179 4.21363 36.5075 3.35485 36.5075 2.17389C36.5075 0.992937 35.6179 0.134153 34.4324 0.134153ZM81.8782 10.6042C81.8782 7.59795 80.0462 5.58463 76.1666 5.58463C72.5025 5.58463 70.455 7.43737 70.0503 10.283H73.2569C73.4185 9.18238 74.2807 8.26973 76.1127 8.26973C77.7567 8.26973 78.5649 8.99436 78.5649 9.88058C78.5649 11.0351 77.0826 11.3298 75.2506 11.5179C72.7719 11.7862 69.7006 12.645 69.7006 15.8667C69.7006 18.3637 71.5601 19.9736 74.5237 19.9736C76.8406 19.9736 78.2955 19.0071 79.0234 17.4765C79.1312 18.8455 80.155 19.7317 81.5834 19.7317H83.4693V16.8596H81.8792V10.6042H81.8782ZM78.6991 14.0942C78.6991 15.9469 77.0826 17.3159 75.1154 17.3159C73.9025 17.3159 72.8787 16.8057 72.8787 15.7325C72.8787 14.3635 74.5226 13.9875 76.0314 13.8269C77.4862 13.6928 78.2945 13.3706 78.6991 12.7527V14.0942ZM61.5368 5.58362C59.7312 5.58362 58.2224 6.33569 57.1448 7.59693V0H53.9118V19.7317H57.0909V17.9064C58.1685 19.2215 59.7047 20 61.5368 20C65.4164 20 68.3535 16.9399 68.3535 12.8055C68.3535 8.67117 65.3625 5.58362 61.5368 5.58362ZM61.0518 17.0202C58.7348 17.0202 57.037 15.2213 57.037 12.8055C57.037 10.3898 58.7613 8.56446 61.0783 8.56446C63.4227 8.56446 65.0656 10.3633 65.0656 12.8055C65.0656 15.2213 63.3688 17.0202 61.0518 17.0202ZM46.179 5.58362C44.0776 5.58362 42.703 6.4424 41.8948 7.6508V5.85192H38.6882V19.7307H41.9212V12.1876C41.9212 10.0666 43.2683 8.56344 45.262 8.56344C47.1215 8.56344 48.2794 9.87855 48.2794 11.7852V19.7317H51.5124V11.5443C51.5135 8.05326 49.7089 5.58362 46.179 5.58362ZM112 12.3492C112 8.37644 109.09 5.58463 105.183 5.58463C101.034 5.58463 97.9893 8.69861 97.9893 12.8055C97.9893 17.1279 101.25 20 105.237 20C108.605 20 111.246 18.0131 111.919 15.1949H108.55C108.065 16.4297 106.88 17.1279 105.29 17.1279C103.215 17.1279 101.652 15.8392 101.303 13.584H111.999V12.3492H112ZM101.492 11.275C102.004 9.34194 103.459 8.40287 105.129 8.40287C106.961 8.40287 108.362 9.44967 108.686 11.275H101.492Z" fill="#0052FF"/>
</svg>
