<svg width="140" height="228" viewBox="0 0 140 228" fill="none" xmlns="http://www.w3.org/2000/svg">
<path d="M55.4098 156.75L91.1475 146.145C87.8689 143.163 85.2459 137.529 85.2459 132.227C85.2459 104.39 140 100.744 140 52.3605C140 21.5407 114.098 0 71.8033 0C43.6066 0 17.377 11.5988 0 32.1454L26.5574 62.3023C36.7213 50.0407 50.4918 41.7558 66.8852 41.7558C84.918 41.7558 92.459 50.3721 92.459 60.6454C92.459 83.5116 44.5902 88.1512 44.5902 127.587C44.5902 139.186 48.5246 149.128 55.4098 156.75ZM71.1475 228C85.5738 228 97.7049 215.738 97.7049 201.157C97.7049 186.576 85.5738 174.314 71.1475 174.314C56.7213 174.314 44.5902 186.576 44.5902 201.157C44.5902 215.738 56.7213 228 71.1475 228Z" fill="white"/>
</svg>
