<svg width="12" height="12" viewBox="0 0 12 12" fill="none" xmlns="http://www.w3.org/2000/svg">
<path d="M6.35562 11.5684C9.39759 11.5684 11.8636 9.10242 11.8636 6.06046C11.8636 3.01849 9.39759 0.55249 6.35562 0.55249C3.31366 0.55249 0.847656 3.01849 0.847656 6.06046C0.847656 9.10242 3.31366 11.5684 6.35562 11.5684Z" fill="#F5AC37"/>
<path d="M3.67081 9.05763V9.03748V8.25159V7.19232C3.67081 7.14798 3.67081 7.14127 3.61707 7.14127H2.88491C2.84461 7.14127 2.82715 7.14127 2.82715 7.08753V6.44672H3.60968C3.65402 6.44672 3.67014 6.44672 3.67014 6.38896V5.75487C3.67014 5.71457 3.67014 5.70449 3.6164 5.70449H2.88424C2.84394 5.70449 2.82715 5.70449 2.82715 5.65076V5.0563C2.82715 5.01936 2.82715 5.00928 2.88088 5.00928H3.60632C3.65737 5.00928 3.67081 5.00928 3.67081 4.94547V3.1265C3.67081 3.07276 3.67081 3.05933 3.73798 3.05933H6.26828C6.45177 3.06611 6.63452 3.08631 6.81505 3.11978C7.18686 3.18884 7.54404 3.3213 7.87097 3.51138C8.0873 3.63888 8.28679 3.793 8.46475 3.97016C8.59788 4.10888 8.71858 4.25902 8.82546 4.41885C8.93182 4.58091 9.02011 4.75412 9.08877 4.93539C9.09286 4.95806 9.10575 4.97819 9.12462 4.9914C9.14349 5.00461 9.16682 5.00983 9.18952 5.00592H9.79405C9.8713 5.00592 9.8713 5.00592 9.87466 5.07981V5.63329C9.87466 5.68703 9.85451 5.70046 9.80077 5.70046H9.33528C9.28826 5.70046 9.27483 5.70046 9.27752 5.76159C9.2961 5.96716 9.2961 6.17398 9.27752 6.37955C9.27752 6.43665 9.27751 6.44337 9.342 6.44337H9.87466C9.89817 6.47359 9.87466 6.50382 9.87466 6.53405C9.87812 6.57338 9.87812 6.61293 9.87466 6.65227V7.06066C9.87466 7.11776 9.85787 7.13455 9.80749 7.13455H9.16937C9.14796 7.13072 9.1259 7.13529 9.10776 7.14729C9.08963 7.1593 9.07681 7.17783 9.07197 7.19903C8.91996 7.59397 8.67722 7.94762 8.36333 8.23144C8.24863 8.33485 8.1282 8.43173 8.00262 8.52162C7.86761 8.59886 7.73596 8.68014 7.59758 8.74395C7.34283 8.85856 7.07576 8.94353 6.80162 8.99718C6.54096 9.04371 6.27644 9.06507 6.01169 9.06099H3.67081V9.05763V9.05763ZM8.32974 7.14798C8.27262 7.14126 8.21491 7.14126 8.15778 7.14798H4.4164C4.36535 7.14798 4.34923 7.14798 4.34923 7.21515V8.3866C4.34923 8.44034 4.34923 8.45377 4.4164 8.45377H6.14335C6.2259 8.45998 6.30891 8.45433 6.38986 8.43698C6.64048 8.41886 6.88712 8.36433 7.12202 8.2751C7.20782 8.24542 7.29041 8.20717 7.36853 8.16091H7.39204C7.79674 7.95033 8.1257 7.6188 8.3331 7.21247C8.3331 7.21247 8.35661 7.15873 8.32974 7.1453V7.14798V7.14798ZM8.32974 5.00256C8.33573 4.98746 8.33573 4.97065 8.32974 4.95554C8.29608 4.881 8.2556 4.80972 8.20883 4.74261C8.13777 4.62869 8.05369 4.52342 7.95829 4.42893C7.91368 4.37177 7.86173 4.32073 7.8038 4.27712C7.51171 4.02855 7.16478 3.8529 6.79154 3.76461C6.60344 3.72116 6.41096 3.69952 6.21791 3.70013H4.40632C4.35527 3.70013 4.34856 3.72028 4.34856 3.76461V4.96226C4.34856 5.01264 4.34856 5.02607 4.41304 5.02607H8.30623C8.30623 5.02607 8.33982 5.01936 8.34653 4.9992L8.32974 5.00256ZM6.44024 6.44672H8.49162C8.53528 6.44672 8.55543 6.44672 8.55879 6.38896C8.57565 6.18017 8.57565 5.97037 8.55879 5.76159C8.55879 5.72129 8.53864 5.70449 8.49498 5.70449H4.41304C4.36199 5.70449 4.34856 5.72128 4.34856 5.7683V6.36612C4.34856 6.44337 4.34856 6.44337 4.42916 6.44337L6.44024 6.44672V6.44672Z" fill="white"/>
</svg>
