<svg width="16" height="16" viewBox="0 0 16 16" fill="none" xmlns="http://www.w3.org/2000/svg">
<mask id="path-1-inside-1_135_3571" fill="white">
<path d="M3.83323 1.76398C5.0666 0.939867 6.51664 0.5 8 0.5C8.98492 0.5 9.96019 0.693993 10.8701 1.0709C11.7801 1.44781 12.6069 2.00026 13.3033 2.6967C13.9997 3.39314 14.5522 4.21993 14.9291 5.12987C15.306 6.03982 15.5 7.01509 15.5 8C15.5 9.48336 15.0601 10.9334 14.236 12.1668C13.4119 13.4001 12.2406 14.3614 10.8701 14.9291C9.49968 15.4968 7.99168 15.6453 6.53683 15.3559C5.08197 15.0665 3.7456 14.3522 2.6967 13.3033C1.64781 12.2544 0.933503 10.918 0.644114 9.46318C0.354725 8.00832 0.50325 6.50032 1.07091 5.12987C1.63856 3.75943 2.59986 2.58809 3.83323 1.76398Z"/>
</mask>
<path d="M7.5 11C7.5 11.2761 7.72386 11.5 8 11.5C8.27614 11.5 8.5 11.2761 8.5 11H7.5ZM8 5.5L8.35355 5.14645C8.15829 4.95118 7.84171 4.95118 7.64645 5.14645L8 5.5ZM10.1464 8.35355C10.3417 8.54882 10.6583 8.54882 10.8536 8.35355C11.0488 8.15829 11.0488 7.84171 10.8536 7.64645L10.1464 8.35355ZM5.14645 7.64645C4.95118 7.84171 4.95118 8.15829 5.14645 8.35355C5.34171 8.54882 5.65829 8.54882 5.85355 8.35355L5.14645 7.64645ZM8.5 11V5.5H7.5V11H8.5ZM7.64645 5.85355L10.1464 8.35355L10.8536 7.64645L8.35355 5.14645L7.64645 5.85355ZM7.64645 5.14645L5.14645 7.64645L5.85355 8.35355L8.35355 5.85355L7.64645 5.14645ZM3.83323 1.76398L4.3888 2.59545H4.3888L3.83323 1.76398ZM2.6967 13.3033L1.9896 14.0104L2.6967 13.3033ZM14.9291 5.12987L14.0052 5.51256L14.9291 5.12987ZM13.3033 2.6967L12.5962 3.40381L13.3033 2.6967ZM8 -0.5C6.31886 -0.5 4.67547 -0.00148362 3.27766 0.932508L4.3888 2.59545C5.45772 1.88122 6.71442 1.5 8 1.5V-0.5ZM3.27766 0.932508C1.87984 1.8665 0.790372 3.19402 0.147027 4.74719L1.99479 5.51256C2.48676 4.32484 3.31988 3.30968 4.3888 2.59545L3.27766 0.932508ZM0.147027 4.74719C-0.496318 6.30036 -0.664646 8.00943 -0.336672 9.65827L1.6249 9.26809C1.3741 8.00721 1.50282 6.70028 1.99479 5.51256L0.147027 4.74719ZM-0.336672 9.65827C-0.00869715 11.3071 0.800849 12.8217 1.9896 14.0104L3.40381 12.5962C2.49477 11.6872 1.8757 10.529 1.6249 9.26809L-0.336672 9.65827ZM1.9896 14.0104C3.17834 15.1992 4.6929 16.0087 6.34174 16.3367L6.73192 14.3751C5.47104 14.1243 4.31285 13.5052 3.40381 12.5962L1.9896 14.0104ZM6.34174 16.3367C7.99057 16.6646 9.69964 16.4963 11.2528 15.853L10.4874 14.0052C9.29973 14.4972 7.99279 14.6259 6.73192 14.3751L6.34174 16.3367ZM11.2528 15.853C12.806 15.2096 14.1335 14.1202 15.0675 12.7223L13.4046 11.6112C12.6903 12.6801 11.6752 13.5132 10.4874 14.0052L11.2528 15.853ZM15.0675 12.7223C16.0015 11.3245 16.5 9.68114 16.5 8H14.5C14.5 9.28558 14.1188 10.5423 13.4046 11.6112L15.0675 12.7223ZM16.5 8C16.5 6.88376 16.2801 5.77846 15.853 4.74719L14.0052 5.51256C14.3319 6.30117 14.5 7.14641 14.5 8H16.5ZM15.853 4.74719C15.4258 3.71592 14.7997 2.77889 14.0104 1.98959L12.5962 3.40381C13.1998 4.00739 13.6786 4.72394 14.0052 5.51256L15.853 4.74719ZM14.0104 1.98959C13.2211 1.20029 12.2841 0.574189 11.2528 0.147024L10.4874 1.99478C11.2761 2.32144 11.9926 2.80022 12.5962 3.40381L14.0104 1.98959ZM11.2528 0.147024C10.2215 -0.280141 9.11624 -0.5 8 -0.5V1.5C8.8536 1.5 9.69883 1.66813 10.4874 1.99478L11.2528 0.147024Z" fill="#009EFF" mask="url(#path-1-inside-1_135_3571)"/>
</svg>
