<svg width="39" height="39" viewBox="0 0 39 39" fill="none" xmlns="http://www.w3.org/2000/svg">
<circle cx="19.759" cy="19.759" r="18.966" fill="#009EFF"/>
<path d="M19.7595 10.4293C22.798 10.4293 23.1579 10.4409 24.3579 10.4956C25.4674 10.5462 26.0699 10.7316 26.4709 10.8875C27.0021 11.0939 27.3811 11.3405 27.7793 11.7387C28.1776 12.1369 28.4241 12.516 28.6306 13.0471C28.7864 13.4481 28.9718 14.0507 29.0224 15.1602C29.0771 16.3601 29.0888 16.72 29.0888 19.7585C29.0888 22.797 29.0771 23.1569 29.0224 24.3568C28.9718 25.4663 28.7864 26.0689 28.6306 26.4698C28.4241 27.001 28.1776 27.3801 27.7794 27.7783C27.3811 28.1765 27.0021 28.4231 26.4709 28.6295C26.0699 28.7854 25.4674 28.9708 24.3579 29.0213C23.1581 29.0761 22.7982 29.0877 19.7595 29.0877C16.7208 29.0877 16.361 29.0761 15.1612 29.0213C14.0517 28.9708 13.4491 28.7854 13.0481 28.6295C12.517 28.4231 12.1379 28.1765 11.7397 27.7783C11.3415 27.3801 11.0949 27.001 10.8884 26.4698C10.7326 26.0689 10.5472 25.4663 10.4966 24.3568C10.4419 23.1569 10.4303 22.797 10.4303 19.7585C10.4303 16.72 10.4419 16.3601 10.4966 15.1602C10.5472 14.0507 10.7326 13.4481 10.8884 13.0471C11.0949 12.516 11.3415 12.1369 11.7397 11.7387C12.1379 11.3405 12.517 11.0939 13.0481 10.8875C13.4491 10.7316 14.0517 10.5462 15.1612 10.4956C16.3611 10.4409 16.721 10.4293 19.7595 10.4293ZM19.7595 8.37891C16.669 8.37891 16.2815 8.39201 15.0677 8.44739C13.8565 8.50263 13.0292 8.69502 12.3054 8.9763C11.5571 9.26711 10.9225 9.65622 10.2898 10.2888C9.6572 10.9215 9.26809 11.5561 8.97732 12.3044C8.69599 13.0283 8.50361 13.8555 8.44836 15.0667C8.39298 16.2805 8.37988 16.668 8.37988 19.7585C8.37988 22.849 8.39298 23.2365 8.44836 24.4503C8.50361 25.6615 8.69599 26.4887 8.97732 27.2126C9.26809 27.9609 9.6572 28.5955 10.2898 29.2281C10.9225 29.8608 11.5571 30.2499 12.3054 30.5406C13.0292 30.822 13.8565 31.0144 15.0677 31.0696C16.2815 31.125 16.669 31.1381 19.7595 31.1381C22.85 31.1381 23.2376 31.125 24.4513 31.0696C25.6625 31.0144 26.4898 30.822 27.2136 30.5406C27.9619 30.2499 28.5965 29.8608 29.2292 29.2281C29.8618 28.5955 30.2509 27.9609 30.5417 27.2126C30.823 26.4887 31.0154 25.6615 31.0706 24.4503C31.126 23.2365 31.1391 22.849 31.1391 19.7585C31.1391 16.668 31.126 16.2805 31.0706 15.0667C31.0154 13.8555 30.823 13.0283 30.5417 12.3044C30.2509 11.5561 29.8618 10.9215 29.2292 10.2888C28.5965 9.65622 27.9619 9.26711 27.2136 8.9763C26.4898 8.69502 25.6625 8.50263 24.4513 8.44739C23.2376 8.39201 22.85 8.37891 19.7595 8.37891Z" fill="white"/>
<path d="M19.7645 13.9199C16.5371 13.9199 13.9209 16.5362 13.9209 19.7635C13.9209 22.9908 16.5371 25.6071 19.7645 25.6071C22.9918 25.6071 25.6081 22.9908 25.6081 19.7635C25.6081 16.5362 22.9918 13.9199 19.7645 13.9199ZM19.7645 23.5567C17.6695 23.5567 15.9713 21.8584 15.9713 19.7635C15.9713 17.6686 17.6695 15.9703 19.7645 15.9703C21.8594 15.9703 23.5577 17.6686 23.5577 19.7635C23.5577 21.8584 21.8594 23.5567 19.7645 23.5567Z" fill="white"/>
<path d="M27.2047 13.6859C27.2047 14.44 26.5934 15.0514 25.8392 15.0514C25.085 15.0514 24.4736 14.44 24.4736 13.6859C24.4736 12.9317 25.085 12.3203 25.8392 12.3203C26.5934 12.3203 27.2047 12.9317 27.2047 13.6859Z" fill="white"/>
</svg>
