<svg width="25" height="35" viewBox="0 0 25 35" fill="none" xmlns="http://www.w3.org/2000/svg">
<path d="M24.3126 0H0.687406C0.307985 0 0 0.312402 0 0.697266V34.3027C0 34.6876 0.307985 35 0.687406 35H18.6516C18.8336 35 19.0088 34.9262 19.1375 34.7956L24.7985 29.0534C24.9272 28.9229 25 28.7451 25 28.5605V0.697266C25 0.312402 24.692 0 24.3126 0ZM19.3377 32.6211L19.335 29.2537L22.6547 29.2571L19.3377 32.6211ZM23.6252 27.8633L18.6476 27.8585H18.6469C18.4649 27.8585 18.2897 27.9323 18.161 28.0629C18.0323 28.1941 17.9595 28.3712 17.9595 28.5564L17.9642 33.6055H1.37481V1.39453H23.6252V27.8633Z" fill="#999999"/>
<path d="M7.04264 25.1549C5.31402 25.1549 3.9082 26.5809 3.9082 28.3343C3.9082 30.0877 5.31469 31.5137 7.04264 31.5137C8.77126 31.5137 10.1771 30.0877 10.1771 28.3343C10.1777 26.5809 8.77126 25.1549 7.04264 25.1549ZM7.04264 30.1198C6.07218 30.1198 5.28234 29.3187 5.28234 28.3343C5.28234 27.3499 6.07151 26.5494 7.04264 26.5494C8.01377 26.5494 8.80294 27.3499 8.80294 28.3343C8.80294 29.3187 8.01309 30.1198 7.04264 30.1198Z" fill="#00A0FF"/>
<path d="M16.0052 27.7491H12.2245C11.8451 27.7491 11.5371 28.0615 11.5371 28.4464C11.5371 28.8313 11.8451 29.1437 12.2245 29.1437H16.0052C16.3847 29.1437 16.6927 28.8313 16.6927 28.4464C16.6927 28.0615 16.3853 27.7491 16.0052 27.7491Z" fill="#999999"/>
<path d="M6.79447 4.18286H4.80166C4.42224 4.18286 4.11426 4.49526 4.11426 4.88013C4.11426 5.26499 4.42224 5.57739 4.80166 5.57739H6.79514C7.17456 5.57739 7.48255 5.26499 7.48255 4.88013C7.48255 4.49526 7.17456 4.18286 6.79447 4.18286Z" fill="#999999"/>
<path d="M20.4728 4.18286H14.4931C14.1136 4.18286 13.8057 4.49526 13.8057 4.88013C13.8057 5.26499 14.1136 5.57739 14.4931 5.57739H20.4728C20.8523 5.57739 21.1602 5.26499 21.1602 4.88013C21.1602 4.49526 20.8523 4.18286 20.4728 4.18286Z" fill="#00A0FF"/>
<path d="M20.4736 7.18115H10.3007C9.92127 7.18115 9.61328 7.49355 9.61328 7.87842C9.61328 8.26328 9.92127 8.57568 10.3007 8.57568H20.4736C20.853 8.57568 21.161 8.26328 21.161 7.87842C21.161 7.49355 20.853 7.18115 20.4736 7.18115Z" fill="#00A0FF"/>
<path d="M20.5073 12.6888H4.49209C4.11267 12.6888 3.80469 13.0012 3.80469 13.3861C3.80469 13.771 4.11267 14.0834 4.49209 14.0834H20.5073C20.8867 14.0834 21.1947 13.771 21.1947 13.3861C21.1947 13.0012 20.8867 12.6888 20.5073 12.6888Z" fill="#999999"/>
<path d="M20.5073 15.0596H4.49209C4.11267 15.0596 3.80469 15.372 3.80469 15.7568C3.80469 16.1417 4.11267 16.4541 4.49209 16.4541H20.5073C20.8867 16.4541 21.1947 16.1417 21.1947 15.7568C21.1947 15.372 20.8867 15.0596 20.5073 15.0596Z" fill="#999999"/>
<path d="M20.5073 17.6394H4.49209C4.11267 17.6394 3.80469 17.9518 3.80469 18.3367C3.80469 18.7215 4.11267 19.0339 4.49209 19.0339H20.5073C20.8867 19.0339 21.1947 18.7215 21.1947 18.3367C21.1947 17.9518 20.8867 17.6394 20.5073 17.6394Z" fill="#999999"/>
<path d="M20.5079 20.0101H20.1298C19.7504 20.0101 19.4424 20.3225 19.4424 20.7074C19.4424 21.0923 19.7504 21.4047 20.1298 21.4047H20.5079C20.8873 21.4047 21.1953 21.0923 21.1953 20.7074C21.1953 20.3219 20.8873 20.0101 20.5079 20.0101Z" fill="#999999"/>
<path d="M17.7233 20.0101H4.49209C4.11267 20.0101 3.80469 20.3225 3.80469 20.7074C3.80469 21.0923 4.11267 21.4047 4.49209 21.4047H17.724C18.1034 21.4047 18.4114 21.0923 18.4114 20.7074C18.4107 20.3219 18.1027 20.0101 17.7233 20.0101Z" fill="#999999"/>
</svg>
