<svg width="8" height="10" viewBox="0 0 8 10" fill="none" xmlns="http://www.w3.org/2000/svg">
<path d="M6.83443 2.57514C6.96877 1.90344 6.83443 1.43325 6.43141 1.03022C6.02839 0.560032 5.28951 0.358521 4.34913 0.358521H1.59515C1.39364 0.358521 1.2593 0.492861 1.19212 0.694372L0.18457 7.47858C0.18457 7.61292 0.251741 7.74726 0.386081 7.74726H2.19968L2.46836 5.46347L3.67743 3.98572L6.83443 2.57514Z" fill="#003087"/>
<path d="M6.8341 2.5752L6.69976 2.70954C6.3639 4.5903 5.22201 5.26201 3.60992 5.26201H2.87105C2.66954 5.26201 2.5352 5.39635 2.46803 5.59786L2.065 8.2175L1.93066 8.88921C1.93066 9.02355 1.99783 9.15789 2.13217 9.15789H3.54275C3.74426 9.15789 3.8786 9.02355 3.8786 8.88921V8.82204L4.14728 7.20995V7.14278C4.14728 7.00844 4.34879 6.8741 4.48314 6.8741H4.68465C6.09522 6.8741 7.16995 6.33673 7.43863 4.72465C7.57297 4.05294 7.5058 3.51558 7.16995 3.11256C7.10278 2.77671 6.96844 2.64237 6.8341 2.5752Z" fill="#3086C8"/>
<path d="M6.43082 2.44077C6.36365 2.3736 6.29648 2.3736 6.22931 2.3736C6.16214 2.3736 6.09497 2.3736 6.0278 2.30643C5.82629 2.23926 5.55761 2.23926 5.28893 2.23926H3.27382C3.20665 2.23926 3.13948 2.23926 3.13948 2.30643C3.00514 2.3736 2.93797 2.44077 2.93797 2.57511L2.46777 5.5306V5.59777C2.46777 5.39626 2.66928 5.26192 2.8708 5.26192H3.74401C5.42327 5.26192 6.49799 4.59022 6.83385 2.70945V2.57511C6.76668 2.50794 6.63233 2.44077 6.49799 2.44077H6.43082Z" fill="#012169"/>
</svg>
