<svg width="88" height="23" viewBox="0 0 88 23" fill="none" xmlns="http://www.w3.org/2000/svg">
<path d="M32.7946 4.70361H27.9411C27.609 4.70361 27.3265 4.94058 27.2747 5.26258L25.3117 17.4853C25.2727 17.7265 25.4629 17.9439 25.712 17.9439H28.0291C28.3612 17.9439 28.6437 17.707 28.6955 17.3843L29.2249 14.0876C29.276 13.7649 29.5592 13.5279 29.8906 13.5279H31.427C34.6241 13.5279 36.4693 12.0086 36.9512 8.99764C37.1683 7.68037 36.9604 6.64537 36.3323 5.92052C35.6425 5.12458 34.419 4.70361 32.7946 4.70361ZM33.3545 9.1677C33.0891 10.8781 31.7584 10.8781 30.4718 10.8781H29.7394L30.2532 7.68386C30.2837 7.49079 30.4541 7.34861 30.6528 7.34861H30.9884C31.8649 7.34861 32.6917 7.34861 33.1189 7.83928C33.3737 8.13201 33.4517 8.56692 33.3545 9.1677Z" fill="#253B80"/>
<path d="M47.3024 9.11262H44.9783C44.7803 9.11262 44.6092 9.2548 44.5787 9.44786L44.4758 10.0863L44.3133 9.85489C43.8101 9.13771 42.6881 8.89795 41.5683 8.89795C38.9999 8.89795 36.8063 10.8083 36.3791 13.4882C36.157 14.825 36.4728 16.1032 37.2449 16.9946C37.9532 17.8143 38.9666 18.1558 40.1723 18.1558C42.2417 18.1558 43.3893 16.849 43.3893 16.849L43.2857 17.4832C43.2466 17.7258 43.4368 17.9432 43.6845 17.9432H45.7781C46.1109 17.9432 46.3919 17.7063 46.4444 17.3836L47.7006 9.57122C47.7403 9.33077 47.5508 9.11262 47.3024 9.11262ZM44.0628 13.5551C43.8385 14.8591 42.7846 15.7345 41.4405 15.7345C40.7656 15.7345 40.2263 15.5219 39.8799 15.1191C39.5365 14.719 39.4059 14.1496 39.5152 13.5154C39.7245 12.2225 40.7961 11.3185 42.1197 11.3185C42.7797 11.3185 43.3162 11.5339 43.6696 11.9402C44.0237 12.3507 44.1643 12.9236 44.0628 13.5551Z" fill="#253B80"/>
<path d="M59.6812 9.11279H57.3457C57.1229 9.11279 56.9135 9.22152 56.7872 9.40343L53.5659 14.0634L52.2005 9.58534C52.1147 9.30516 51.8514 9.11279 51.5533 9.11279H49.2582C48.9793 9.11279 48.7856 9.38043 48.8743 9.63831L51.4469 17.0527L49.0283 20.4058C48.8381 20.6699 49.0297 21.0331 49.3583 21.0331H51.691C51.9124 21.0331 52.1196 20.9271 52.2452 20.7487L60.0134 9.73658C60.1993 9.47313 60.0084 9.11279 59.6812 9.11279Z" fill="#253B80"/>
<path d="M67.4137 4.70361H62.5595C62.2281 4.70361 61.9457 4.94058 61.8938 5.26258L59.9309 17.4853C59.8918 17.7265 60.082 17.9439 60.3297 17.9439H62.8207C63.052 17.9439 63.25 17.7781 63.2862 17.5522L63.8433 14.0876C63.8944 13.7649 64.1776 13.5279 64.509 13.5279H66.0448C69.2426 13.5279 71.087 12.0086 71.5696 8.99764C71.7875 7.68037 71.5781 6.64537 70.95 5.92052C70.2609 5.12458 69.0382 4.70361 67.4137 4.70361ZM67.9737 9.1677C67.7089 10.8781 66.3783 10.8781 65.0909 10.8781H64.3593L64.8738 7.68386C64.9043 7.49079 65.0732 7.34861 65.2726 7.34861H65.6083C66.484 7.34861 67.3115 7.34861 67.7387 7.83928C67.9935 8.13201 68.0709 8.56692 67.9737 9.1677Z" fill="#179BD7"/>
<path d="M81.9205 9.11262H79.5977C79.3983 9.11262 79.2287 9.2548 79.1989 9.44786L79.096 10.0863L78.9328 9.85489C78.4296 9.13771 77.3083 8.89795 76.1885 8.89795C73.6201 8.89795 71.4272 10.8083 71 13.4882C70.7786 14.825 71.093 16.1032 71.8651 16.9946C72.5748 17.8143 73.5868 18.1558 74.7925 18.1558C76.8619 18.1558 78.0095 16.849 78.0095 16.849L77.9059 17.4832C77.8668 17.7258 78.057 17.9432 78.3061 17.9432H80.399C80.7304 17.9432 81.0128 17.7063 81.0646 17.3836L82.3215 9.57122C82.3598 9.33077 82.1696 9.11262 81.9205 9.11262ZM78.6808 13.5551C78.458 14.8591 77.4027 15.7345 76.0586 15.7345C75.3851 15.7345 74.8443 15.5219 74.498 15.1191C74.1545 14.719 74.0254 14.1496 74.1332 13.5154C74.344 12.2225 75.4142 11.3185 76.7377 11.3185C77.3977 11.3185 77.9343 11.5339 78.2877 11.9402C78.6432 12.3507 78.7837 12.9236 78.6808 13.5551Z" fill="#179BD7"/>
<path d="M84.6612 5.03906L82.6692 17.4855C82.6301 17.7267 82.8203 17.9442 83.068 17.9442H85.0707C85.4035 17.9442 85.686 17.7072 85.7371 17.3845L87.7015 5.16243C87.7405 4.92128 87.5503 4.70312 87.3026 4.70312H85.0601C84.8621 4.70382 84.6917 4.846 84.6612 5.03906Z" fill="#179BD7"/>
<path d="M5.15648 20.3196L5.52764 18.0043L4.70087 17.9855H0.75293L3.49654 0.900655C3.50506 0.849079 3.53274 0.800988 3.57319 0.766837C3.61364 0.732685 3.66545 0.713867 3.71938 0.713867H10.3762C12.5861 0.713867 14.1112 1.1655 14.9074 2.05693C15.2807 2.47511 15.5185 2.91211 15.6334 3.39302C15.7541 3.89762 15.7562 4.5005 15.6384 5.23581L15.6299 5.28947V5.76062L16.0032 5.96832C16.3176 6.13211 16.5674 6.31959 16.759 6.53426C17.0784 6.89181 17.2849 7.34623 17.3722 7.88499C17.4623 8.43908 17.4325 9.09841 17.2849 9.84487C17.1145 10.7035 16.8392 11.4514 16.4673 12.0633C16.1253 12.6272 15.6895 13.0948 15.1722 13.4573C14.6782 13.8016 14.0913 14.0629 13.4278 14.2302C12.7848 14.3947 12.0517 14.4776 11.2476 14.4776H10.7296C10.3591 14.4776 9.99932 14.6087 9.71687 14.8435C9.4337 15.0833 9.24635 15.4109 9.18887 15.7691L9.14983 15.9775L8.49409 20.0583L8.46428 20.2081C8.45648 20.2555 8.443 20.2792 8.42312 20.2952C8.40538 20.3099 8.37983 20.3196 8.35499 20.3196H5.15648Z" fill="#253B80"/>
<path d="M16.3565 5.34375C16.3367 5.46851 16.3139 5.59605 16.2884 5.72708C15.4105 10.1535 12.4072 11.6827 8.57136 11.6827H6.61833C6.14924 11.6827 5.75395 12.0172 5.68085 12.4717L4.68091 18.6998L4.39775 20.4652C4.3502 20.7635 4.5844 21.0325 4.89098 21.0325H8.35491C8.76511 21.0325 9.11356 20.7398 9.17814 20.3425L9.2122 20.1697L9.8644 16.105L9.90627 15.8819C9.97014 15.4833 10.3193 15.1905 10.7295 15.1905H11.2476C14.6036 15.1905 17.2308 13.8524 17.9987 9.97999C18.3195 8.36233 18.1534 7.0116 17.3047 6.06163C17.0478 5.77517 16.7291 5.53751 16.3565 5.34375Z" fill="#179BD7"/>
<path d="M15.438 4.98426C15.3039 4.94593 15.1655 4.91108 15.0236 4.87971C14.8809 4.84905 14.7347 4.82187 14.5843 4.79817C14.0577 4.71453 13.4807 4.6748 12.8626 4.6748H7.64505C7.5166 4.6748 7.39453 4.70338 7.28524 4.75496C7.04466 4.86856 6.86583 5.09229 6.82254 5.3662L5.7126 12.2704L5.68066 12.4718C5.75376 12.0174 6.14905 11.6828 6.61815 11.6828H8.57118C12.407 11.6828 15.4103 10.153 16.2882 5.72723C16.3145 5.5962 16.3365 5.46865 16.3563 5.3439C16.1342 5.2282 15.8936 5.12923 15.6346 5.0449C15.5707 5.02399 15.5047 5.00377 15.438 4.98426Z" fill="#222D65"/>
<path d="M6.82283 5.36597C6.86612 5.09206 7.04496 4.86833 7.28554 4.75542C7.39554 4.70385 7.5169 4.67527 7.64535 4.67527H12.8629C13.481 4.67527 14.058 4.715 14.5846 4.79864C14.735 4.82233 14.8812 4.84952 15.0239 4.88018C15.1658 4.91155 15.3042 4.94639 15.4383 4.98473C15.505 5.00424 15.571 5.02446 15.6356 5.04467C15.8946 5.129 16.1352 5.22867 16.3573 5.34367C16.6185 3.70788 16.3552 2.59412 15.4546 1.58561C14.4618 0.475333 12.6699 0 10.3769 0H3.72012C3.25173 0 2.85219 0.334545 2.7798 0.789667L0.00708884 18.0501C-0.0475563 18.3916 0.220702 18.6997 0.571282 18.6997H4.68103L5.7129 12.2702L6.82283 5.36597Z" fill="#253B80"/>
</svg>
