<svg width="83" height="83" viewBox="0 0 83 83" fill="none" xmlns="http://www.w3.org/2000/svg">
<g clip-path="url(#clip0_884_13094)">
<path d="M70.68 68.3713C70.443 66.6478 69.4446 65.1739 67.9404 64.3278L53.5827 56.2517C51.385 55.0155 48.6047 55.3974 46.8215 57.1804L41.7797 62.2222C40.7469 63.255 39.0934 63.3837 37.933 62.5216C34.4496 59.9334 31.0452 56.9828 27.814 53.7517C24.583 50.5207 21.6325 47.116 19.0441 43.6326C18.182 42.4724 18.3107 40.8188 19.3435 39.786L24.3853 34.7442C26.1685 32.961 26.5504 30.1807 25.314 27.983L17.238 13.6253C16.392 12.1211 14.9183 11.1226 13.1945 10.8858C11.3885 10.6378 9.59962 11.2488 8.28621 12.5627L2.96855 17.8803C-0.788169 21.637 -0.985618 28.3626 2.41235 36.8184C5.6628 44.9073 11.8481 53.7572 19.8284 61.7375C27.8088 69.7181 36.6585 75.9032 44.7475 79.1535C48.7528 80.7631 52.3695 81.5658 55.4668 81.5658C58.908 81.5658 61.7081 80.5746 63.6854 78.5973L69.003 73.2796C70.3168 71.9661 70.9279 70.177 70.68 68.3713ZM67.1017 71.3784L66.1723 72.3075L53.9321 65.631C53.2801 65.275 52.4635 65.5156 52.108 66.1676C51.7524 66.8194 51.9926 67.6361 52.6446 67.9916L64.1905 74.2894L61.7838 76.6961C58.8796 79.6001 53.0354 79.5863 45.7498 76.6588C37.9898 73.5403 29.4593 67.5661 21.7294 59.8363C14.0001 52.1064 8.02554 43.5757 4.90721 35.8157C1.97952 28.5297 1.9659 22.6857 4.86992 19.7817L7.27611 17.375L8.56326 19.7347C8.80739 20.1821 9.26859 20.4356 9.74471 20.4356C9.96209 20.4356 10.1829 20.3828 10.3871 20.2713C11.039 19.9156 11.2794 19.0989 10.9237 18.447L9.25838 15.3932L10.1874 14.4642C10.7983 13.8537 11.5913 13.5215 12.412 13.5215C12.5503 13.5215 12.6896 13.5311 12.8287 13.5501C13.7114 13.6713 14.4645 14.1792 14.8944 14.9439L22.9704 29.3015C23.6178 30.4528 23.418 31.9091 22.4839 32.843L20.0848 35.2422L13.789 23.6997C13.4335 23.0479 12.6168 22.8075 11.965 23.1631C11.3131 23.5186 11.0727 24.3353 11.4284 24.9872L18.1031 37.2238L17.4423 37.8846C15.4736 39.8532 15.2345 43.0139 16.8859 45.2364C19.5523 48.8247 22.5893 52.3295 25.9127 55.653C29.2362 58.9766 32.741 62.0137 36.3293 64.6798C38.5517 66.3313 41.7121 66.0921 43.6811 64.1234L44.3419 63.4626L47.395 65.128C47.5996 65.2397 47.8201 65.2924 48.0375 65.2924C48.5136 65.2924 48.9748 65.0388 49.2189 64.5914C49.5746 63.9396 49.3343 63.1229 48.6823 62.7674L46.3235 61.4805L48.7225 59.0815C49.6564 58.1476 51.1128 57.9475 52.2643 58.595L66.622 66.6709C67.3865 67.101 67.8945 67.854 68.0158 68.7367C68.1484 69.7021 67.8153 70.6648 67.1017 71.3784Z" fill="#323941"/>
<path d="M64.445 35.8525H62.9213V24.2901C62.9213 23.5477 62.3194 22.9456 61.5768 22.9456C60.8343 22.9456 60.2323 23.5475 60.2323 24.2901V35.8525H53.2141L55.7186 24.5817C55.8796 23.857 55.4226 23.1387 54.6977 22.9777C53.9726 22.8164 53.2548 23.2737 53.0936 23.9985L50.2254 36.9054C50.1369 37.3036 50.2339 37.7202 50.4892 38.0384C50.7443 38.3565 51.13 38.5416 51.5379 38.5416H60.2321V42.9335C60.2321 43.6759 60.834 44.278 61.5766 44.278C62.3191 44.278 62.9212 43.6761 62.9212 42.9335V38.5414H64.4448C65.1873 38.5414 65.7893 37.9395 65.7893 37.1969C65.7893 36.4545 65.1874 35.8525 64.445 35.8525Z" fill="#009EFF"/>
<path d="M47.2374 41.5889H37.3424C37.9273 40.0487 39.5824 39.0693 41.9697 37.7665C44.9157 36.1589 48.5819 34.1582 48.5819 29.6167C48.5819 25.9383 45.4054 22.9456 41.501 22.9456C37.5966 22.9456 34.4201 25.9381 34.4201 29.6167C34.4201 30.3591 35.022 30.9612 35.7646 30.9612C36.5071 30.9612 37.1091 30.3593 37.1091 29.6167C37.1091 27.4209 39.0794 25.6345 41.501 25.6345C43.9226 25.6345 45.8929 27.4207 45.8929 29.6167C45.8927 32.3641 43.9241 33.6367 40.6814 35.4061C37.7466 37.0077 34.4199 38.8232 34.4199 42.9333C34.4199 43.6757 35.0218 44.2778 35.7645 44.2778H47.2372C47.9797 44.2778 48.5818 43.6759 48.5818 42.9333C48.5818 42.1907 47.9799 41.5889 47.2374 41.5889Z" fill="#009EFF"/>
<path d="M75.6561 57.3902L73.0377 57.9138C79.4005 51.7342 83.0006 43.2823 83.0006 34.3287C83.0006 16.1906 68.2441 1.43402 50.1059 1.43402C39.4161 1.43402 29.355 6.6588 23.1926 15.4104C22.7651 16.0175 22.9107 16.8563 23.5177 17.2839C24.1247 17.7114 24.9634 17.5658 25.3911 16.9587C31.0508 8.92135 40.2899 4.12292 50.1061 4.12292C66.7615 4.12292 80.3119 17.6731 80.3119 34.3287C80.3119 42.6707 76.9063 50.5369 70.9026 56.2324L71.502 53.2356C71.6476 52.5075 71.1754 51.7992 70.4472 51.6536C69.7192 51.5079 69.0107 51.9803 68.8652 52.7085L67.4312 59.879C67.343 60.3198 67.4809 60.7755 67.7988 61.0934C68.0533 61.3479 68.3965 61.4872 68.7494 61.4872C68.8371 61.4872 68.9253 61.4786 69.0132 61.4611L76.1837 60.0269C76.9119 59.8811 77.3842 59.1729 77.2386 58.4449C77.0924 57.7168 76.3839 57.2449 75.6561 57.3902Z" fill="#009EFF"/>
<path d="M50.1043 7.17041C49.3618 7.17041 48.7598 7.77232 48.7598 8.51494V11.3831C48.7598 12.1256 49.3617 12.7277 50.1043 12.7277C50.8468 12.7277 51.4488 12.1258 51.4488 11.3831V8.51494C51.4487 7.77248 50.8469 7.17041 50.1043 7.17041Z" fill="#323941"/>
<path d="M75.9198 32.9843H73.0516C72.3091 32.9843 71.707 33.5863 71.707 34.3289C71.707 35.0713 72.3089 35.6734 73.0516 35.6734H75.9198C76.6622 35.6734 77.2643 35.0715 77.2643 34.3289C77.2643 33.5863 76.6622 32.9843 75.9198 32.9843Z" fill="#323941"/>
<path d="M30.905 21.6917L28.4212 20.2576C27.7779 19.8863 26.9559 20.1067 26.5846 20.7496C26.2134 21.3927 26.4337 22.215 27.0766 22.5862L29.5605 24.0202C29.7722 24.1424 30.0033 24.2005 30.2314 24.2005C30.696 24.2005 31.148 23.9592 31.397 23.528C31.7682 22.8851 31.5479 22.0629 30.905 21.6917Z" fill="#323941"/>
<path d="M73.1335 46.0714L70.6497 44.6372C70.0066 44.2658 69.1844 44.4863 68.8132 45.1292C68.442 45.7721 68.6621 46.5945 69.3052 46.9658L71.789 48.3998C72.0007 48.522 72.2319 48.58 72.46 48.58C72.9246 48.58 73.3765 48.3388 73.6255 47.9076C73.9969 47.2648 73.7766 46.4426 73.1335 46.0714Z" fill="#323941"/>
<path d="M63.6833 10.8091C63.0402 10.4377 62.218 10.6582 61.8468 11.3011L60.4128 13.785C60.0415 14.428 60.2618 15.2503 60.9048 15.6215C61.1165 15.7437 61.3475 15.8017 61.5757 15.8017C62.0403 15.8017 62.4923 15.5605 62.7413 15.1293L64.1755 12.6455C64.5467 12.0027 64.3264 11.1803 63.6833 10.8091Z" fill="#323941"/>
<path d="M39.3044 53.0359C38.6613 52.6645 37.8393 52.885 37.4679 53.5279L36.0338 56.0118C35.6626 56.6549 35.8829 57.4771 36.5259 57.8483C36.7376 57.9705 36.9687 58.0286 37.1968 58.0286C37.6614 58.0286 38.1134 57.7874 38.3624 57.3562L39.7966 54.8723C40.1678 54.2294 39.9475 53.4072 39.3044 53.0359Z" fill="#323941"/>
<path d="M73.6256 20.7497C73.2544 20.1066 72.4319 19.8863 71.7891 20.2577L69.3053 21.6918C68.6622 22.0631 68.4419 22.8853 68.8133 23.5284C69.0623 23.9597 69.5142 24.2008 69.9788 24.2008C70.2069 24.2008 70.4381 24.1428 70.6498 24.0205L73.1336 22.5865C73.7766 22.215 73.9969 21.3926 73.6256 20.7497Z" fill="#323941"/>
<path d="M31.3991 45.1294C31.0278 44.4863 30.2055 44.2658 29.5625 44.6374L27.0787 46.0716C26.4356 46.4428 26.2153 47.265 26.5867 47.9081C26.8357 48.3395 27.2877 48.5805 27.7523 48.5805C27.9803 48.5805 28.2115 48.5225 28.4232 48.4003L30.9071 46.9663C31.55 46.5947 31.7703 45.7723 31.3991 45.1294Z" fill="#323941"/>
<path d="M39.7965 13.7851L38.3625 11.3013C37.9913 10.658 37.1689 10.4377 36.526 10.8093C35.8829 11.1805 35.6626 12.0029 36.034 12.6458L37.4681 15.1296C37.7173 15.561 38.1693 15.8021 38.6337 15.8021C38.8618 15.8021 39.093 15.744 39.3047 15.6218C39.9474 15.2504 40.1677 14.428 39.7965 13.7851Z" fill="#323941"/>
<path d="M64.1774 56.0118L62.7433 53.5279C62.3721 52.8848 61.5497 52.6645 60.9068 53.0359C60.2637 53.4071 60.0434 54.2294 60.4148 54.8724L61.8488 57.3563C62.0978 57.7877 62.5498 58.0287 63.0144 58.0287C63.2425 58.0287 63.4737 57.9707 63.6854 57.8484C64.3283 57.4771 64.5486 56.6548 64.1774 56.0118Z" fill="#323941"/>
</g>
<defs>
<clipPath id="clip0_884_13094">
<rect width="83" height="83" fill="white"/>
</clipPath>
</defs>
</svg>
