<svg width="11" height="12" viewBox="0 0 11 12" fill="none" xmlns="http://www.w3.org/2000/svg">
<path d="M5.45761 11.434C8.42538 11.434 10.8312 9.02816 10.8312 6.06039C10.8312 3.09262 8.42538 0.686768 5.45761 0.686768C2.48984 0.686768 0.0839844 3.09262 0.0839844 6.06039C0.0839844 9.02816 2.48984 11.434 5.45761 11.434Z" fill="#8DC451"/>
<path d="M6.94844 5.67758C7.06465 5.44502 7.10236 5.18107 7.05591 4.92527C7.05223 4.74841 7.00999 4.57448 6.93215 4.41563C6.85431 4.25678 6.74274 4.11682 6.60523 4.00553C6.46772 3.89425 6.30759 3.81431 6.13599 3.7713C5.9644 3.72829 5.78549 3.72324 5.61175 3.75651L5.45726 2.70193C5.45642 2.6931 5.45384 2.68451 5.44966 2.67668C5.44548 2.66885 5.43979 2.66192 5.43292 2.6563C5.42605 2.65068 5.41814 2.64647 5.40963 2.64393C5.40112 2.64139 5.3922 2.64055 5.38337 2.64148L4.99378 2.70193C4.97703 2.70666 4.96276 2.7177 4.95399 2.73274C4.94522 2.74778 4.94263 2.76563 4.94676 2.78254L5.12812 3.84383L4.6445 3.93115L4.46314 2.89673C4.4623 2.88789 4.45972 2.87931 4.45554 2.87147C4.45136 2.86364 4.44567 2.85671 4.4388 2.85109C4.43193 2.84547 4.42401 2.84127 4.41551 2.83872C4.407 2.83618 4.39808 2.83535 4.38925 2.83627L4.02653 2.90345C4.01115 2.9081 3.99795 2.91812 3.98932 2.93167C3.9807 2.94523 3.97721 2.96143 3.97951 2.97733L4.16759 4.04534L3.1466 4.2267C3.12984 4.23142 3.11558 4.24247 3.10681 4.2575C3.09804 4.27254 3.09544 4.2904 3.09958 4.30731L3.16675 4.71704C3.16759 4.72588 3.17017 4.73447 3.17435 4.7423C3.17852 4.75013 3.18421 4.75706 3.19108 4.76268C3.19795 4.7683 3.20587 4.77251 3.21438 4.77505C3.22288 4.77759 3.23181 4.77842 3.24064 4.7775H3.30109C3.36996 4.77007 3.43962 4.77637 3.50603 4.79603C3.57245 4.8157 3.63431 4.84834 3.68803 4.89206C3.74175 4.93579 3.78627 4.98973 3.819 5.05078C3.85174 5.11182 3.87205 5.17875 3.87875 5.24769L4.26834 7.40386C4.29738 7.53185 4.27857 7.66605 4.21546 7.78113C4.15236 7.89621 4.04931 7.98422 3.92577 8.02854C3.91271 8.03263 3.90121 8.04061 3.89281 8.05141C3.8844 8.06221 3.8795 8.07533 3.87875 8.08899V8.51888C3.87091 8.53827 3.87091 8.55995 3.87875 8.57934C3.88711 8.58348 3.8963 8.58564 3.90562 8.58564C3.91495 8.58564 3.92414 8.58348 3.93249 8.57934L4.94005 8.40469L5.12141 9.43912C5.12467 9.45574 5.1341 9.47052 5.14781 9.48048C5.16151 9.49045 5.17847 9.49487 5.19529 9.49285L5.55801 9.42568C5.57477 9.42096 5.58903 9.40992 5.5978 9.39488C5.60658 9.37984 5.60917 9.36199 5.60503 9.34508L5.45726 8.33752L5.93417 8.2502L6.11553 9.28463C6.11879 9.30125 6.12822 9.31603 6.14193 9.32599C6.15563 9.33596 6.17259 9.34037 6.18941 9.33836L6.55213 9.27791C6.56889 9.27319 6.58315 9.26214 6.59192 9.24711C6.6007 9.23207 6.60329 9.21421 6.59915 9.1973L6.41779 8.16288L6.65961 8.12258C6.83505 8.09592 7.00247 8.03097 7.14999 7.93233C7.29751 7.8337 7.42151 7.7038 7.51319 7.55186C7.60487 7.39992 7.66198 7.22966 7.68046 7.05317C7.69894 6.87668 7.67835 6.69828 7.62014 6.53064C7.58882 6.34266 7.51094 6.16551 7.39362 6.01534C7.2763 5.86516 7.12325 5.74674 6.94844 5.67086V5.67758ZM4.78555 4.75735L5.50428 4.62972C5.64095 4.6238 5.77513 4.66774 5.88182 4.75337C5.98852 4.83899 6.06048 4.96046 6.0843 5.09518C6.10812 5.22989 6.08219 5.36867 6.01132 5.4857C5.94046 5.60272 5.82949 5.69 5.69907 5.73132L4.98035 5.85894L4.78555 4.75735ZM6.23643 7.3434L5.2759 7.51133L5.0811 6.40974L6.04164 6.24181C6.17832 6.23589 6.31249 6.27983 6.41919 6.36545C6.52589 6.45108 6.59784 6.57255 6.62166 6.70726C6.64548 6.84198 6.61955 6.98076 6.54869 7.09778C6.47782 7.2148 6.36685 7.30209 6.23643 7.3434Z" fill="white"/>
</svg>
