<svg width="50" height="50" viewBox="0 0 50 50" fill="none" xmlns="http://www.w3.org/2000/svg">
<circle cx="25" cy="25" r="23.5" stroke="black" stroke-opacity="0.04" stroke-width="3"/>
<path d="M23.45 28.9C22.9 28.3 22.625 27.5667 22.625 26.7C22.625 26.0333 22.8167 25.4333 23.2 24.9C23.5833 24.3667 24 23.9667 24.45 23.7C24.9 23.4333 25.3167 23.1167 25.7 22.75C26.0833 22.3833 26.275 22.0167 26.275 21.65C26.275 21.2333 26.1083 20.8917 25.775 20.625C25.4583 20.3583 24.975 20.225 24.325 20.225C23.1417 20.225 22.1167 20.7417 21.25 21.775L19.225 19.5C20.6083 17.8833 22.4333 17.075 24.7 17.075C26.3 17.075 27.5667 17.4417 28.5 18.175C29.4333 18.8917 29.9 19.8417 29.9 21.025C29.9 21.6917 29.7583 22.2917 29.475 22.825C29.1917 23.3583 28.8417 23.7917 28.425 24.125C28.025 24.4583 27.6167 24.7667 27.2 25.05C26.7833 25.3333 26.4333 25.6417 26.15 25.975C25.8667 26.3083 25.725 26.6667 25.725 27.05C25.725 27.4833 25.875 27.8333 26.175 28.1L23.45 28.9ZM26.075 33.675C25.675 34.075 25.2 34.275 24.65 34.275C24.1 34.275 23.625 34.075 23.225 33.675C22.825 33.275 22.625 32.8 22.625 32.25C22.625 31.7 22.825 31.225 23.225 30.825C23.625 30.425 24.1 30.225 24.65 30.225C25.2 30.225 25.675 30.425 26.075 30.825C26.475 31.225 26.675 31.7 26.675 32.25C26.675 32.8 26.475 33.275 26.075 33.675Z" fill="#009EFF"/>
</svg>
