<svg width="83" height="83" viewBox="0 0 83 83" fill="none" xmlns="http://www.w3.org/2000/svg">
<path d="M41.4997 35.9667C46.8394 35.9667 51.1831 31.6216 51.1831 26.2833C51.1831 20.9451 46.8394 16.6 41.4997 16.6C36.1601 16.6 31.8164 20.9451 31.8164 26.2833C31.8164 31.6216 36.1601 35.9667 41.4997 35.9667ZM41.4997 19.3667C45.3136 19.3667 48.4164 22.4695 48.4164 26.2833C48.4164 30.0972 45.3136 33.2 41.4997 33.2C37.6859 33.2 34.5831 30.0972 34.5831 26.2833C34.5831 22.4695 37.6859 19.3667 41.4997 19.3667Z" fill="#323941"/>
<path d="M41.2548 75.7472L62.4765 45.0967C70.4362 34.4851 69.2853 17.0427 60.0128 7.77157C55.0024 2.75975 48.3402 0 41.2548 0C34.1694 0 27.5072 2.75975 22.4968 7.77018C13.2243 17.0413 12.0734 34.4837 20.0013 45.0538L41.2548 75.7472ZM24.4528 9.72622C28.9417 5.23868 34.9081 2.76667 41.2548 2.76667C47.6015 2.76667 53.5678 5.23868 58.0568 9.72622C66.4259 18.094 67.4565 33.8474 60.2327 43.4782L41.2548 70.8861L22.2464 43.4367C15.0531 33.8474 16.085 18.094 24.4528 9.72622Z" fill="#323941"/>
<path d="M58.2619 59.493C57.501 59.4003 56.8149 59.9453 56.7263 60.7048C56.6378 61.4642 57.1801 62.1518 57.9381 62.2403C72.4853 63.9529 80.2333 68.5677 80.2333 71.2416C80.2333 74.996 65.4981 80.2333 41.5 80.2333C17.5019 80.2333 2.76667 74.996 2.76667 71.2416C2.76667 68.5677 10.5147 63.9529 25.0619 62.2403C25.8199 62.1518 26.3622 61.4628 26.2736 60.7048C26.1837 59.9453 25.4976 59.3975 24.7381 59.493C10.173 61.2083 0 66.0389 0 71.2416C0 77.0848 14.2552 83 41.5 83C68.7448 83 83 77.0848 83 71.2416C83 66.0389 72.827 61.2083 58.2619 59.493Z" fill="#009EFF"/>
</svg>
