<svg width="25" height="16" viewBox="0 0 25 16" fill="none" xmlns="http://www.w3.org/2000/svg">
<path d="M23.5098 0.671753C24.2487 0.671753 24.8532 1.27629 24.8532 2.01516V14.1058C24.8532 14.8447 24.2487 15.4492 23.5098 15.4492H2.01528C1.27641 15.4492 0.671875 14.8447 0.671875 14.1058V2.01516C0.671875 1.27629 1.27641 0.671753 2.01528 0.671753H23.5098Z" fill="#006FCF"/>
<path d="M6.02556 6.89708L6.54546 8.1572H5.50969L6.02556 6.89708ZM16.8232 6.94947H14.8235V7.50497H16.7909V8.33721H14.8276V8.95652H16.8272V9.45291L18.2223 7.94494L16.8272 6.37315L16.8232 6.94947ZM7.37703 5.37769H10.0605L10.6563 6.67743L11.2084 5.37366H18.174L18.8981 6.17298L19.647 5.37366H22.8464L20.4826 7.96106L22.8222 10.5323H19.5752L18.8511 9.73301L18.0954 10.5323H6.73689L6.40507 9.73301H5.64605L5.31355 10.5323H2.68652L4.89374 5.37366H7.19768L7.37703 5.37769ZM13.196 6.10178H11.692L10.6845 8.47693L9.59298 6.10178H8.10045V9.33268L6.71674 6.10178H5.37804L3.77804 9.80421H4.82254L5.15436 9.00489H6.8981L7.22992 9.80421H9.05696V7.16106L10.2331 9.80824H11.0324L12.2012 7.16912V9.80891H13.1805L13.1967 6.10111L13.196 6.10178ZM19.4697 7.96106L21.1698 6.10178H19.9459L18.8705 7.26114L17.8307 6.10178H13.8717V9.80824H17.7743L18.8585 8.64082L19.8982 9.80824H21.1577L19.4704 7.96106H19.4697Z" fill="white"/>
</svg>
