<svg width="16" height="10" viewBox="0 0 16 10" fill="none" xmlns="http://www.w3.org/2000/svg">
<path d="M4.95778 9.76237C7.55458 9.76237 9.65971 7.65724 9.65971 5.06044C9.65971 2.46364 7.55458 0.358521 4.95778 0.358521C2.36098 0.358521 0.255859 2.46364 0.255859 5.06044C0.255859 7.65724 2.36098 9.76237 4.95778 9.76237Z" fill="#EB001B"/>
<path d="M10.3308 9.76237C12.9276 9.76237 15.0328 7.65724 15.0328 5.06044C15.0328 2.46364 12.9276 0.358521 10.3308 0.358521C7.73403 0.358521 5.62891 2.46364 5.62891 5.06044C5.62891 7.65724 7.73403 9.76237 10.3308 9.76237Z" fill="#F79E1B"/>
<path d="M9.65913 5.0604C9.65913 3.44831 8.85308 2.03773 7.64402 1.23169C6.43495 2.1049 5.62891 3.51548 5.62891 5.0604C5.62891 6.60532 6.43495 8.08306 7.64402 8.88911C8.85308 8.08306 9.65913 6.67249 9.65913 5.0604Z" fill="#FF5F00"/>
</svg>
