<svg width="11" height="12" viewBox="0 0 11 12" fill="none" xmlns="http://www.w3.org/2000/svg">
<path d="M7.30579 0.955471C4.48464 0.0150862 1.46197 1.49283 0.454417 4.31399C-0.553138 7.13514 0.991779 10.1578 3.81293 11.1654C6.63409 12.1729 9.65675 10.628 10.6643 7.80684C11.6047 4.98569 10.1269 1.96303 7.30579 0.955471Z" fill="#EDA024"/>
<path d="M3.61132 3.57519L3.81283 2.90348C4.21586 3.03782 4.68605 3.17216 5.08907 3.37368C5.22341 3.03782 5.35775 2.70197 5.42492 2.29895L6.02946 2.50046L5.6936 3.50802L6.23097 3.70953L6.56682 2.70197L7.17135 2.90348C7.03701 3.23933 6.90267 3.57519 6.8355 3.97821L7.10418 4.11255C7.30569 4.24689 7.5072 4.38123 7.70871 4.58274C7.91022 4.78425 7.9774 4.98576 8.04457 5.25444C8.04457 5.45596 8.04456 5.65747 7.91022 5.85898C7.77588 6.19483 7.57437 6.39634 7.17135 6.46351H7.03701C7.17135 6.53068 7.23852 6.59785 7.30569 6.73219C7.57437 7.00087 7.64154 7.26955 7.57437 7.67258C7.57437 7.73975 7.57437 7.80692 7.5072 7.87409C7.5072 7.94126 7.5072 7.94126 7.44003 8.00843C7.37286 8.14277 7.30569 8.20994 7.30569 8.34428C7.10418 8.68013 6.76833 8.94881 6.29814 8.94881C5.96229 8.94881 5.62643 8.94881 5.35775 8.88164L5.08907 8.81447C4.95473 9.15032 4.82039 9.48618 4.75322 9.8892L4.14869 9.68769C4.28303 9.35183 4.41737 9.01598 4.48454 8.68013L3.94718 8.47862C3.81283 8.81447 3.67849 9.15032 3.61132 9.48618L3.00679 9.28466C3.14113 8.94881 3.27547 8.61296 3.34264 8.20994L2.06641 7.80692L2.46943 7.06804C2.60377 7.13521 2.80528 7.20238 2.93962 7.20238C3.07396 7.26955 3.2083 7.20238 3.27547 7.06804L4.21586 4.24689V4.17972C4.21586 3.97821 4.14869 3.84387 3.94718 3.84387C3.94718 3.70953 3.81283 3.64236 3.61132 3.57519ZM4.41737 7.60541C4.75322 7.73975 5.0219 7.80692 5.29058 7.87409C5.49209 7.94126 5.62643 7.94126 5.82794 7.94126C5.96228 7.94126 6.02945 7.94126 6.1638 7.87409C6.49965 7.67258 6.56682 7.20238 6.29814 6.9337L5.89511 6.59785C5.6936 6.46351 5.42492 6.39634 5.15624 6.32917C5.08907 6.32917 4.95473 6.262 4.88756 6.19483L4.41737 7.60541ZM5.08907 5.52313C5.29058 5.5903 5.42492 5.65747 5.55926 5.65747C5.76077 5.72464 5.96228 5.79181 6.1638 5.72464C6.43248 5.72464 6.63399 5.65747 6.70116 5.38879C6.76833 5.18727 6.76833 4.98576 6.70116 4.85142C6.63399 4.71708 6.49965 4.64991 6.36531 4.58274C6.1638 4.4484 5.96229 4.38123 5.6936 4.31406L5.49209 4.24689C5.42492 4.71708 5.22341 5.1201 5.08907 5.52313Z" fill="white"/>
</svg>
