<svg width="19" height="6" viewBox="0 0 19 6" fill="none" xmlns="http://www.w3.org/2000/svg">
<path d="M16.4847 1.78423H16.2832C16.0145 2.45594 15.813 2.79179 15.6115 3.79934H16.8877C16.6862 2.79179 16.6862 2.3216 16.4847 1.78423ZM18.4326 5.74728H17.2907C17.2235 5.74728 17.2235 5.74728 17.1564 5.68011L17.022 5.07558L16.9549 4.94124H15.3428C15.2756 4.94124 15.2084 4.94124 15.2084 5.07558L15.0069 5.68011C15.0069 5.74728 14.9398 5.74728 14.9398 5.74728H13.5292L13.6635 5.41143L15.6115 0.843849C15.6115 0.507998 15.813 0.373657 16.1488 0.373657H17.1564C17.2235 0.373657 17.2907 0.373657 17.2907 0.507998L18.2311 4.87407C18.2983 5.14275 18.3654 5.34426 18.3654 5.61294C18.4326 5.68011 18.4326 5.68011 18.4326 5.74728ZM9.43179 5.54577L9.70047 4.33671C9.76764 4.33671 9.83481 4.40388 9.83481 4.40388C10.305 4.60539 10.7752 4.73973 11.2454 4.67256C11.3797 4.67256 11.5812 4.60539 11.7156 4.53822C12.0514 4.40388 12.0514 4.06803 11.7827 3.79934C11.6484 3.665 11.4469 3.59783 11.2454 3.46349C10.9767 3.32915 10.708 3.19481 10.5065 2.9933C9.70047 2.3216 9.96915 1.38121 10.4393 0.91102C10.8424 0.642339 11.0439 0.373657 11.5812 0.373657C12.3873 0.373657 13.2605 0.373657 13.6635 0.507998H13.7307C13.6635 0.91102 13.5963 1.24687 13.462 1.64989C13.1262 1.51555 12.7903 1.38121 12.4545 1.38121C12.2529 1.38121 12.0514 1.38121 11.8499 1.44838C11.7156 1.44838 11.6484 1.51555 11.5812 1.58272C11.4469 1.71706 11.4469 1.91857 11.5812 2.05292L11.9171 2.3216C12.1858 2.45594 12.4545 2.59028 12.656 2.72462C12.9918 2.92613 13.3277 3.26198 13.3948 3.665C13.5292 4.26954 13.3277 4.8069 12.7903 5.20992C12.4545 5.4786 12.3201 5.61294 11.8499 5.61294C10.9095 5.61294 10.1707 5.68011 9.56613 5.4786C9.49896 5.61294 9.49896 5.61294 9.43179 5.54577ZM7.08082 5.74728C7.148 5.27709 7.14799 5.27709 7.21517 5.07558C7.55102 3.59783 7.88687 2.05292 8.15555 0.575168C8.22272 0.440828 8.22272 0.373657 8.35706 0.373657H9.56613C9.43179 1.1797 9.29745 1.78423 9.09593 2.52311C8.89442 3.53066 8.69291 4.53822 8.42423 5.54577C8.42423 5.68011 8.35706 5.68011 8.22272 5.68011L7.08082 5.74728ZM0.833984 0.507998C0.833984 0.440827 0.968325 0.373657 1.0355 0.373657H3.31929C3.65514 0.373657 3.92382 0.575168 3.99099 0.91102L4.59552 3.86651C4.59552 3.93368 4.59552 3.93368 4.66269 4.00085C4.66269 3.93368 4.72986 3.93368 4.72986 3.93368L6.14044 0.507998C6.07327 0.440827 6.14044 0.373657 6.20761 0.373657H7.61819C7.61819 0.440828 7.61819 0.440827 7.55102 0.507998L5.46874 5.41143C5.40157 5.54577 5.40157 5.61294 5.3344 5.68011C5.26723 5.74728 5.13289 5.68011 4.99854 5.68011H3.99099C3.92382 5.68011 3.85665 5.68011 3.85665 5.54577L2.78192 1.38121C2.64758 1.24687 2.44607 1.04536 2.17739 0.97819C1.77437 0.776679 1.0355 0.642338 0.901155 0.642338L0.833984 0.507998Z" fill="#142688"/>
</svg>
