<svg width="28" height="28" viewBox="0 0 28 28" fill="none" xmlns="http://www.w3.org/2000/svg">
<path d="M6.23064 18.469C8.78617 21.5123 11.8625 23.9084 15.3736 25.6039C16.7104 26.235 18.4982 26.9838 20.4901 27.1122C20.6135 27.1175 20.7316 27.1229 20.8551 27.1229C22.1919 27.1229 23.2657 26.6629 24.1408 25.7162C24.1462 25.7109 24.1569 25.7002 24.1623 25.6895C24.4737 25.3151 24.828 24.9781 25.1985 24.6198C25.4508 24.3791 25.7085 24.1277 25.9554 23.871C27.099 22.6836 27.099 21.1754 25.9447 20.0254L22.7181 16.811C22.1705 16.2441 21.5155 15.9445 20.8283 15.9445C20.1411 15.9445 19.4807 16.2441 18.917 16.8056L16.995 18.7204C16.8178 18.6188 16.6353 18.5279 16.4635 18.4423C16.2487 18.3353 16.0501 18.2337 15.8729 18.1214C14.1227 17.0142 12.5336 15.5701 11.0142 13.7142C10.2465 12.7461 9.73107 11.9332 9.37136 11.1042C9.87602 10.6495 10.3485 10.1735 10.8048 9.70821C10.9659 9.54241 11.1323 9.3766 11.2987 9.2108C11.8786 8.63316 12.19 7.96461 12.19 7.28535C12.19 6.60609 11.8839 5.93753 11.2987 5.3599L9.69885 3.76605C9.51095 3.57885 9.33378 3.397 9.15124 3.20981C8.7969 2.84611 8.42646 2.47172 8.06138 2.13476C7.5084 1.59457 6.85878 1.3111 6.17158 1.3111C5.48975 1.3111 4.83476 1.59457 4.2603 2.14011L2.25239 4.14044C1.52224 4.86784 1.10885 5.75033 1.02295 6.77189C0.920939 8.05018 1.15716 9.4087 1.7692 11.0507C2.70873 13.5912 4.12609 15.9499 6.23064 18.469Z" stroke="#323941" stroke-width="1.5"/>
</svg>
