<svg width="178" height="266" viewBox="0 0 178 266" fill="none" xmlns="http://www.w3.org/2000/svg">
<g filter="url(#filter0_d_167_4486)">
<path d="M74.4098 171.75L110.148 161.145C106.869 158.163 104.246 152.529 104.246 147.227C104.246 119.39 159 115.744 159 67.3605C159 36.5407 133.098 15 90.8033 15C62.6066 15 36.377 26.5988 19 47.1454L45.5574 77.3023C55.7213 65.0407 69.4918 56.7558 85.8852 56.7558C103.918 56.7558 111.459 65.3721 111.459 75.6454C111.459 98.5116 63.5902 103.151 63.5902 142.587C63.5902 154.186 67.5246 164.128 74.4098 171.75ZM90.1475 243C104.574 243 116.705 230.738 116.705 216.157C116.705 201.576 104.574 189.314 90.1475 189.314C75.7213 189.314 63.5902 201.576 63.5902 216.157C63.5902 230.738 75.7213 243 90.1475 243Z" fill="white"/>
</g>
<defs>
<filter id="filter0_d_167_4486" x="0" y="0" width="178" height="266" filterUnits="userSpaceOnUse" color-interpolation-filters="sRGB">
<feFlood flood-opacity="0" result="BackgroundImageFix"/>
<feColorMatrix in="SourceAlpha" type="matrix" values="0 0 0 0 0 0 0 0 0 0 0 0 0 0 0 0 0 0 127 0" result="hardAlpha"/>
<feOffset dy="4"/>
<feGaussianBlur stdDeviation="9.5"/>
<feComposite in2="hardAlpha" operator="out"/>
<feColorMatrix type="matrix" values="0 0 0 0 0 0 0 0 0 0 0 0 0 0 0 0 0 0 0.35 0"/>
<feBlend mode="normal" in2="BackgroundImageFix" result="effect1_dropShadow_167_4486"/>
<feBlend mode="normal" in="SourceGraphic" in2="effect1_dropShadow_167_4486" result="shape"/>
</filter>
</defs>
</svg>
