<svg width="39" height="39" viewBox="0 0 39 39" fill="none" xmlns="http://www.w3.org/2000/svg">
<circle cx="19.2776" cy="19.759" r="18.966" fill="#009EFF"/>
<path fill-rule="evenodd" clip-rule="evenodd" d="M30.6577 12.4647C29.821 12.8364 28.9205 13.0867 27.9761 13.1998C28.9402 12.6217 29.6806 11.7068 30.0288 10.6168C29.1276 11.1523 28.127 11.54 27.0642 11.7501C26.2123 10.8428 24.9978 10.2754 23.6559 10.2754C21.0774 10.2754 18.9868 12.3661 18.9868 14.9445C18.9868 15.3102 19.0285 15.6667 19.1081 16.0088C15.2272 15.8146 11.787 13.9553 9.48389 11.1303C9.08184 11.8199 8.85199 12.6217 8.85199 13.4774C8.85199 15.097 9.67506 16.5262 10.929 17.3637C10.1628 17.3394 9.44369 17.1293 8.8133 16.7796V16.838C8.8133 19.1008 10.4238 20.9875 12.5585 21.4176C12.167 21.5238 11.7544 21.5814 11.3288 21.5814C11.0276 21.5814 10.7348 21.5518 10.4496 21.4972C11.0436 23.352 12.7686 24.7023 14.8115 24.7402C13.2139 25.9919 11.2006 26.7391 9.01281 26.7391C8.63503 26.7391 8.26332 26.7171 7.89844 26.6731C9.96484 27.9976 12.4189 28.7714 15.0557 28.7714C23.6438 28.7714 28.3402 21.6565 28.3402 15.4869C28.3402 15.2844 28.3364 15.0826 28.3265 14.8831C29.2399 14.2231 30.0318 13.4008 30.6577 12.4647Z" fill="white"/>
</svg>
