<svg width="200" height="192" viewBox="0 0 200 192" fill="none" xmlns="http://www.w3.org/2000/svg">
<path d="M170.058 57.6L170.058 55.4171L168.167 54.3257L101.657 15.9257L99.7661 14.8343L97.8757 15.9257L31.365 54.3257L29.4745 55.4171L29.4745 57.6L29.4746 134.4L29.4746 136.583L31.365 137.674L97.8757 176.074L99.7661 177.166L101.657 176.074L168.167 137.674L170.058 136.583L170.058 134.4L170.058 57.6Z" fill="#009EFF" stroke="#F7F7F7" stroke-width="7.56163"/>
<path d="M138.845 68.0331C138.722 67.1733 138.124 66.4567 137.3 66.1815C136.481 65.9039 135.569 66.1209 134.954 66.7345L131.711 69.9789C129.978 71.7119 126.958 71.7119 125.225 69.9789C123.432 68.1856 123.432 65.2867 125.225 63.4946L128.467 60.2525C129.081 59.639 129.295 58.73 129.02 57.9059C128.745 57.0819 128.028 56.4841 127.168 56.3611C122.89 55.7565 118.559 57.194 115.498 60.2502C112.037 63.714 110.671 68.8056 111.936 73.5411L78.0363 107.439L78.034 107.437C73.3164 106.185 68.1957 107.551 64.7453 111.001C61.7046 114.042 60.2493 118.406 60.8538 122.673C60.977 123.533 61.5748 124.25 62.3987 124.525C63.216 124.801 64.1295 124.586 64.7453 123.972L67.9875 120.728C69.7205 118.995 72.741 118.995 74.4741 120.728C76.2673 122.521 76.2664 125.42 74.4741 127.212L71.2319 130.454C70.6184 131.068 70.4035 131.977 70.6789 132.801C70.9543 133.625 71.6708 134.222 72.5306 134.345C76.7982 134.953 81.0924 133.561 84.2006 130.456C87.6621 126.993 89.0279 121.901 87.7629 117.165L121.663 83.2673L121.665 83.2696C126.407 84.5257 131.503 83.1554 134.954 79.7051C137.994 76.6644 139.45 72.3007 138.845 68.0331Z" fill="white"/>
<path d="M125.223 106.971C124.137 106.971 123.02 107.134 121.707 107.482L112.821 98.5962L103.091 108.325L111.977 117.21C111.629 118.524 111.466 119.642 111.466 120.728C111.466 128.314 117.637 134.484 125.223 134.484C132.809 134.484 138.979 128.314 138.979 120.728C138.979 113.142 132.809 106.971 125.223 106.971ZM132.746 120.269L131.382 125.356C131.17 126.146 130.552 126.764 129.761 126.977L124.674 128.34C123.927 128.546 123.064 128.351 122.46 127.747L118.736 124.023C118.157 123.444 117.93 122.599 118.143 121.809L119.507 116.722C119.719 115.932 120.337 115.314 121.128 115.101L126.215 113.737C127.001 113.518 127.847 113.751 128.429 114.331L132.153 118.054C132.733 118.634 132.959 119.478 132.746 120.269Z" fill="white"/>
<path d="M87.7597 73.4112C89.0247 68.6757 87.6588 63.5819 84.1973 60.1203C79.0005 54.9258 69.9345 54.9258 64.7422 60.1203C59.3797 65.4851 59.3797 74.2127 64.7422 79.5752C68.1881 83.0211 73.291 84.407 78.0332 83.1376L86.8803 92.1111L96.6082 82.3845L87.7597 73.4112ZM81.7634 69.1593L80.3998 74.2463C80.1871 75.0367 79.5691 75.6547 78.7788 75.8673L73.6917 77.2309C72.9444 77.437 72.081 77.2413 71.4774 76.6376L67.7539 72.9141C67.174 72.3342 66.9479 71.4901 67.1605 70.6997L68.5241 65.6127C68.7369 64.8223 69.3549 64.2043 70.1451 63.9917L75.2322 62.6281C76.0226 62.4132 76.8666 62.6416 77.4466 63.2215L81.1701 66.945C81.75 67.5249 81.976 68.3689 81.7634 69.1593Z" fill="white"/>
</svg>
