<svg width="15" height="10" viewBox="0 0 15 10" fill="none" xmlns="http://www.w3.org/2000/svg">
<path fill-rule="evenodd" clip-rule="evenodd" d="M2.81012 0.358521H5.16108V8.08311C5.16108 8.52848 4.98416 8.9556 4.66924 9.27052C4.35431 9.58545 3.92719 9.76237 3.48182 9.76237H1.13086V2.03778C1.13086 1.59241 1.30778 1.16529 1.6227 0.850364C1.93762 0.535442 2.36475 0.358521 2.81012 0.358521Z" fill="#006EBC"/>
<path fill-rule="evenodd" clip-rule="evenodd" d="M7.51129 0.358521H9.86225V8.08311C9.86225 8.52848 9.68533 8.9556 9.37041 9.27052C9.05549 9.58545 8.62836 9.76237 8.18299 9.76237H5.83203V2.03778C5.83203 1.59241 6.00895 1.16529 6.32387 0.850364C6.6388 0.535442 7.06592 0.358521 7.51129 0.358521Z" fill="#F00036"/>
<path fill-rule="evenodd" clip-rule="evenodd" d="M12.2134 0.358521H14.5644V8.08311C14.5644 8.52848 14.3875 8.9556 14.0726 9.27052C13.7576 9.58545 13.3305 9.76237 12.8851 9.76237H10.5342V2.03778C10.5342 1.59241 10.7111 1.16529 11.026 0.850364C11.3409 0.535442 11.7681 0.358521 12.2134 0.358521Z" fill="#2AB419"/>
<path d="M2.30943 6.73964C1.59743 6.73964 0.88408 6.53544 0.525391 6.07667L1.04932 5.6226C1.09499 6.38364 3.43051 6.45551 3.43051 5.49497V3.38112H4.64092V5.49497C4.64092 5.98397 4.25536 6.38297 3.58433 6.59119C3.27131 6.68792 2.66745 6.73964 2.30943 6.73964ZM7.76098 6.73964C7.30825 6.73964 6.82866 6.66777 6.44108 6.4938C5.80431 6.20832 5.55981 5.68372 5.56787 5.01672C5.57593 4.33561 5.86073 3.81975 6.55393 3.56248C7.43991 3.23335 8.79943 3.38717 9.19104 3.74384V4.39674C8.80682 4.04678 7.87584 3.79355 7.23033 4.08776C6.89851 4.23956 6.73529 4.70371 6.73059 5.06038C6.72656 5.43654 6.89515 5.90135 7.23033 6.06592C7.87047 6.37961 8.8357 6.09279 9.19104 5.7697V6.44812C8.95057 6.6194 8.34939 6.73964 7.76098 6.73964ZM13.5907 5.00194C13.8392 4.84409 13.9816 4.62109 13.9816 4.32688C13.9816 4.03268 13.9037 3.86542 13.7479 3.69615C13.6095 3.55711 13.3583 3.38112 12.9163 3.38112H10.5344V6.73964H12.9163C13.3838 6.73964 13.6532 6.58515 13.7996 6.46088C13.9897 6.29296 14.0857 6.10488 14.0857 5.81605C14.0857 5.52654 13.9816 5.20614 13.5907 5.00194ZM12.3104 4.81319H11.3512V3.84326H12.3554C12.9976 3.84326 12.9895 4.81319 12.3104 4.81319ZM12.5039 6.26206H11.3512V5.24577H12.5039C13.1662 5.24577 13.2313 6.26206 12.5039 6.26206Z" fill="white"/>
</svg>
