<svg width="94" height="28" viewBox="0 0 94 28" fill="none" xmlns="http://www.w3.org/2000/svg">
<g clip-path="url(#clip0_1001_8560)">
<path d="M17.943 0C16.1252 0 14.6361 1.48096 14.6361 3.2888C14.6361 5.09663 16.1252 6.54424 17.943 6.54424C19.7607 6.54424 21.2163 5.09663 21.2163 3.2888C21.2163 1.48096 19.7607 0 17.943 0ZM4.41363 7.29139C3.86361 7.29139 3.4209 7.73167 3.4209 8.27869C3.4209 8.82572 3.86361 9.266 4.41363 9.266H15.1995C15.5685 9.24599 16.6417 9.33271 17.1246 9.95311C17.6344 10.6135 17.3996 11.7676 17.1246 12.6148C17.1246 12.6148 13.9922 22.6013 13.7574 23.3485C13.261 24.9428 11.7049 25.9435 10.209 25.2897C8.97484 24.7494 8.89434 23.5819 9.31022 22.4479C9.36388 22.3078 9.43096 22.2077 9.49133 22.0876C9.49133 22.0876 12.1744 17.0644 12.7647 15.6635C13.2007 14.6361 12.6372 13.929 11.289 13.929H5.15818C4.60816 13.929 4.16545 14.3693 4.16545 14.9163C4.16545 15.4633 4.60816 15.9036 5.15818 15.9036H6.90217C7.27109 15.8836 8.37115 15.9303 8.79373 16.5907C9.58523 17.8182 9.04191 18.2185 7.86137 22.3011C7.78758 22.5146 7.72051 22.7347 7.68026 22.9615C7.68026 22.9615 6.86863 25.8167 9.45108 26.9975C11.839 28.0849 14.6093 26.9241 15.4343 24.3358C16.0112 22.5146 19.0095 13.2152 19.0095 13.2152C19.6199 11.3207 19.5193 9.80635 18.6808 8.73232C17.5204 7.25136 15.4477 7.28472 15.1325 7.29806H4.41363V7.29139ZM0.992732 10.5535C0.442704 10.5535 0 10.9938 0 11.5408C0 12.0878 0.442704 12.5548 0.992732 12.5548H13.6769C14.2269 12.5548 14.6696 12.0878 14.6696 11.5408C14.6696 10.9938 14.2269 10.5535 13.6769 10.5535H0.992732Z" fill="#323941"/>
<path d="M32.6747 6.48924C31.1334 6.48924 28.3897 6.67733 28.3897 8.14307C28.3897 10.2768 33.0068 10.2963 33.0068 11.5156C33.0068 11.8852 32.6215 12.216 31.7579 12.216C30.5488 12.216 29.8645 12.1447 28.7484 11.9566C28.2767 11.8788 28.1173 12.7867 28.5093 12.884C29.24 13.0721 30.3827 13.2342 32.4421 13.2342C33.9834 13.2342 36.6673 12.9619 36.6673 11.4896C36.6673 9.35587 32.0834 9.3429 32.0834 8.20792C32.0834 7.83824 32.4687 7.50748 33.3324 7.50748H36.2488C36.8401 7.50748 36.8401 6.48924 36.2488 6.48924H32.6747ZM43.603 6.48924C41.9289 6.48924 39.1055 6.58653 39.1055 8.84351V10.9059C39.1055 13.1694 41.9289 13.2602 43.603 13.2602C45.3768 13.2602 46.3268 13.0981 47.0576 12.91C47.4562 12.8127 47.2901 11.8982 46.8184 11.9825C45.7023 12.1706 45.0247 12.242 43.809 12.242C42.6796 12.242 42.3806 11.989 42.3806 11.3145V10.5298C42.3806 10.2639 42.4471 10.212 42.7394 10.212H45.0313C45.4765 10.212 45.4765 9.3429 45.0313 9.3429H42.7394C42.4471 9.3429 42.3806 9.29101 42.3806 9.0251V8.4414C42.3806 7.76042 42.6796 7.51396 43.809 7.51396H46.6988C47.2901 7.51396 47.2901 6.49573 46.6988 6.49573H43.603V6.48924ZM53.9335 6.48924C52.2593 6.48924 49.4359 6.58653 49.4359 8.84351V10.9967C49.4359 13.0981 52.1398 13.2083 53.8139 13.2083C55.2356 13.2083 58.338 13.137 58.338 11.1718V10.5298C58.338 9.72555 57.7999 9.51152 56.7303 9.51152H54.3786C54.0597 9.51152 54.0597 10.3806 54.3786 10.3806H55.0961C55.3884 10.3806 55.4216 10.439 55.4216 10.6984V11.2497C55.4216 11.9306 54.7772 12.2938 53.8139 12.2938C52.8506 12.2938 52.5051 11.9242 52.5051 11.2497V8.42843C52.5051 7.74745 53.01 7.50099 54.1394 7.50099H57.0293C57.6205 7.50099 57.6205 6.48276 57.0293 6.48276H53.9335V6.48924ZM60.1517 6.48924C59.7464 6.48924 59.7531 6.65138 59.8527 6.98215L61.58 12.0993C61.8125 12.7284 62.3174 13.1434 63.3073 13.1434C64.2971 13.1434 64.7688 12.7219 65.0013 12.1576C65.0013 12.1576 65.6856 10.1601 65.8052 9.80337C65.8849 9.55692 66.0842 9.55692 66.1639 9.80337C66.2636 10.1082 66.9412 12.0993 66.9412 12.0993C67.2734 12.7608 67.6255 13.1434 68.6353 13.1434C69.8244 13.1434 70.3426 12.67 70.5419 12.0993C70.6681 11.7426 71.5849 8.68785 72.1496 6.92378C72.2626 6.58004 72.2293 6.48924 71.9105 6.48924H70.8674C70.5419 7.56585 69.5388 10.8022 69.4989 10.9384C69.4258 11.1848 69.2398 11.1783 69.1402 10.9384C69.0737 10.7697 67.951 7.77339 67.7716 7.30643C67.5856 6.83946 67.0741 6.49573 66.4895 6.49573C65.9646 6.49573 65.473 6.77461 65.3003 7.30643C65.1276 7.83824 64.1842 10.7957 64.1377 10.9384C64.0646 11.1848 63.8587 11.1848 63.779 10.9384C63.7258 10.7892 62.7027 7.52045 62.3772 6.48924H60.1517ZM78.4608 6.48924C76.8398 6.48924 74.2622 6.47627 74.2622 8.43492V12.5014C74.2622 12.91 74.5744 13.1434 75.6307 13.1434C76.687 13.1434 76.9993 12.8581 76.9993 12.5014V10.64C76.9993 10.3741 77.0657 10.3222 77.358 10.3222H79.5038C79.7961 10.3222 79.8626 10.3806 79.8626 10.64V12.5014C79.8626 12.8581 80.1748 13.1434 81.2311 13.1434C82.2874 13.1434 82.5996 12.9165 82.5996 12.5014V8.43492C82.5996 6.47627 80.0818 6.48924 78.4608 6.48924ZM84.3867 6.48924C84.121 6.48924 84.008 6.68381 84.2073 6.92378C84.8783 7.74096 86.4528 9.66718 86.5591 9.80337C86.692 9.96551 86.8846 10.1925 86.8846 10.4454V12.5079C86.8846 12.8646 87.2301 13.1499 88.2864 13.1499C89.3427 13.1499 89.7147 12.9229 89.7147 12.5079V10.2703C89.7147 10.0044 89.8941 9.86174 90.0402 9.68663C90.1465 9.55044 91.6346 7.7669 92.3322 6.92378C92.5315 6.67732 92.4252 6.48924 92.1528 6.48924H90.9039C90.9039 6.48924 89.3028 8.53869 89.1766 8.70082C89.0504 8.86296 88.7979 8.85648 88.6717 8.70082C88.5455 8.54517 87.0042 6.48924 87.0042 6.48924H84.3867ZM93.3752 6.48924C93.0298 6.48924 92.7507 6.76812 92.7507 7.09889C92.7507 7.42965 93.0298 7.70853 93.3752 7.70853C93.714 7.70853 93.9997 7.42965 93.9997 7.09889C93.9997 6.76164 93.7207 6.48924 93.3752 6.48924ZM93.3752 6.63193C93.6277 6.63193 93.8535 6.85244 93.8535 7.09889C93.8535 7.34534 93.6277 7.53342 93.3752 7.53342C93.1228 7.53342 92.9301 7.34534 92.9301 7.09889C92.9301 6.85244 93.1228 6.63193 93.3752 6.63193ZM93.1095 6.86541C93.0895 6.86541 93.0829 6.87189 93.0829 6.89135V7.26751C93.0829 7.29346 93.1028 7.29346 93.1693 7.29346C93.2423 7.29346 93.2556 7.28697 93.2556 7.26751V6.94972C93.2556 6.93026 93.2623 6.92378 93.2822 6.92378H93.3686C93.4284 6.92378 93.4549 6.9562 93.4549 6.98215C93.4549 7.02755 93.3819 7.04052 93.3088 7.04052H93.2822C93.249 7.04052 93.2556 7.1378 93.2822 7.15726C93.3553 7.21563 93.4217 7.274 93.4616 7.29994C93.4749 7.31291 93.5014 7.29994 93.5214 7.29994H93.7007C93.7207 7.29994 93.7207 7.28697 93.7007 7.274L93.4616 7.09889C93.5214 7.09889 93.7007 7.10537 93.7007 6.98215C93.7007 6.89783 93.5878 6.86541 93.435 6.86541H93.1095ZM78.4608 7.35831C79.557 7.35831 79.8626 7.64368 79.8626 8.31818V9.12887C79.8626 9.41424 79.8028 9.44667 79.5371 9.44667H77.3647C77.0724 9.44667 77.0059 9.3883 77.0059 9.12887V8.31818C77.0059 7.64368 77.3647 7.35831 78.4608 7.35831Z" fill="#323941"/>
<path d="M31.5945 16.3483C31.1407 16.3483 30.793 16.4868 30.5513 16.7638C30.3097 17.0408 30.1889 17.4327 30.1889 17.9395C30.1889 18.4523 30.3215 18.8471 30.5867 19.1241C30.8578 19.4011 31.2202 19.5396 31.674 19.5396C31.9157 19.5396 32.119 19.5072 32.284 19.4424C32.4549 19.3775 32.617 19.3039 32.7702 19.2214C32.8704 19.3039 32.947 19.4041 33 19.5219C33.059 19.6339 33.0884 19.7665 33.0884 19.9197C33.0884 20.1614 32.9529 20.3676 32.6818 20.5385C32.4166 20.7036 32.0099 20.7861 31.4619 20.7861C31.067 20.7861 30.6957 20.7301 30.348 20.6181C30.0003 20.5061 29.6968 20.3352 29.4375 20.1054C29.1782 19.8696 28.9719 19.575 28.8187 19.2214C28.6713 18.8619 28.5977 18.4346 28.5977 17.9395C28.5977 17.4799 28.6684 17.0762 28.8098 16.7285C28.9572 16.3748 29.1546 16.0772 29.4021 15.8356C29.6555 15.594 29.9502 15.4113 30.2861 15.2875C30.622 15.1637 30.9815 15.1019 31.3646 15.1019C31.9068 15.1019 32.3252 15.1903 32.6199 15.3671C32.9205 15.5439 33.0708 15.7708 33.0708 16.0478C33.0708 16.201 33.0325 16.3336 32.9558 16.4456C32.8792 16.5575 32.7908 16.6459 32.6906 16.7108C32.5374 16.6106 32.3724 16.5251 32.1956 16.4544C32.0247 16.3837 31.8243 16.3483 31.5945 16.3483Z" fill="#323941"/>
<path d="M35.183 15.429C35.2832 15.37 35.4335 15.314 35.6338 15.261C35.8401 15.2079 36.0464 15.1814 36.2527 15.1814C36.5473 15.1814 36.8066 15.2256 37.0306 15.314C37.2604 15.3965 37.4078 15.5291 37.4726 15.7118C37.5787 16.0183 37.6936 16.3748 37.8174 16.7815C37.9411 17.1881 38.0649 17.6095 38.1886 18.0456C38.3124 18.4758 38.4332 18.9031 38.5511 19.3274C38.669 19.7459 38.7721 20.1172 38.8605 20.4413C38.7898 20.5238 38.6837 20.5886 38.5422 20.6358C38.4008 20.6888 38.2328 20.7153 38.0384 20.7153C37.8969 20.7153 37.7761 20.7036 37.6759 20.68C37.5816 20.6564 37.5021 20.6211 37.4372 20.5739C37.3783 20.5268 37.3282 20.4649 37.2869 20.3883C37.2516 20.3116 37.2192 20.2232 37.1897 20.1231L37.0306 19.5131H35.4305C35.3834 19.6899 35.3362 19.8726 35.2891 20.0612C35.2419 20.2498 35.1948 20.4325 35.1476 20.6093C35.0651 20.6387 34.9767 20.6623 34.8824 20.68C34.794 20.7036 34.685 20.7153 34.5553 20.7153C34.2548 20.7153 34.0308 20.6653 33.8835 20.5651C33.7421 20.459 33.6713 20.3146 33.6713 20.1319C33.6713 20.0494 33.6831 19.9669 33.7067 19.8844C33.7303 19.8019 33.7568 19.7046 33.7863 19.5927C33.8275 19.4335 33.8835 19.2361 33.9542 19.0004C34.0308 18.7646 34.1133 18.5112 34.2017 18.2401C34.2901 17.9631 34.3844 17.6802 34.4846 17.3915C34.5848 17.1027 34.6791 16.8316 34.7675 16.5782C34.8559 16.3189 34.9355 16.089 35.0062 15.8886C35.0828 15.6883 35.1417 15.535 35.183 15.429ZM36.2438 16.5693C36.1613 16.8169 36.067 17.0938 35.9609 17.4003C35.8607 17.7009 35.7694 18.0073 35.6869 18.3197H36.7831C36.7006 18.0014 36.6151 17.692 36.5267 17.3915C36.4442 17.085 36.3676 16.811 36.2969 16.5693H36.2438Z" fill="#323941"/>
<path d="M40.4071 20.6535C40.1537 20.6535 39.9533 20.5798 39.806 20.4325C39.6586 20.2851 39.585 20.0848 39.585 19.8313V15.261C39.6498 15.2492 39.7529 15.2345 39.8944 15.2168C40.0358 15.1932 40.1714 15.1814 40.301 15.1814C40.4366 15.1814 40.5544 15.1932 40.6546 15.2168C40.7607 15.2345 40.8491 15.2698 40.9198 15.3229C40.9905 15.3759 41.0436 15.4496 41.0789 15.5439C41.1143 15.6382 41.132 15.7619 41.132 15.9152V19.407H43.1564C43.1976 19.4718 43.2359 19.5602 43.2713 19.6722C43.3067 19.7783 43.3243 19.8903 43.3243 20.0081C43.3243 20.2439 43.2742 20.4118 43.1741 20.512C43.0739 20.6063 42.9413 20.6535 42.7763 20.6535H40.4071Z" fill="#323941"/>
<path d="M45.6643 20.5916C45.5995 20.6093 45.4963 20.6269 45.3549 20.6446C45.2193 20.6623 45.0838 20.6711 44.9482 20.6711C44.8127 20.6711 44.6919 20.6594 44.5858 20.6358C44.4856 20.6181 44.4001 20.5827 44.3294 20.5297C44.2587 20.4767 44.2057 20.403 44.1703 20.3087C44.1349 20.2144 44.1173 20.0906 44.1173 19.9374V15.2698C44.1821 15.258 44.2852 15.2433 44.4267 15.2256C44.5681 15.2021 44.7037 15.1903 44.8333 15.1903C44.9689 15.1903 45.0867 15.2021 45.1869 15.2256C45.293 15.2433 45.3814 15.2787 45.4521 15.3317C45.5228 15.3848 45.5759 15.4584 45.6112 15.5527C45.6466 15.647 45.6643 15.7708 45.6643 15.924V20.5916Z" fill="#323941"/>
<path d="M50.5766 15.2698C50.6179 15.3347 50.6532 15.4231 50.6827 15.535C50.7181 15.6411 50.7357 15.7531 50.7357 15.871C50.7357 16.1008 50.6857 16.2658 50.5855 16.366C50.4912 16.4603 50.3615 16.5074 50.1965 16.5074H48.3401V17.5064H50.2761C50.3232 17.5712 50.3615 17.6567 50.391 17.7627C50.4263 17.8688 50.444 17.9808 50.444 18.0987C50.444 18.3226 50.3939 18.4847 50.2937 18.5849C50.1994 18.6792 50.0698 18.7263 49.9048 18.7263H48.3578V20.5916C48.2929 20.6093 48.1898 20.6269 48.0483 20.6446C47.9128 20.6623 47.7773 20.6711 47.6417 20.6711C47.5062 20.6711 47.3853 20.6594 47.2793 20.6358C47.1791 20.6181 47.0936 20.5827 47.0229 20.5297C46.9522 20.4767 46.8991 20.403 46.8638 20.3087C46.8284 20.2144 46.8107 20.0906 46.8107 19.9374V16.092C46.8107 15.8385 46.8844 15.6382 47.0317 15.4908C47.1791 15.3435 47.3794 15.2698 47.6329 15.2698H50.5766Z" fill="#323941"/>
<path d="M51.1987 17.9395C51.1987 17.4799 51.2694 17.0732 51.4108 16.7196C51.5582 16.366 51.7556 16.0713 52.0031 15.8356C52.2565 15.594 52.5512 15.4113 52.8871 15.2875C53.229 15.1637 53.5973 15.1019 53.9922 15.1019C54.387 15.1019 54.7524 15.1637 55.0883 15.2875C55.4302 15.4113 55.7278 15.594 55.9812 15.8356C56.2346 16.0713 56.432 16.366 56.5735 16.7196C56.7208 17.0732 56.7945 17.4799 56.7945 17.9395C56.7945 18.3992 56.7238 18.8088 56.5823 19.1683C56.4409 19.5219 56.2434 19.8195 55.99 20.0612C55.7425 20.2969 55.4478 20.4767 55.106 20.6004C54.7642 20.7242 54.3929 20.7861 53.9922 20.7861C53.5914 20.7861 53.2201 20.7242 52.8783 20.6004C52.5365 20.4708 52.2418 20.2851 51.9943 20.0435C51.7468 19.8019 51.5523 19.5043 51.4108 19.1506C51.2694 18.797 51.1987 18.3933 51.1987 17.9395ZM52.7899 17.9395C52.7899 18.4758 52.8989 18.8766 53.117 19.1418C53.335 19.407 53.6268 19.5396 53.9922 19.5396C54.3634 19.5396 54.6581 19.407 54.8762 19.1418C55.0942 18.8766 55.2033 18.4758 55.2033 17.9395C55.2033 17.4091 55.0942 17.0113 54.8762 16.7461C54.664 16.4809 54.3723 16.3483 54.001 16.3483C53.6356 16.3483 53.3409 16.4809 53.117 16.7461C52.8989 17.0054 52.7899 17.4032 52.7899 17.9395Z" fill="#323941"/>
<path d="M59.2178 18.8943V20.5916C59.153 20.6093 59.0498 20.6269 58.9084 20.6446C58.7728 20.6623 58.6373 20.6711 58.5017 20.6711C58.3662 20.6711 58.2454 20.6594 58.1393 20.6358C58.0391 20.6181 57.9536 20.5827 57.8829 20.5297C57.8181 20.4767 57.768 20.403 57.7326 20.3087C57.6973 20.2144 57.6796 20.0906 57.6796 19.9374V15.7737C57.6796 15.65 57.712 15.5557 57.7768 15.4908C57.8476 15.4201 57.9419 15.3641 58.0597 15.3229C58.2601 15.2521 58.4929 15.2021 58.7581 15.1726C59.0233 15.1372 59.3062 15.1195 59.6067 15.1195C60.42 15.1195 61.033 15.2905 61.4455 15.6323C61.858 15.9741 62.0643 16.4367 62.0643 17.0202C62.0643 17.3856 61.97 17.6979 61.7814 17.9572C61.5928 18.2165 61.3689 18.4169 61.1096 18.5584C61.3217 18.8471 61.5309 19.1182 61.7372 19.3716C61.9435 19.6251 62.1056 19.8549 62.2234 20.0612C62.1645 20.2674 62.0555 20.4266 61.8963 20.5385C61.7431 20.6446 61.5693 20.6977 61.3748 20.6977C61.2451 20.6977 61.1331 20.6829 61.0388 20.6535C60.9445 20.624 60.862 20.5827 60.7913 20.5297C60.7206 20.4767 60.6558 20.4118 60.5968 20.3352C60.5379 20.2586 60.4819 20.1761 60.4289 20.0877L59.6863 18.8943H59.2178ZM59.7747 17.7185C59.9987 17.7185 60.1755 17.6626 60.3051 17.5506C60.4348 17.4327 60.4996 17.2618 60.4996 17.0379C60.4996 16.8139 60.4259 16.6459 60.2786 16.534C60.1372 16.4161 59.9103 16.3572 59.5979 16.3572C59.5095 16.3572 59.4388 16.3601 59.3857 16.366C59.3327 16.3719 59.2738 16.3807 59.2089 16.3925V17.7185H59.7747Z" fill="#323941"/>
<path d="M67.9198 20.4413C67.8373 20.5238 67.7165 20.5857 67.5573 20.6269C67.4041 20.6741 67.2185 20.6977 67.0004 20.6977C66.7823 20.6977 66.5761 20.6653 66.3816 20.6004C66.1871 20.5356 66.028 20.3794 65.9042 20.1319L65.0291 18.3462C64.9407 18.1635 64.8611 17.9926 64.7904 17.8335C64.7197 17.6685 64.643 17.4799 64.5605 17.2677L64.5075 17.2765C64.5311 17.5948 64.5429 17.9189 64.5429 18.249C64.5487 18.579 64.5517 18.9031 64.5517 19.2214V20.5916C64.4869 20.6093 64.3867 20.6269 64.2511 20.6446C64.1215 20.6623 63.9918 20.6711 63.8622 20.6711C63.7325 20.6711 63.6176 20.6623 63.5174 20.6446C63.4172 20.6269 63.3347 20.5916 63.2699 20.5385C63.205 20.4855 63.1549 20.4148 63.1196 20.3264C63.0842 20.2321 63.0665 20.1113 63.0665 19.9639V15.5439C63.1491 15.426 63.2758 15.3376 63.4467 15.2787C63.6176 15.2197 63.8003 15.1903 63.9948 15.1903C64.2128 15.1903 64.4191 15.2256 64.6136 15.2964C64.8139 15.3612 64.9731 15.5144 65.0909 15.756L65.975 17.5417C66.0634 17.7244 66.1429 17.8983 66.2136 18.0633C66.2844 18.2224 66.361 18.4081 66.4435 18.6202L66.4877 18.6114C66.4641 18.2932 66.4494 17.9749 66.4435 17.6567C66.4376 17.3384 66.4346 17.0202 66.4346 16.7019V15.2698C66.4995 15.2521 66.5967 15.2345 66.7264 15.2168C66.8619 15.1991 66.9945 15.1903 67.1242 15.1903C67.3835 15.1903 67.5809 15.2374 67.7165 15.3317C67.852 15.4201 67.9198 15.6087 67.9198 15.8975V20.4413Z" fill="#323941"/>
<path d="M70.6135 20.5916C70.5486 20.6093 70.4455 20.6269 70.3041 20.6446C70.1685 20.6623 70.033 20.6711 69.8974 20.6711C69.7619 20.6711 69.641 20.6594 69.535 20.6358C69.4348 20.6181 69.3493 20.5827 69.2786 20.5297C69.2079 20.4767 69.1548 20.403 69.1195 20.3087C69.0841 20.2144 69.0664 20.0906 69.0664 19.9374V15.2698C69.1313 15.258 69.2344 15.2433 69.3758 15.2256C69.5173 15.2021 69.6528 15.1903 69.7825 15.1903C69.918 15.1903 70.0359 15.2021 70.1361 15.2256C70.2422 15.2433 70.3306 15.2787 70.4013 15.3317C70.472 15.3848 70.5251 15.4584 70.5604 15.5527C70.5958 15.647 70.6135 15.7708 70.6135 15.924V20.5916Z" fill="#323941"/>
<path d="M72.9003 15.429C73.0005 15.37 73.1508 15.314 73.3511 15.261C73.5574 15.2079 73.7637 15.1814 73.9699 15.1814C74.2646 15.1814 74.5239 15.2256 74.7479 15.314C74.9777 15.3965 75.1251 15.5291 75.1899 15.7118C75.296 16.0183 75.4109 16.3748 75.5346 16.7815C75.6584 17.1881 75.7822 17.6095 75.9059 18.0456C76.0297 18.4758 76.1505 18.9031 76.2684 19.3274C76.3862 19.7459 76.4894 20.1172 76.5778 20.4413C76.5071 20.5238 76.401 20.5886 76.2595 20.6358C76.1181 20.6888 75.9501 20.7153 75.7557 20.7153C75.6142 20.7153 75.4934 20.7036 75.3932 20.68C75.2989 20.6564 75.2193 20.6211 75.1545 20.5739C75.0956 20.5268 75.0455 20.4649 75.0042 20.3883C74.9689 20.3116 74.9365 20.2232 74.907 20.1231L74.7479 19.5131H73.1478C73.1007 19.6899 73.0535 19.8726 73.0064 20.0612C72.9592 20.2498 72.9121 20.4325 72.8649 20.6093C72.7824 20.6387 72.694 20.6623 72.5997 20.68C72.5113 20.7036 72.4023 20.7153 72.2726 20.7153C71.9721 20.7153 71.7481 20.6653 71.6008 20.5651C71.4594 20.459 71.3886 20.3146 71.3886 20.1319C71.3886 20.0494 71.4004 19.9669 71.424 19.8844C71.4476 19.8019 71.4741 19.7046 71.5036 19.5927C71.5448 19.4335 71.6008 19.2361 71.6715 19.0004C71.7481 18.7646 71.8306 18.5112 71.919 18.2401C72.0074 17.9631 72.1017 17.6802 72.2019 17.3915C72.3021 17.1027 72.3964 16.8316 72.4848 16.5782C72.5732 16.3189 72.6528 16.089 72.7235 15.8886C72.8001 15.6883 72.859 15.535 72.9003 15.429ZM73.9611 16.5693C73.8786 16.8169 73.7843 17.0938 73.6782 17.4003C73.578 17.7009 73.4867 18.0073 73.4042 18.3197H74.5004C74.4178 18.0014 74.3324 17.692 74.244 17.3915C74.1615 17.085 74.0849 16.811 74.0141 16.5693H73.9611Z" fill="#323941"/>
</g>
<defs>
<clipPath id="clip0_1001_8560">
<rect width="94" height="27.4044" fill="white"/>
</clipPath>
</defs>
</svg>
