<svg width="229" height="63" viewBox="0 0 229 63" fill="none" xmlns="http://www.w3.org/2000/svg">
<path d="M41.2306 0C37.0536 0 33.6319 3.40305 33.6319 7.55723C33.6319 11.7114 37.0536 15.0378 41.2306 15.0378C45.4077 15.0378 48.7523 11.7114 48.7523 7.55723C48.7523 3.40305 45.4077 0 41.2306 0ZM10.142 16.7547C8.87807 16.7547 7.8608 17.7664 7.8608 19.0234C7.8608 20.2804 8.87807 21.2921 10.142 21.2921H34.9266C35.7743 21.2461 38.2405 21.4454 39.3502 22.871C40.5216 24.3886 39.9822 27.0405 39.3502 28.9873C39.3502 28.9873 32.1522 51.9349 31.6127 53.6518C30.4721 57.3154 26.8963 59.6148 23.4591 58.1125C20.623 56.8709 20.4381 54.1883 21.3937 51.5823C21.517 51.2604 21.6711 51.0305 21.8099 50.7546C21.8099 50.7546 27.9752 39.2118 29.3316 35.9927C30.3334 33.632 29.0387 32.0071 25.9406 32.0071H11.8528C10.589 32.0071 9.57168 33.0188 9.57168 34.2758C9.57168 35.5328 10.589 36.5445 11.8528 36.5445H15.8603C16.708 36.4985 19.2358 36.6058 20.2069 38.1234C22.0256 40.944 20.7772 41.8637 18.0644 51.2451C17.8949 51.7356 17.7407 52.2415 17.6483 52.7627C17.6483 52.7627 15.7832 59.3235 21.7174 62.0368C27.2045 64.5354 33.5702 61.8681 35.4661 55.9205C36.7916 51.7356 43.6814 30.3669 43.6814 30.3669C45.084 26.0134 44.8528 22.5337 42.9261 20.0658C40.2596 16.6627 35.4969 16.7394 34.7725 16.77H10.142V16.7547ZM2.28117 24.2506C1.01728 24.2506 0 25.2623 0 26.5193C0 27.7763 1.01728 28.8493 2.28117 28.8493H31.4278C32.6917 28.8493 33.7089 27.7763 33.7089 26.5193C33.7089 25.2623 32.6917 24.2506 31.4278 24.2506H2.28117Z" fill="#323941"/>
<path d="M75.0837 16.9114C71.5421 16.9114 65.2374 17.3436 65.2374 20.7117C65.2374 25.6148 75.847 25.6595 75.847 28.4612C75.847 29.3107 74.9616 30.0708 72.977 30.0708C70.1987 30.0708 68.6263 29.9068 66.0617 29.4746C64.9779 29.2958 64.6115 31.3822 65.5122 31.6058C67.1914 32.038 69.8171 32.4105 74.5494 32.4105C78.091 32.4105 84.2583 31.7846 84.2583 28.4016C84.2583 23.4985 73.7251 23.4687 73.7251 20.8607C73.7251 20.0112 74.6105 19.2512 76.595 19.2512H83.2966C84.6553 19.2512 84.6553 16.9114 83.2966 16.9114H75.0837ZM100.196 16.9114C96.3487 16.9114 89.8608 17.1349 89.8608 22.3212V27.0604C89.8608 32.2615 96.3487 32.4702 100.196 32.4702C104.272 32.4702 106.455 32.0976 108.134 31.6654C109.05 31.4418 108.668 29.3405 107.584 29.5343C105.02 29.9664 103.463 30.1304 100.669 30.1304C98.0737 30.1304 97.3868 29.5492 97.3868 27.9992V26.196C97.3868 25.585 97.5395 25.4657 98.2111 25.4657H103.478C104.501 25.4657 104.501 23.4687 103.478 23.4687H98.2111C97.5395 23.4687 97.3868 23.3495 97.3868 22.7385V21.3972C97.3868 19.8324 98.0737 19.2661 100.669 19.2661H107.309C108.668 19.2661 108.668 16.9263 107.309 16.9263H100.196V16.9114ZM123.934 16.9114C120.087 16.9114 113.599 17.1349 113.599 22.3212V27.269C113.599 32.0976 119.812 32.3509 123.659 32.3509C126.926 32.3509 134.055 32.187 134.055 27.6714V26.196C134.055 24.348 132.818 23.8562 130.361 23.8562H124.957C124.224 23.8562 124.224 25.8532 124.957 25.8532H126.605C127.277 25.8532 127.353 25.9873 127.353 26.5835V27.8502C127.353 29.415 125.872 30.2496 123.659 30.2496C121.445 30.2496 120.652 29.4001 120.652 27.8502V21.3674C120.652 19.8026 121.812 19.2363 124.407 19.2363H131.048C132.406 19.2363 132.406 16.8965 131.048 16.8965H123.934V16.9114ZM138.222 16.9114C137.291 16.9114 137.306 17.284 137.535 18.044L141.504 29.8025C142.039 31.2481 143.199 32.2019 145.474 32.2019C147.748 32.2019 148.832 31.2332 149.366 29.9366C149.366 29.9366 150.939 25.3465 151.213 24.5268C151.397 23.9605 151.855 23.9605 152.038 24.5268C152.267 25.2273 153.824 29.8025 153.824 29.8025C154.587 31.3226 155.396 32.2019 157.717 32.2019C160.449 32.2019 161.64 31.114 162.098 29.8025C162.388 28.9828 164.495 21.9635 165.792 17.9099C166.052 17.12 165.975 16.9114 165.243 16.9114H162.846C162.098 19.3853 159.793 26.8219 159.701 27.1349C159.533 27.7012 159.106 27.6863 158.877 27.1349C158.724 26.7474 156.144 19.8622 155.732 18.7892C155.305 17.7161 154.129 16.9263 152.786 16.9263C151.58 16.9263 150.45 17.5671 150.053 18.7892C149.656 20.0112 147.489 26.807 147.382 27.1349C147.214 27.7012 146.741 27.7012 146.557 27.1349C146.435 26.7921 144.084 19.281 143.336 16.9114H138.222ZM180.294 16.9114C176.57 16.9114 170.647 16.8816 170.647 21.3823V30.7265C170.647 31.6654 171.364 32.2019 173.791 32.2019C176.219 32.2019 176.936 31.5462 176.936 30.7265V26.4493C176.936 25.8383 177.089 25.7191 177.76 25.7191H182.691C183.363 25.7191 183.515 25.8532 183.515 26.4493V30.7265C183.515 31.5462 184.233 32.2019 186.66 32.2019C189.087 32.2019 189.805 31.6803 189.805 30.7265V21.3823C189.805 16.8816 184.019 16.9114 180.294 16.9114ZM193.911 16.9114C193.301 16.9114 193.041 17.3585 193.499 17.9099C195.041 19.7877 198.659 24.2139 198.903 24.5268C199.209 24.8994 199.651 25.421 199.651 26.0022V30.7414C199.651 31.5611 200.445 32.2168 202.872 32.2168C205.3 32.2168 206.154 31.6952 206.154 30.7414V25.5999C206.154 24.9888 206.567 24.661 206.902 24.2586C207.147 23.9456 210.566 19.8473 212.169 17.9099C212.627 17.3436 212.383 16.9114 211.757 16.9114H208.887C208.887 16.9114 205.208 21.6207 204.918 21.9933C204.628 22.3659 204.048 22.351 203.758 21.9933C203.468 21.6356 199.926 16.9114 199.926 16.9114H193.911ZM214.566 16.9114C213.772 16.9114 213.131 17.5522 213.131 18.3123C213.131 19.0723 213.772 19.7132 214.566 19.7132C215.344 19.7132 216.001 19.0723 216.001 18.3123C216.001 17.5373 215.36 16.9114 214.566 16.9114ZM214.566 17.2393C215.146 17.2393 215.665 17.746 215.665 18.3123C215.665 18.8786 215.146 19.3108 214.566 19.3108C213.986 19.3108 213.543 18.8786 213.543 18.3123C213.543 17.746 213.986 17.2393 214.566 17.2393ZM213.955 17.7758C213.909 17.7758 213.894 17.7907 213.894 17.8354V18.6998C213.894 18.7594 213.94 18.7594 214.093 18.7594C214.26 18.7594 214.291 18.7445 214.291 18.6998V17.9695C214.291 17.9248 214.306 17.9099 214.352 17.9099H214.551C214.688 17.9099 214.749 17.9844 214.749 18.044C214.749 18.1483 214.581 18.1781 214.413 18.1781H214.352C214.276 18.1781 214.291 18.4017 214.352 18.4464C214.52 18.5805 214.673 18.7147 214.764 18.7743C214.795 18.8041 214.856 18.7743 214.902 18.7743H215.314C215.36 18.7743 215.36 18.7445 215.314 18.7147L214.764 18.3123C214.902 18.3123 215.314 18.3272 215.314 18.044C215.314 17.8503 215.054 17.7758 214.703 17.7758H213.955ZM180.294 18.9084C182.813 18.9084 183.515 19.5641 183.515 21.114V22.9769C183.515 23.6327 183.378 23.7072 182.767 23.7072H177.776C177.104 23.7072 176.951 23.573 176.951 22.9769V21.114C176.951 19.5641 177.776 18.9084 180.294 18.9084Z" fill="#323941"/>
<path d="M72.128 53.2443C74.036 53.2443 75.44 52.4163 76.502 51.1023L75.638 50.5623C74.882 51.6063 73.568 52.3083 72.128 52.3083C69.302 52.3083 67.124 50.1303 67.124 47.0343C67.124 43.9023 69.302 41.7603 72.128 41.7603C73.568 41.7603 74.882 42.4623 75.638 43.5063L76.502 42.9483C75.476 41.6703 74.036 40.8243 72.128 40.8243C68.726 40.8243 66.044 43.3443 66.044 47.0343C66.044 50.7243 68.726 53.2443 72.128 53.2443ZM88.2718 53.0283V41.0223H87.2278V46.3863H79.6138V41.0223H78.5878V53.0283H79.6138V47.3223H87.2278V53.0283H88.2718ZM98.858 53.0283V52.0923H92.27V47.3403H98.732V46.4043H92.27V41.9583H98.858V41.0223H91.244V53.0283H98.858ZM109.684 53.0283L106.21 47.9883C107.992 47.9163 109.54 46.7103 109.54 44.5323C109.54 42.3363 107.956 41.0223 105.886 41.0223H101.404V53.0283H102.43V48.0603H105.076L108.442 53.0283H109.684ZM105.796 47.1243H102.43V41.9583H105.796C107.38 41.9583 108.46 43.0203 108.46 44.5323C108.46 46.0443 107.38 47.1243 105.796 47.1243ZM120.372 53.0283L116.898 47.9883C118.68 47.9163 120.228 46.7103 120.228 44.5323C120.228 42.3363 118.644 41.0223 116.574 41.0223H112.092V53.0283H113.118V48.0603H115.764L119.13 53.0283H120.372ZM116.484 47.1243H113.118V41.9583H116.484C118.068 41.9583 119.148 43.0203 119.148 44.5323C119.148 46.0443 118.068 47.1243 116.484 47.1243ZM127.105 53.0283V47.8983L131.875 41.0223H130.633L126.583 46.9263L122.533 41.0223H121.291L126.061 47.8983V53.0283H127.105ZM148.651 53.0283L152.071 41.0223H150.919L148.021 51.5883L145.087 41.0223H144.151L141.199 51.5883L138.301 41.0223H137.149L140.587 53.0283H141.739L144.619 42.7143L147.499 53.0283H148.651ZM163.594 53.0283V41.0223H162.55V46.3863H154.936V41.0223H153.91V53.0283H154.936V47.3223H162.55V53.0283H163.594ZM174.18 53.0283V52.0923H167.592V47.3403H174.054V46.4043H167.592V41.9583H174.18V41.0223H166.566V53.0283H174.18ZM184.34 53.0283V52.0923H177.752V47.3403H184.214V46.4043H177.752V41.9583H184.34V41.0223H176.726V53.0283H184.34ZM193.727 53.0283V52.0923H187.913V41.0223H186.887V53.0283H193.727ZM207.455 53.0283V52.0923H201.641V41.0223H200.615V53.0283H207.455ZM216.525 53.0283V52.0923H210.711V41.0223H209.685V53.0283H216.525ZM223.722 53.2443C225.63 53.2443 227.034 52.4163 228.096 51.1023L227.232 50.5623C226.476 51.6063 225.162 52.3083 223.722 52.3083C220.896 52.3083 218.718 50.1303 218.718 47.0343C218.718 43.9023 220.896 41.7603 223.722 41.7603C225.162 41.7603 226.476 42.4623 227.232 43.5063L228.096 42.9483C227.07 41.6703 225.63 40.8243 223.722 40.8243C220.32 40.8243 217.638 43.3443 217.638 47.0343C217.638 50.7243 220.32 53.2443 223.722 53.2443Z" fill="#323941"/>
</svg>
