<svg width="157" height="90" viewBox="0 0 157 90" fill="none" xmlns="http://www.w3.org/2000/svg">
<path d="M91.0715 0C86.7215 0 83.1581 3.59888 83.1581 7.99212C83.1581 12.3853 86.7215 15.9032 91.0715 15.9032C95.4214 15.9032 98.9046 12.3853 98.9046 7.99212C98.9046 3.59888 95.4214 0 91.0715 0ZM58.6957 17.7188C57.3794 17.7188 56.32 18.7888 56.32 20.1181C56.32 21.4474 57.3794 22.5173 58.6957 22.5173H84.5064C85.3893 22.4687 87.9575 22.6795 89.1132 24.1871C90.3331 25.792 89.7713 28.5965 89.1132 30.6554C89.1132 30.6554 81.6172 54.9235 81.0554 56.7392C79.8676 60.6136 76.1436 63.0453 72.5641 61.4566C69.6107 60.1435 69.418 57.3065 70.4132 54.5506C70.5417 54.2102 70.7022 53.967 70.8466 53.6752C70.8466 53.6752 77.2672 41.4682 78.6798 38.0639C79.7231 35.5673 78.3748 33.849 75.1484 33.849H60.4774C59.1612 33.849 58.1018 34.9189 58.1018 36.2482C58.1018 37.5775 59.1612 38.6475 60.4774 38.6475H64.6508C65.5336 38.5988 68.166 38.7123 69.1773 40.3172C71.0714 43.3001 69.7712 44.2728 66.9461 54.194C66.7696 54.7128 66.609 55.2477 66.5127 55.7989C66.5127 55.7989 64.5705 62.7373 70.7503 65.6067C76.4647 68.2491 83.0939 65.4284 85.0682 59.1384C86.4487 54.7128 93.6237 32.1144 93.6237 32.1144C95.0844 27.5104 94.8436 23.8304 92.8372 21.2204C90.0603 17.6216 85.1003 17.7026 84.3459 17.735H58.6957V17.7188ZM50.5094 25.6461C49.1932 25.6461 48.1338 26.716 48.1338 28.0454C48.1338 29.3747 49.1932 30.5095 50.5094 30.5095H80.8628C82.179 30.5095 83.2384 29.3747 83.2384 28.0454C83.2384 26.716 82.179 25.6461 80.8628 25.6461H50.5094Z" fill="white"/>
<path d="M10.4757 73.2046C6.79499 73.2046 0.242633 73.6438 0.242633 77.0661C0.242633 82.0482 11.269 82.0937 11.269 84.9406C11.269 85.8038 10.3488 86.5761 8.28632 86.5761C5.39884 86.5761 3.76472 86.4095 1.09936 85.9703C-0.0270766 85.7886 -0.407843 87.9087 0.528208 88.1358C2.27339 88.575 5.00221 88.9536 9.92044 88.9536C13.6012 88.9536 20.0108 88.3175 20.0108 84.88C20.0108 79.8979 9.06372 79.8676 9.06372 77.2176C9.06372 76.3544 9.98391 75.5821 12.0464 75.5821H19.0112C20.4233 75.5821 20.4233 73.2046 19.0112 73.2046H10.4757V73.2046ZM36.5741 73.2046C32.576 73.2046 25.8333 73.4317 25.8333 78.7016V83.5171C25.8333 88.8021 32.576 89.0141 36.5741 89.0141C40.8101 89.0141 43.0789 88.6356 44.824 88.1964C45.7759 87.9692 45.3793 85.8341 44.2529 86.0309C41.5875 86.4701 39.9693 86.6366 37.0659 86.6366C34.3688 86.6366 33.6549 86.0461 33.6549 84.4712V82.6388C33.6549 82.018 33.8135 81.8968 34.5116 81.8968H39.9851C41.0481 81.8968 41.0481 79.8676 39.9851 79.8676H34.5116C33.8135 79.8676 33.6549 79.7465 33.6549 79.1256V77.7627C33.6549 76.1727 34.3688 75.5972 37.0659 75.5972H43.9673C45.3793 75.5972 45.3793 73.2197 43.9673 73.2197H36.5741V73.2046ZM61.2446 73.2046C57.2465 73.2046 50.5038 73.4317 50.5038 78.7016V83.7291C50.5038 88.6356 56.961 88.893 60.959 88.893C64.3542 88.893 71.7633 88.7264 71.7633 84.138V82.6388C71.7633 80.7611 70.4782 80.2613 67.9239 80.2613H62.3076C61.546 80.2613 61.546 82.2905 62.3076 82.2905H64.021C64.7191 82.2905 64.7984 82.4268 64.7984 83.0325V84.3197C64.7984 85.9098 63.2595 86.7578 60.959 86.7578C58.6585 86.7578 57.8335 85.8946 57.8335 84.3197V77.7324C57.8335 76.1424 59.0393 75.5669 61.7364 75.5669H68.6378C70.0498 75.5669 70.0498 73.1895 68.6378 73.1895H61.2446V73.2046ZM76.0945 73.2046C75.1267 73.2046 75.1426 73.5832 75.3805 74.3555L79.5055 86.3035C80.0608 87.7724 81.2665 88.7415 83.6305 88.7415C85.9944 88.7415 87.1208 87.7572 87.6761 86.4398C87.6761 86.4398 89.3102 81.7757 89.5958 80.9428C89.7862 80.3673 90.2622 80.3673 90.4525 80.9428C90.6905 81.6545 92.3088 86.3035 92.3088 86.3035C93.102 87.8481 93.9429 88.7415 96.3544 88.7415C99.1943 88.7415 100.432 87.6361 100.908 86.3035C101.209 85.4706 103.399 78.3382 104.747 74.2192C105.017 73.4166 104.938 73.2046 104.176 73.2046H101.685C100.908 75.7184 98.5121 83.2748 98.4169 83.5929C98.2424 84.1683 97.7982 84.1532 97.5602 83.5929C97.4015 83.1991 94.7203 76.203 94.2919 75.1126C93.8477 74.0223 92.6261 73.2197 91.2299 73.2197C89.9766 73.2197 88.8025 73.8709 88.3901 75.1126C87.9776 76.3544 85.7247 83.2597 85.6136 83.5929C85.4391 84.1683 84.9473 84.1683 84.7569 83.5929C84.63 83.2446 82.1867 75.6124 81.4093 73.2046H76.0945V73.2046ZM119.819 73.2046C115.948 73.2046 109.792 73.1743 109.792 77.7476V87.2424C109.792 88.1964 110.538 88.7415 113.061 88.7415C115.583 88.7415 116.329 88.0753 116.329 87.2424V82.8963C116.329 82.2754 116.487 82.1542 117.186 82.1542H122.31C123.008 82.1542 123.167 82.2905 123.167 82.8963V87.2424C123.167 88.0753 123.912 88.7415 126.435 88.7415C128.958 88.7415 129.703 88.2115 129.703 87.2424V77.7476C129.703 73.1743 123.69 73.2046 119.819 73.2046ZM133.971 73.2046C133.336 73.2046 133.067 73.6589 133.543 74.2192C135.145 76.1272 138.905 80.6248 139.159 80.9428C139.476 81.3214 139.936 81.8514 139.936 82.442V87.2575C139.936 88.0904 140.761 88.7567 143.284 88.7567C145.806 88.7567 146.695 88.2267 146.695 87.2575V82.0331C146.695 81.4122 147.123 81.0791 147.472 80.6702C147.726 80.3522 151.28 76.1878 152.946 74.2192C153.422 73.6437 153.168 73.2046 152.517 73.2046H149.535C149.535 73.2046 145.711 77.9899 145.41 78.3684C145.108 78.747 144.505 78.7319 144.204 78.3684C143.903 78.005 140.222 73.2046 140.222 73.2046H133.971V73.2046ZM155.437 73.2046C154.612 73.2046 153.945 73.8558 153.945 74.6281C153.945 75.4004 154.612 76.0515 155.437 76.0515C156.246 76.0515 156.928 75.4004 156.928 74.6281C156.928 73.8406 156.262 73.2046 155.437 73.2046ZM155.437 73.5377C156.04 73.5377 156.579 74.0526 156.579 74.6281C156.579 75.2035 156.04 75.6427 155.437 75.6427C154.834 75.6427 154.374 75.2035 154.374 74.6281C154.374 74.0526 154.834 73.5377 155.437 73.5377ZM154.802 74.0829C154.754 74.0829 154.739 74.098 154.739 74.1435V75.0218C154.739 75.0824 154.786 75.0824 154.945 75.0824C155.119 75.0824 155.151 75.0672 155.151 75.0218V74.2798C155.151 74.2343 155.167 74.2192 155.215 74.2192H155.421C155.564 74.2192 155.627 74.2949 155.627 74.3555C155.627 74.4615 155.453 74.4918 155.278 74.4918H155.215C155.135 74.4918 155.151 74.7189 155.215 74.7643C155.389 74.9006 155.548 75.0369 155.643 75.0975C155.675 75.1278 155.738 75.0975 155.786 75.0975H156.214C156.262 75.0975 156.262 75.0672 156.214 75.0369L155.643 74.6281C155.786 74.6281 156.214 74.6432 156.214 74.3555C156.214 74.1586 155.944 74.0829 155.579 74.0829H154.802V74.0829ZM119.819 75.2338C122.437 75.2338 123.167 75.9001 123.167 77.475V79.3679C123.167 80.0342 123.024 80.1099 122.389 80.1099H117.201C116.503 80.1099 116.345 79.9736 116.345 79.3679V77.475C116.345 75.9001 117.201 75.2338 119.819 75.2338Z" fill="white"/>
</svg>
