<svg width="78" height="78" viewBox="0 0 78 78" fill="none" xmlns="http://www.w3.org/2000/svg">
<path d="M59 4V75" stroke="#009EFF" stroke-width="2" stroke-linejoin="round"/>
<path d="M72 63L59 76L46 63" stroke="#009EFF" stroke-width="2" stroke-linejoin="round"/>
<path d="M46 17L59 4L72 17" stroke="#009EFF" stroke-width="2" stroke-linejoin="round"/>
<path d="M33.4842 53.1561L32.1818 52.743V54.1093V72.3535C32.1818 73.9197 31.5742 75.0549 30.7018 75.8116C29.8103 76.585 28.5961 77 27.3636 77C26.0924 77 24.9259 76.5756 24.0664 75.8396L24.0656 75.839C23.9482 75.7387 23.8374 75.633 23.7333 75.5224L23.007 74.7508L22.2787 75.5205C21.3717 76.4792 20.0187 77 18.6364 77C17.3651 77 16.1987 76.5756 15.3391 75.8396L15.3383 75.839C14.3733 75.0144 13.8182 73.7937 13.8182 72.3535V54.1093V52.743L12.5158 53.1561C12.1464 53.2733 11.755 53.3332 11.3636 53.3332C9.61186 53.3332 8 52.196 8 50.086V33.2826C8 28.2554 12.1148 24.1531 17.1818 24.1531H28.8182C33.8852 24.1531 38 28.2554 38 33.2826V50.086C38 52.196 36.3881 53.3332 34.6364 53.3332C34.245 53.3332 33.8536 53.2733 33.4842 53.1561Z" stroke="#999999" stroke-width="2"/>
<circle cx="23.5" cy="11.5" r="8.5" stroke="#999999" stroke-width="2"/>
<path d="M34 38V49" stroke="#009EFF" stroke-width="2" stroke-linecap="round"/>
<path d="M34 32V34.5" stroke="#009EFF" stroke-width="2" stroke-linecap="round"/>
</svg>
