<svg width="90" height="90" viewBox="0 0 90 90" fill="none" xmlns="http://www.w3.org/2000/svg">
<path d="M15.5832 67.9397L15.5545 67.8937L15.521 67.851C15.4983 67.8221 15.4863 67.8039 15.4829 67.7985L15.4804 67.7945C14.699 66.538 13.971 65.1533 13.2555 63.5693C11.311 59.1061 10.3312 54.4112 10.3312 49.5833V49.4659L10.304 49.3517C10.307 49.3643 10.3029 49.3382 10.2915 49.265C10.2791 49.1858 10.2581 49.0516 10.2282 48.8514C10.1763 48.5048 10.1048 48.0134 10.0203 47.4101C9.85137 46.2034 9.63103 44.5525 9.4124 42.7215C8.97326 39.0439 8.54785 34.6946 8.54785 31.75C8.54785 23.5055 12.1804 18.9834 16.1826 16.4441C20.2504 13.8631 24.7759 13.2902 26.4979 13.1664L26.8375 13.142L27.0917 12.9154C28.9321 11.2745 35.6048 6 44.9978 6C52.6234 6 61.8045 8.04068 69.0458 12.3172C76.2715 16.5844 81.4478 22.9914 81.4478 31.75C81.4478 37.4235 79.8177 48.6004 79.6655 49.6419L79.6655 49.6421L79.6572 49.6993L79.6464 49.773L79.6467 49.8475C79.664 54.3908 78.6899 59.099 76.7541 63.5806C75.9787 65.2869 75.1336 66.8404 74.2274 68.2361C74.1907 68.292 74.1591 68.329 74.1369 68.3502L74.0494 68.4343L73.9845 68.5368C67.8233 78.27 56.9181 84.25 44.9978 84.25C32.9343 84.25 21.9524 78.154 15.5832 67.9397Z" stroke="#999999" stroke-width="2"/>
<path d="M11.3828 58.4287C12.3244 58.7069 13.3159 58.1576 13.587 57.2053L17.9027 42.1219C20.8416 41.248 29.0842 38.2306 31.777 31.3113C35.9357 35.8017 46.3861 42.2289 72.1873 42.4429L76.4138 57.2089C76.6385 57.99 77.3519 58.5 78.1258 58.5C78.2863 58.5 78.454 58.4786 78.6145 58.4287" stroke="#999999" stroke-width="2"/>
<path d="M77.5654 60.2084C77.9792 60.2441 78.3965 60.2833 78.8102 60.2833C83.7251 60.2833 87.7269 56.2851 87.7269 51.3631C87.7269 46.8477 84.3528 43.0313 79.8802 42.4963" stroke="#999999" stroke-width="2"/>
<path d="M10.1341 42.4963C5.61154 42.9921 2.19824 46.8084 2.19824 51.3666C2.19824 56.2851 6.20004 60.2833 11.1149 60.2833C11.6428 60.2833 12.1492 60.2334 12.6129 60.1371" stroke="#999999" stroke-width="2"/>
<path d="M30.7318 55.7166C28.3345 55.7166 26.3818 53.7639 26.3818 51.3666C26.3818 48.9693 28.3345 47.0166 30.7318 47.0166C33.1292 47.0166 35.0818 48.9693 35.0818 51.3666C35.0818 53.7639 33.1292 55.7166 30.7318 55.7166Z" stroke="#009EFF" stroke-width="2"/>
<path d="M59.265 55.7166C56.8677 55.7166 54.915 53.7639 54.915 51.3666C54.915 48.9693 56.8677 47.0166 59.265 47.0166C61.6624 47.0166 63.615 48.9693 63.615 51.3666C63.615 53.7639 61.6624 55.7166 59.265 55.7166Z" stroke="#009EFF" stroke-width="2"/>
<path d="M34.9082 66.8923C37.6902 69.6743 41.346 71.0653 44.9983 71.0653C48.6506 71.0653 52.3064 69.6779 55.0848 66.8923" stroke="#009EFF" stroke-width="2" stroke-linecap="round"/>
</svg>
