<svg width="12" height="15" viewBox="0 0 12 15" fill="none" xmlns="http://www.w3.org/2000/svg">
<path d="M3.96757 5.69597C4.00905 5.72449 4.05552 5.73874 4.10199 5.73874C4.14666 5.73874 4.19153 5.72542 4.23202 5.69901C4.83013 5.30661 5.51061 5.09907 6.19967 5.09907C6.88873 5.09907 7.56941 5.30661 8.16732 5.69901C8.24969 5.753 8.3502 5.75183 8.43177 5.69597C8.51314 5.64012 8.5632 5.53775 8.5632 5.42721V4.14763C8.5632 3.06578 7.91057 2.77759 6.98737 2.77759H5.60866C4.68547 2.77759 3.83594 3.06578 3.83594 4.14763V5.42744C3.83614 5.53775 3.8862 5.64012 3.96757 5.69597Z" stroke="#009EFF"/>
<path d="M10.1681 6.00611V3.98289C10.1681 2.33817 8.7402 1 6.98517 1H5.41482C3.6598 1 2.23188 2.33817 2.23188 3.98289V6.00611C1.4366 6.88531 1 7.99932 1 9.15505C1 11.8422 3.33269 14.0283 6.19988 14.0283C9.06708 14.0283 11.4 11.8422 11.4 9.15505C11.4 7.99932 10.9634 6.88531 10.1681 6.00611Z" stroke="#009EFF"/>
</svg>
