<svg width="16" height="16" viewBox="0 0 16 16" fill="none" xmlns="http://www.w3.org/2000/svg">
<path d="M7.99699 9.577C9.76006 9.577 11.1893 8.14775 11.1893 6.38469C11.1893 4.62163 9.76006 3.19238 7.99699 3.19238C6.23393 3.19238 4.80469 4.62163 4.80469 6.38469C4.80469 8.14775 6.23393 9.577 7.99699 9.577Z" stroke="#009EFF" stroke-linecap="round" stroke-linejoin="round"/>
<path d="M3.39844 13.2765C3.87901 12.4877 4.55442 11.8357 5.35974 11.3834C6.16506 10.931 7.07321 10.6934 7.9969 10.6934C8.92058 10.6934 9.82874 10.931 10.6341 11.3834C11.4394 11.8357 12.1148 12.4877 12.5954 13.2765" stroke="#009EFF" stroke-linecap="round" stroke-linejoin="round"/>
<path d="M8 15.5C12.1421 15.5 15.5 12.1421 15.5 8C15.5 3.85786 12.1421 0.5 8 0.5C3.85786 0.5 0.5 3.85786 0.5 8C0.5 12.1421 3.85786 15.5 8 15.5Z" stroke="#009EFF" stroke-linecap="round" stroke-linejoin="round"/>
</svg>
