<svg width="11" height="19" viewBox="0 0 11 19" fill="none" xmlns="http://www.w3.org/2000/svg">
<path d="M5.77163 6.23077C7.21607 6.23077 8.38702 5.05982 8.38702 3.61538C8.38702 2.17095 7.21607 1 5.77163 1C4.3272 1 3.15625 2.17095 3.15625 3.61538C3.15625 5.05982 4.3272 6.23077 5.77163 6.23077Z" stroke="#009EFF" stroke-linecap="round" stroke-linejoin="round"/>
<path d="M10.3492 10.8076C10.3492 9.59376 9.86695 8.4296 9.00861 7.57126C8.15027 6.71292 6.98611 6.23071 5.77224 6.23071C4.55836 6.23071 3.3942 6.71292 2.53586 7.57126C1.67752 8.4296 1.19531 9.59376 1.19531 10.8076V12.7692H3.15685L3.8107 17.9999H7.73377L8.38762 12.7692H10.3492V10.8076Z" stroke="#009EFF" stroke-linecap="round" stroke-linejoin="round"/>
</svg>
