<svg width="20" height="17" viewBox="0 0 20 17" fill="none" xmlns="http://www.w3.org/2000/svg">
<path d="M9.5 8.40063C8.67088 8.40063 8 9.1108 8 9.98582C8 10.8608 8.67088 11.571 9.5 11.571C10.3291 11.571 11 10.8608 11 9.98582C11 9.1104 10.3291 8.40063 9.5 8.40063Z" fill="#009EFF" stroke="#009EFF" stroke-miterlimit="10" stroke-linecap="round" stroke-linejoin="round"/>
<path d="M17.4846 15.7993C17.9933 14.9955 18.3894 14.1055 18.6489 13.154C18.8775 12.3156 19 11.4295 19 10.5127C19 10.2906 18.9928 10.0703 18.9787 9.85212C18.9345 9.1691 18.8221 8.506 18.6489 7.87032C18.5566 7.53186 18.4471 7.20118 18.3213 6.87941C18.2558 6.71179 18.1859 6.54659 18.1117 6.38396C17.9878 6.11228 17.8521 5.84779 17.7052 5.59124C16.129 2.83834 13.2693 1 10 1C5.026 1 1 5.25533 1 10.5127C1 12.4691 1.558 14.2864 2.51388 15.7969" stroke="#009EFF" stroke-miterlimit="10" stroke-linecap="round" stroke-linejoin="round"/>
<path d="M14.3229 6.66792C14.5337 6.48961 14.5601 6.17413 14.3818 5.96327C14.2035 5.75242 13.888 5.72604 13.6771 5.90435L14.3229 6.66792ZM9.32286 10.8962L14.3229 6.66792L13.6771 5.90435L8.67714 10.1326L9.32286 10.8962Z" fill="#009EFF"/>
</svg>
