<svg width="16" height="16" viewBox="0 0 16 16" fill="none" xmlns="http://www.w3.org/2000/svg">
<path d="M11.7113 1.5718L15.4226 8L11.7113 14.4282L4.28867 14.4282L0.57735 8L4.28868 1.5718L11.7113 1.5718Z" stroke="#009EFF"/>
<path d="M7.94 11.12C6.86 11.12 6.00667 10.7667 5.38 10.06L5.87 9.43C6.43667 10.0633 7.13667 10.38 7.97 10.38C8.51 10.38 8.90667 10.2667 9.16 10.04C9.41333 9.80667 9.54 9.53667 9.54 9.23C9.54 8.99667 9.46667 8.8 9.32 8.64C9.17333 8.48 8.98333 8.35667 8.75 8.27C8.52333 8.17667 8.26667 8.09333 7.98 8.02C7.7 7.94667 7.42 7.86667 7.14 7.78C6.86 7.68667 6.60333 7.57667 6.37 7.45C6.14333 7.32333 5.95667 7.14333 5.81 6.91C5.66333 6.67667 5.59 6.4 5.59 6.08C5.59 5.53333 5.80667 5.09 6.24 4.75C6.67333 4.40333 7.22 4.23 7.88 4.23C8.87333 4.23 9.66333 4.54 10.25 5.16L9.75 5.77C9.26333 5.23667 8.62 4.97 7.82 4.97C7.42 4.97 7.09 5.07 6.83 5.27C6.57667 5.46333 6.45 5.71667 6.45 6.03C6.45 6.26333 6.54667 6.45667 6.74 6.61C6.94 6.76333 7.18333 6.87667 7.47 6.95C7.76333 7.02333 8.08 7.11667 8.42 7.23C8.76667 7.33667 9.08333 7.45333 9.37 7.58C9.66333 7.7 9.90667 7.89667 10.1 8.17C10.3 8.44333 10.4 8.77333 10.4 9.16C10.4 9.70667 10.1967 10.17 9.79 10.55C9.39 10.93 8.77333 11.12 7.94 11.12Z" fill="#009EFF"/>
</svg>
