<svg width="20" height="18" viewBox="0 0 20 18" fill="none" xmlns="http://www.w3.org/2000/svg">
<path d="M9.5 8.90063C8.67088 8.90063 8 9.56281 8 10.3787C8 11.1946 8.67088 11.8568 9.5 11.8568C10.3291 11.8568 11 11.1946 11 10.3787C11 9.56244 10.3291 8.90063 9.5 8.90063Z" fill="#009EFF" stroke="#009EFF" stroke-miterlimit="10" stroke-linecap="round" stroke-linejoin="round"/>
<path d="M17.4846 15.7993C17.9933 15.0498 18.3894 14.2199 18.6489 13.3327C18.8775 12.551 19 11.7247 19 10.8699C19 10.6628 18.9928 10.4575 18.9787 10.254C18.9345 9.61711 18.8221 8.99881 18.6489 8.40608C18.5566 8.0905 18.4471 7.78217 18.3213 7.48214C18.2558 7.32584 18.1859 7.1718 18.1117 7.02017C17.9878 6.76684 17.8521 6.52022 17.7052 6.28101C16.129 3.71412 13.2693 2 10 2C5.026 2 1 5.96779 1 10.8699C1 12.6941 1.558 14.3886 2.51388 15.7971" stroke="#009EFF" stroke-miterlimit="10" stroke-linecap="round" stroke-linejoin="round"/>
<path d="M14.3096 7.32158C14.5264 7.1506 14.5636 6.83621 14.3926 6.61936C14.2216 6.40252 13.9073 6.36535 13.6904 6.53633L14.3096 7.32158ZM9.30959 11.2642L14.3096 7.32158L13.6904 6.53633L8.69041 10.4789L9.30959 11.2642Z" fill="#009EFF"/>
</svg>
