<svg width="17" height="17" viewBox="0 0 17 17" fill="none" xmlns="http://www.w3.org/2000/svg">
<path d="M4.42043 4.42043L3.19663 3.19663M8.5 1V2.73077V1ZM8.5 14.2692V16V14.2692ZM13.8034 3.19663L12.5796 4.42043L13.8034 3.19663ZM4.42043 12.5796L3.19663 13.8034L4.42043 12.5796ZM16 8.5H14.2692H16ZM2.73077 8.5H1H2.73077ZM13.8034 13.8034L12.5796 12.5796L13.8034 13.8034Z" stroke="#009EFF" stroke-miterlimit="10" stroke-linecap="round" stroke-linejoin="round"/>
<path d="M8.50071 11.2265C10.0069 11.2265 11.228 10.0056 11.228 8.4995C11.228 6.9934 10.0069 5.77246 8.50071 5.77246C6.99448 5.77246 5.77344 6.9934 5.77344 8.4995C5.77344 10.0056 6.99448 11.2265 8.50071 11.2265Z" stroke="#009EFF" stroke-miterlimit="10" stroke-linecap="round" stroke-linejoin="round"/>
</svg>
